<?xml version="1.0" encoding="UTF-8" standalone="no"?>
<!DOCTYPE svg PUBLIC "-//W3C//DTD SVG 1.1//EN"
 "http://www.w3.org/Graphics/SVG/1.1/DTD/svg11.dtd">
<!-- Generated by graphviz version 2.32.0 (20130805.1022)
 -->
<!-- Title: fsm Pages: 1 -->
<svg width="2048pt" height="923pt"
 viewBox="0.00 0.00 2047.95 922.83" xmlns="http://www.w3.org/2000/svg" xmlns:xlink="http://www.w3.org/1999/xlink">
<g id="graph0" class="graph" transform="scale(1 1) rotate(0) translate(4 918.835)">
<title>fsm</title>
<polygon fill="white" stroke="white" points="-4,5 -4,-918.835 2044.95,-918.835 2044.95,5 -4,5"/>
<text text-anchor="middle" x="1019.97" y="-8.2" font-family="Times,serif" font-size="14.00">fsm</text>
<!-- n14 -->
<g id="node1" class="node"><title>n14</title>
<polygon fill="none" stroke="black" points="69.6965,-244.379 69.6965,-259.291 50.5433,-269.835 23.4567,-269.835 4.3035,-259.291 4.3035,-244.379 23.4567,-233.835 50.5433,-233.835 69.6965,-244.379"/>
<text text-anchor="middle" x="37" y="-247.635" font-family="Times,serif" font-size="14.00">CLK</text>
</g>
<!-- c45 -->
<g id="node38" class="node"><title>c45</title>
<polygon fill="none" stroke="black" points="110.613,-187.635 110.613,-262.035 257.387,-262.035 257.387,-187.635 110.613,-187.635"/>
<text text-anchor="middle" x="123.666" y="-245.435" font-family="Times,serif" font-size="14.00">C</text>
<polyline fill="none" stroke="black" points="110.613,-237.235 136.719,-237.235 "/>
<text text-anchor="middle" x="123.666" y="-220.635" font-family="Times,serif" font-size="14.00">D</text>
<polyline fill="none" stroke="black" points="110.613,-212.435 136.719,-212.435 "/>
<text text-anchor="middle" x="123.666" y="-195.835" font-family="Times,serif" font-size="14.00">R</text>
<polyline fill="none" stroke="black" points="136.719,-187.635 136.719,-262.035 "/>
<text text-anchor="middle" x="184" y="-229.035" font-family="Times,serif" font-size="14.00">$171</text>
<text text-anchor="middle" x="184" y="-212.235" font-family="Times,serif" font-size="14.00">$_DFF_PN0_</text>
<polyline fill="none" stroke="black" points="231.28,-187.635 231.28,-262.035 "/>
<text text-anchor="middle" x="244.334" y="-220.935" font-family="Times,serif" font-size="14.00">Q</text>
</g>
<!-- n14&#45;&gt;c45 -->
<g id="edge30" class="edge"><title>n14:e&#45;&gt;c45:p35:w</title>
<path fill="none" stroke="black" d="M71,-251.835C84.4239,-251.835 90.0302,-250.639 99.9117,-250.096"/>
<polygon fill="black" stroke="black" points="100.094,-253.593 110,-249.835 99.9126,-246.595 100.094,-253.593"/>
</g>
<!-- c46 -->
<g id="node41" class="node"><title>c46</title>
<polygon fill="none" stroke="black" points="1786.61,-24.635 1786.61,-99.035 1933.39,-99.035 1933.39,-24.635 1786.61,-24.635"/>
<text text-anchor="middle" x="1799.67" y="-82.435" font-family="Times,serif" font-size="14.00">C</text>
<polyline fill="none" stroke="black" points="1786.61,-74.235 1812.72,-74.235 "/>
<text text-anchor="middle" x="1799.67" y="-57.635" font-family="Times,serif" font-size="14.00">D</text>
<polyline fill="none" stroke="black" points="1786.61,-49.435 1812.72,-49.435 "/>
<text text-anchor="middle" x="1799.67" y="-32.835" font-family="Times,serif" font-size="14.00">R</text>
<polyline fill="none" stroke="black" points="1812.72,-24.635 1812.72,-99.035 "/>
<text text-anchor="middle" x="1860" y="-66.035" font-family="Times,serif" font-size="14.00">$172</text>
<text text-anchor="middle" x="1860" y="-49.235" font-family="Times,serif" font-size="14.00">$_DFF_PN0_</text>
<polyline fill="none" stroke="black" points="1907.28,-24.635 1907.28,-99.035 "/>
<text text-anchor="middle" x="1920.33" y="-57.935" font-family="Times,serif" font-size="14.00">Q</text>
</g>
<!-- n14&#45;&gt;c46 -->
<g id="edge31" class="edge"><title>n14:e&#45;&gt;c46:p35:w</title>
<path fill="none" stroke="black" d="M71,-251.835C108.177,-251.835 83.2138,-203.615 110,-177.835 186.341,-104.361 219.045,-74.835 325,-74.835 325,-74.835 325,-74.835 1612,-74.835 1686.03,-74.835 1706.66,-85.7811 1775.9,-86.7645"/>
<polygon fill="black" stroke="black" points="1775.98,-90.265 1786,-86.835 1776.02,-83.2652 1775.98,-90.265"/>
</g>
<!-- c47 -->
<g id="node44" class="node"><title>c47</title>
<polygon fill="none" stroke="black" points="1786.61,-840.635 1786.61,-915.035 1933.39,-915.035 1933.39,-840.635 1786.61,-840.635"/>
<text text-anchor="middle" x="1799.67" y="-898.435" font-family="Times,serif" font-size="14.00">C</text>
<polyline fill="none" stroke="black" points="1786.61,-890.235 1812.72,-890.235 "/>
<text text-anchor="middle" x="1799.67" y="-873.635" font-family="Times,serif" font-size="14.00">D</text>
<polyline fill="none" stroke="black" points="1786.61,-865.435 1812.72,-865.435 "/>
<text text-anchor="middle" x="1799.67" y="-848.835" font-family="Times,serif" font-size="14.00">R</text>
<polyline fill="none" stroke="black" points="1812.72,-840.635 1812.72,-915.035 "/>
<text text-anchor="middle" x="1860" y="-882.035" font-family="Times,serif" font-size="14.00">$173</text>
<text text-anchor="middle" x="1860" y="-865.235" font-family="Times,serif" font-size="14.00">$_DFF_PN0_</text>
<polyline fill="none" stroke="black" points="1907.28,-840.635 1907.28,-915.035 "/>
<text text-anchor="middle" x="1920.33" y="-873.935" font-family="Times,serif" font-size="14.00">Q</text>
</g>
<!-- n14&#45;&gt;c47 -->
<g id="edge32" class="edge"><title>n14:e&#45;&gt;c47:p35:w</title>
<path fill="none" stroke="black" d="M71,-251.835C139.36,-251.835 63.6282,-815.608 110,-865.835 175.49,-936.769 228.456,-896.835 325,-896.835 325,-896.835 325,-896.835 1612,-896.835 1685.9,-896.835 1706.77,-902.308 1775.91,-902.8"/>
<polygon fill="black" stroke="black" points="1775.99,-906.3 1786,-902.835 1776.01,-899.3 1775.99,-906.3"/>
</g>
<!-- n15 -->
<g id="node2" class="node"><title>n15</title>
<polygon fill="none" stroke="black" points="1111.77,-742.379 1111.77,-757.291 1089.06,-767.835 1056.94,-767.835 1034.23,-757.291 1034.23,-742.379 1056.94,-731.835 1089.06,-731.835 1111.77,-742.379"/>
<text text-anchor="middle" x="1073" y="-745.635" font-family="Times,serif" font-size="14.00">accept</text>
</g>
<!-- n16 -->
<g id="node3" class="node"><title>n16</title>
<polygon fill="none" stroke="black" points="573.214,-395.379 573.214,-410.291 556.101,-420.835 531.899,-420.835 514.786,-410.291 514.786,-395.379 531.899,-384.835 556.101,-384.835 573.214,-395.379"/>
<text text-anchor="middle" x="544" y="-398.635" font-family="Times,serif" font-size="14.00">data</text>
</g>
<!-- c24 -->
<g id="node11" class="node"><title>c24</title>
<polygon fill="none" stroke="black" points="613.01,-388.035 613.01,-429.635 730.99,-429.635 730.99,-388.035 613.01,-388.035"/>
<text text-anchor="middle" x="626.064" y="-405.035" font-family="Times,serif" font-size="14.00">A</text>
<polyline fill="none" stroke="black" points="639.117,-388.035 639.117,-429.635 "/>
<text text-anchor="middle" x="672" y="-413.035" font-family="Times,serif" font-size="14.00">$263</text>
<text text-anchor="middle" x="672" y="-396.235" font-family="Times,serif" font-size="14.00">$_NOT_</text>
<polyline fill="none" stroke="black" points="704.883,-388.035 704.883,-429.635 "/>
<text text-anchor="middle" x="717.936" y="-405.035" font-family="Times,serif" font-size="14.00">Y</text>
</g>
<!-- n16&#45;&gt;c24 -->
<g id="edge34" class="edge"><title>n16:e&#45;&gt;c24:p20:w</title>
<path fill="none" stroke="black" d="M574,-402.835C587.091,-402.835 592.389,-406.352 601.826,-408.001"/>
<polygon fill="black" stroke="black" points="601.747,-411.506 612,-408.835 602.32,-404.529 601.747,-411.506"/>
</g>
<!-- c33 -->
<g id="node27" class="node"><title>c33</title>
<polygon fill="none" stroke="black" points="612.619,-226.035 612.619,-275.635 731.381,-275.635 731.381,-226.035 612.619,-226.035"/>
<text text-anchor="middle" x="625.672" y="-259.035" font-family="Times,serif" font-size="14.00">A</text>
<polyline fill="none" stroke="black" points="612.619,-250.835 638.725,-250.835 "/>
<text text-anchor="middle" x="625.672" y="-234.235" font-family="Times,serif" font-size="14.00">B</text>
<polyline fill="none" stroke="black" points="638.725,-226.035 638.725,-275.635 "/>
<text text-anchor="middle" x="672" y="-255.035" font-family="Times,serif" font-size="14.00">$271</text>
<text text-anchor="middle" x="672" y="-238.235" font-family="Times,serif" font-size="14.00">$_NOR_</text>
<polyline fill="none" stroke="black" points="705.275,-226.035 705.275,-275.635 "/>
<text text-anchor="middle" x="718.328" y="-247.035" font-family="Times,serif" font-size="14.00">Y</text>
</g>
<!-- n16&#45;&gt;c33 -->
<g id="edge35" class="edge"><title>n16:e&#45;&gt;c33:p25:w</title>
<path fill="none" stroke="black" d="M574,-402.835C645.02,-402.835 548.038,-255.068 601.995,-240.061"/>
<polygon fill="black" stroke="black" points="602.5,-243.525 612,-238.835 601.649,-236.577 602.5,-243.525"/>
</g>
<!-- c41 -->
<g id="node35" class="node"><title>c41</title>
<polygon fill="none" stroke="black" points="1152.06,-525.635 1152.06,-600.035 1273.94,-600.035 1273.94,-525.635 1152.06,-525.635"/>
<text text-anchor="middle" x="1165.12" y="-583.435" font-family="Times,serif" font-size="14.00">A</text>
<polyline fill="none" stroke="black" points="1152.06,-575.235 1178.17,-575.235 "/>
<text text-anchor="middle" x="1165.12" y="-558.635" font-family="Times,serif" font-size="14.00">B</text>
<polyline fill="none" stroke="black" points="1152.06,-550.435 1178.17,-550.435 "/>
<text text-anchor="middle" x="1165.12" y="-533.835" font-family="Times,serif" font-size="14.00">S</text>
<polyline fill="none" stroke="black" points="1178.17,-525.635 1178.17,-600.035 "/>
<text text-anchor="middle" x="1213" y="-567.035" font-family="Times,serif" font-size="14.00">$276</text>
<text text-anchor="middle" x="1213" y="-550.235" font-family="Times,serif" font-size="14.00">$_MUX_</text>
<polyline fill="none" stroke="black" points="1247.83,-525.635 1247.83,-600.035 "/>
<text text-anchor="middle" x="1260.88" y="-558.935" font-family="Times,serif" font-size="14.00">Y</text>
</g>
<!-- n16&#45;&gt;c41 -->
<g id="edge36" class="edge"><title>n16:e&#45;&gt;c41:p40:w</title>
<path fill="none" stroke="black" d="M574,-402.835C597.264,-402.835 592.601,-425.994 612,-438.835 675.069,-480.582 695.011,-487.008 768,-506.835 842.368,-527.037 1046.8,-537.095 1140.9,-537.796"/>
<polygon fill="black" stroke="black" points="1140.99,-541.296 1151,-537.835 1141.01,-534.296 1140.99,-541.296"/>
</g>
<!-- n17 -->
<g id="node4" class="node"><title>n17</title>
<polygon fill="none" stroke="black" points="73.1788,-190.379 73.1788,-205.291 51.9858,-215.835 22.0142,-215.835 0.821158,-205.291 0.821158,-190.379 22.0142,-179.835 51.9858,-179.835 73.1788,-190.379"/>
<text text-anchor="middle" x="37" y="-193.635" font-family="Times,serif" font-size="14.00">nRST</text>
</g>
<!-- n17&#45;&gt;c45 -->
<g id="edge37" class="edge"><title>n17:e&#45;&gt;c45:p43:w</title>
<path fill="none" stroke="black" d="M74,-197.835C86.0185,-197.835 91.2454,-198.96 99.8681,-199.522"/>
<polygon fill="black" stroke="black" points="99.8968,-203.025 110,-199.835 100.113,-196.028 99.8968,-203.025"/>
</g>
<!-- n17&#45;&gt;c46 -->
<g id="edge38" class="edge"><title>n17:e&#45;&gt;c46:p43:w</title>
<path fill="none" stroke="black" d="M74,-197.835C136.956,-197.835 62.3593,-101.991 110,-60.835 182.759,2.02033 228.851,-36.835 325,-36.835 325,-36.835 325,-36.835 1612,-36.835 1685.86,-36.835 1706.81,-36.835 1775.92,-36.835"/>
<polygon fill="black" stroke="black" points="1776,-40.3351 1786,-36.835 1776,-33.3351 1776,-40.3351"/>
</g>
<!-- n17&#45;&gt;c47 -->
<g id="edge39" class="edge"><title>n17:e&#45;&gt;c47:p43:w</title>
<path fill="none" stroke="black" d="M74,-197.835C93.4587,-197.835 305.541,-851.835 325,-851.835 325,-851.835 325,-851.835 1612,-851.835 1685.86,-851.835 1706.81,-852.747 1775.92,-852.829"/>
<polygon fill="black" stroke="black" points="1776,-856.329 1786,-852.835 1776,-849.329 1776,-856.329"/>
</g>
<!-- n18 -->
<g id="node5" class="node"><title>n18</title>
<polygon fill="none" stroke="black" points="1611,-338.835 1571.75,-320.835 1611,-302.835 1650.25,-320.835 1611,-338.835"/>
<text text-anchor="middle" x="1611" y="-316.635" font-family="Times,serif" font-size="14.00">next</text>
</g>
<!-- x14 -->
<g id="node39" class="node"><title>x14</title>
<path fill="none" stroke="black" d="M1698.28,-179.835C1698.28,-179.835 1737.72,-179.835 1737.72,-179.835 1743.72,-179.835 1749.72,-185.835 1749.72,-191.835 1749.72,-191.835 1749.72,-203.835 1749.72,-203.835 1749.72,-209.835 1743.72,-215.835 1737.72,-215.835 1737.72,-215.835 1698.28,-215.835 1698.28,-215.835 1692.28,-215.835 1686.28,-209.835 1686.28,-203.835 1686.28,-203.835 1686.28,-191.835 1686.28,-191.835 1686.28,-185.835 1692.28,-179.835 1698.28,-179.835"/>
<text text-anchor="middle" x="1718" y="-193.735" font-family="Times,serif" font-size="14.00">0:0 &#45; 0:0</text>
</g>
<!-- n18&#45;&gt;x14 -->
<g id="edge43" class="edge"><title>n18:e&#45;&gt;x14:s0:w</title>
<path fill="none" stroke="black" d="M1650,-320.835C1702.96,-320.835 1639.33,-214.524 1675.89,-199.574"/>
<polygon fill="black" stroke="black" points="1676.74,-202.98 1686,-197.835 1675.55,-196.081 1676.74,-202.98"/>
</g>
<!-- x16 -->
<g id="node42" class="node"><title>x16</title>
<path fill="none" stroke="black" d="M1698.28,-257.835C1698.28,-257.835 1737.72,-257.835 1737.72,-257.835 1743.72,-257.835 1749.72,-263.835 1749.72,-269.835 1749.72,-269.835 1749.72,-281.835 1749.72,-281.835 1749.72,-287.835 1743.72,-293.835 1737.72,-293.835 1737.72,-293.835 1698.28,-293.835 1698.28,-293.835 1692.28,-293.835 1686.28,-287.835 1686.28,-281.835 1686.28,-281.835 1686.28,-269.835 1686.28,-269.835 1686.28,-263.835 1692.28,-257.835 1698.28,-257.835"/>
<text text-anchor="middle" x="1718" y="-271.735" font-family="Times,serif" font-size="14.00">1:1 &#45; 0:0</text>
</g>
<!-- n18&#45;&gt;x16 -->
<g id="edge44" class="edge"><title>n18:e&#45;&gt;x16:s0:w</title>
<path fill="none" stroke="black" d="M1650,-320.835C1671.41,-320.835 1664.28,-289.389 1676.33,-279.071"/>
<polygon fill="black" stroke="black" points="1677.63,-282.328 1686,-275.835 1675.41,-275.69 1677.63,-282.328"/>
</g>
<!-- x18 -->
<g id="node45" class="node"><title>x18</title>
<path fill="none" stroke="black" d="M1698.28,-529.835C1698.28,-529.835 1737.72,-529.835 1737.72,-529.835 1743.72,-529.835 1749.72,-535.835 1749.72,-541.835 1749.72,-541.835 1749.72,-553.835 1749.72,-553.835 1749.72,-559.835 1743.72,-565.835 1737.72,-565.835 1737.72,-565.835 1698.28,-565.835 1698.28,-565.835 1692.28,-565.835 1686.28,-559.835 1686.28,-553.835 1686.28,-553.835 1686.28,-541.835 1686.28,-541.835 1686.28,-535.835 1692.28,-529.835 1698.28,-529.835"/>
<text text-anchor="middle" x="1718" y="-543.735" font-family="Times,serif" font-size="14.00">2:2 &#45; 0:0</text>
</g>
<!-- n18&#45;&gt;x18 -->
<g id="edge45" class="edge"><title>n18:e&#45;&gt;x18:s0:w</title>
<path fill="none" stroke="black" d="M1650,-320.835C1748.36,-320.835 1595.97,-531.3 1675.72,-546.92"/>
<polygon fill="black" stroke="black" points="1675.73,-550.435 1686,-547.835 1676.35,-543.463 1675.73,-550.435"/>
</g>
<!-- n19 -->
<g id="node6" class="node"><title>n19</title>
<polygon fill="none" stroke="black" points="435,-503.835 394.231,-485.835 435,-467.835 475.769,-485.835 435,-503.835"/>
<text text-anchor="middle" x="435" y="-481.635" font-family="Times,serif" font-size="14.00">state</text>
</g>
<!-- x0 -->
<g id="node8" class="node"><title>x0</title>
<path fill="none" stroke="black" d="M524.279,-494.835C524.279,-494.835 563.721,-494.835 563.721,-494.835 569.721,-494.835 575.721,-500.835 575.721,-506.835 575.721,-506.835 575.721,-518.835 575.721,-518.835 575.721,-524.835 569.721,-530.835 563.721,-530.835 563.721,-530.835 524.279,-530.835 524.279,-530.835 518.279,-530.835 512.279,-524.835 512.279,-518.835 512.279,-518.835 512.279,-506.835 512.279,-506.835 512.279,-500.835 518.279,-494.835 524.279,-494.835"/>
<text text-anchor="middle" x="544" y="-508.735" font-family="Times,serif" font-size="14.00">2:2 &#45; 0:0</text>
</g>
<!-- n19&#45;&gt;x0 -->
<g id="edge49" class="edge"><title>n19:e&#45;&gt;x0:s0:w</title>
<path fill="none" stroke="black" d="M476,-485.835C491.938,-485.835 492.635,-502.98 502.381,-509.945"/>
<polygon fill="black" stroke="black" points="501.416,-513.31 512,-512.835 503.43,-506.606 501.416,-513.31"/>
</g>
<!-- x1 -->
<g id="node10" class="node"><title>x1</title>
<path fill="none" stroke="black" d="M652.279,-691.835C652.279,-691.835 691.721,-691.835 691.721,-691.835 697.721,-691.835 703.721,-697.835 703.721,-703.835 703.721,-703.835 703.721,-715.835 703.721,-715.835 703.721,-721.835 697.721,-727.835 691.721,-727.835 691.721,-727.835 652.279,-727.835 652.279,-727.835 646.279,-727.835 640.279,-721.835 640.279,-715.835 640.279,-715.835 640.279,-703.835 640.279,-703.835 640.279,-697.835 646.279,-691.835 652.279,-691.835"/>
<text text-anchor="middle" x="672" y="-705.735" font-family="Times,serif" font-size="14.00">0:0 &#45; 0:0</text>
</g>
<!-- n19&#45;&gt;x1 -->
<g id="edge51" class="edge"><title>n19:e&#45;&gt;x1:s0:w</title>
<path fill="none" stroke="black" d="M476,-485.835C565.443,-485.835 449.457,-619.895 512,-683.835 549.849,-722.529 577.82,-711.467 628.84,-709.986"/>
<polygon fill="black" stroke="black" points="629.053,-713.483 639,-709.835 628.949,-706.484 629.053,-713.483"/>
</g>
<!-- x2 -->
<g id="node13" class="node"><title>x2</title>
<path fill="none" stroke="black" d="M524.279,-604.835C524.279,-604.835 563.721,-604.835 563.721,-604.835 569.721,-604.835 575.721,-610.835 575.721,-616.835 575.721,-616.835 575.721,-628.835 575.721,-628.835 575.721,-634.835 569.721,-640.835 563.721,-640.835 563.721,-640.835 524.279,-640.835 524.279,-640.835 518.279,-640.835 512.279,-634.835 512.279,-628.835 512.279,-628.835 512.279,-616.835 512.279,-616.835 512.279,-610.835 518.279,-604.835 524.279,-604.835"/>
<text text-anchor="middle" x="544" y="-618.735" font-family="Times,serif" font-size="14.00">2:2 &#45; 0:0</text>
</g>
<!-- n19&#45;&gt;x2 -->
<g id="edge52" class="edge"><title>n19:e&#45;&gt;x2:s0:w</title>
<path fill="none" stroke="black" d="M476,-485.835C535.021,-485.835 459.686,-606.245 501.913,-621.296"/>
<polygon fill="black" stroke="black" points="501.587,-624.787 512,-622.835 502.642,-617.867 501.587,-624.787"/>
</g>
<!-- x3 -->
<g id="node14" class="node"><title>x3</title>
<path fill="none" stroke="black" d="M524.279,-549.835C524.279,-549.835 563.721,-549.835 563.721,-549.835 569.721,-549.835 575.721,-555.835 575.721,-561.835 575.721,-561.835 575.721,-573.835 575.721,-573.835 575.721,-579.835 569.721,-585.835 563.721,-585.835 563.721,-585.835 524.279,-585.835 524.279,-585.835 518.279,-585.835 512.279,-579.835 512.279,-573.835 512.279,-573.835 512.279,-561.835 512.279,-561.835 512.279,-555.835 518.279,-549.835 524.279,-549.835"/>
<text text-anchor="middle" x="544" y="-563.735" font-family="Times,serif" font-size="14.00">1:1 &#45; 0:0</text>
</g>
<!-- n19&#45;&gt;x3 -->
<g id="edge53" class="edge"><title>n19:e&#45;&gt;x3:s0:w</title>
<path fill="none" stroke="black" d="M476,-485.835C511.76,-485.835 480.195,-552.025 502.279,-565.469"/>
<polygon fill="black" stroke="black" points="501.456,-568.871 512,-567.835 503.111,-562.07 501.456,-568.871"/>
</g>
<!-- x4 -->
<g id="node16" class="node"><title>x4</title>
<path fill="none" stroke="black" d="M652.279,-746.835C652.279,-746.835 691.721,-746.835 691.721,-746.835 697.721,-746.835 703.721,-752.835 703.721,-758.835 703.721,-758.835 703.721,-770.835 703.721,-770.835 703.721,-776.835 697.721,-782.835 691.721,-782.835 691.721,-782.835 652.279,-782.835 652.279,-782.835 646.279,-782.835 640.279,-776.835 640.279,-770.835 640.279,-770.835 640.279,-758.835 640.279,-758.835 640.279,-752.835 646.279,-746.835 652.279,-746.835"/>
<text text-anchor="middle" x="672" y="-760.735" font-family="Times,serif" font-size="14.00">0:0 &#45; 0:0</text>
</g>
<!-- n19&#45;&gt;x4 -->
<g id="edge54" class="edge"><title>n19:e&#45;&gt;x4:s0:w</title>
<path fill="none" stroke="black" d="M476,-485.835C527.075,-485.835 480.294,-672.793 512,-712.835 547.718,-757.944 574.788,-764.221 628.944,-764.788"/>
<polygon fill="black" stroke="black" points="628.984,-768.288 639,-764.835 629.017,-761.288 628.984,-768.288"/>
</g>
<!-- x5 -->
<g id="node18" class="node"><title>x5</title>
<path fill="none" stroke="black" d="M652.279,-294.835C652.279,-294.835 691.721,-294.835 691.721,-294.835 697.721,-294.835 703.721,-300.835 703.721,-306.835 703.721,-306.835 703.721,-318.835 703.721,-318.835 703.721,-324.835 697.721,-330.835 691.721,-330.835 691.721,-330.835 652.279,-330.835 652.279,-330.835 646.279,-330.835 640.279,-324.835 640.279,-318.835 640.279,-318.835 640.279,-306.835 640.279,-306.835 640.279,-300.835 646.279,-294.835 652.279,-294.835"/>
<text text-anchor="middle" x="672" y="-308.735" font-family="Times,serif" font-size="14.00">1:1 &#45; 0:0</text>
</g>
<!-- n19&#45;&gt;x5 -->
<g id="edge55" class="edge"><title>n19:e&#45;&gt;x5:s0:w</title>
<path fill="none" stroke="black" d="M476,-485.835C541.539,-485.835 465.319,-388.837 512,-342.835 550.809,-304.591 577.599,-311.727 628.789,-312.731"/>
<polygon fill="black" stroke="black" points="628.965,-316.233 639,-312.835 629.036,-309.233 628.965,-316.233"/>
</g>
<!-- x6 -->
<g id="node20" class="node"><title>x6</title>
<path fill="none" stroke="black" d="M524.279,-439.835C524.279,-439.835 563.721,-439.835 563.721,-439.835 569.721,-439.835 575.721,-445.835 575.721,-451.835 575.721,-451.835 575.721,-463.835 575.721,-463.835 575.721,-469.835 569.721,-475.835 563.721,-475.835 563.721,-475.835 524.279,-475.835 524.279,-475.835 518.279,-475.835 512.279,-469.835 512.279,-463.835 512.279,-463.835 512.279,-451.835 512.279,-451.835 512.279,-445.835 518.279,-439.835 524.279,-439.835"/>
<text text-anchor="middle" x="544" y="-453.735" font-family="Times,serif" font-size="14.00">0:0 &#45; 0:0</text>
</g>
<!-- n19&#45;&gt;x6 -->
<g id="edge56" class="edge"><title>n19:e&#45;&gt;x6:s0:w</title>
<path fill="none" stroke="black" d="M476,-485.835C492.152,-485.835 492.551,-468.055 502.303,-460.831"/>
<polygon fill="black" stroke="black" points="503.479,-464.131 512,-457.835 501.412,-457.443 503.479,-464.131"/>
</g>
<!-- x7 -->
<g id="node22" class="node"><title>x7</title>
<path fill="none" stroke="black" d="M780.279,-179.835C780.279,-179.835 819.721,-179.835 819.721,-179.835 825.721,-179.835 831.721,-185.835 831.721,-191.835 831.721,-191.835 831.721,-203.835 831.721,-203.835 831.721,-209.835 825.721,-215.835 819.721,-215.835 819.721,-215.835 780.279,-215.835 780.279,-215.835 774.279,-215.835 768.279,-209.835 768.279,-203.835 768.279,-203.835 768.279,-191.835 768.279,-191.835 768.279,-185.835 774.279,-179.835 780.279,-179.835"/>
<text text-anchor="middle" x="800" y="-193.735" font-family="Times,serif" font-size="14.00">0:0 &#45; 0:0</text>
</g>
<!-- n19&#45;&gt;x7 -->
<g id="edge57" class="edge"><title>n19:e&#45;&gt;x7:s0:w</title>
<path fill="none" stroke="black" d="M476,-485.835C531.689,-485.835 473.879,-278.43 512,-237.835 531.152,-217.44 708.389,-200.909 757.717,-198.219"/>
<polygon fill="black" stroke="black" points="758.137,-201.705 768,-197.835 757.876,-194.71 758.137,-201.705"/>
</g>
<!-- x8 -->
<g id="node24" class="node"><title>x8</title>
<path fill="none" stroke="black" d="M780.279,-573.835C780.279,-573.835 819.721,-573.835 819.721,-573.835 825.721,-573.835 831.721,-579.835 831.721,-585.835 831.721,-585.835 831.721,-597.835 831.721,-597.835 831.721,-603.835 825.721,-609.835 819.721,-609.835 819.721,-609.835 780.279,-609.835 780.279,-609.835 774.279,-609.835 768.279,-603.835 768.279,-597.835 768.279,-597.835 768.279,-585.835 768.279,-585.835 768.279,-579.835 774.279,-573.835 780.279,-573.835"/>
<text text-anchor="middle" x="800" y="-587.735" font-family="Times,serif" font-size="14.00">1:1 &#45; 0:0</text>
</g>
<!-- n19&#45;&gt;x8 -->
<g id="edge58" class="edge"><title>n19:e&#45;&gt;x8:s0:w</title>
<path fill="none" stroke="black" d="M476,-485.835C550.624,-485.835 453.85,-603.065 512,-649.835 538.194,-670.903 654.914,-686.132 732,-643.835 752.985,-632.32 743.952,-602.708 758.166,-594.171"/>
<polygon fill="black" stroke="black" points="759.08,-597.551 768,-591.835 757.462,-590.741 759.08,-597.551"/>
</g>
<!-- x9 -->
<g id="node26" class="node"><title>x9</title>
<path fill="none" stroke="black" d="M780.279,-346.835C780.279,-346.835 819.721,-346.835 819.721,-346.835 825.721,-346.835 831.721,-352.835 831.721,-358.835 831.721,-358.835 831.721,-370.835 831.721,-370.835 831.721,-376.835 825.721,-382.835 819.721,-382.835 819.721,-382.835 780.279,-382.835 780.279,-382.835 774.279,-382.835 768.279,-376.835 768.279,-370.835 768.279,-370.835 768.279,-358.835 768.279,-358.835 768.279,-352.835 774.279,-346.835 780.279,-346.835"/>
<text text-anchor="middle" x="800" y="-360.735" font-family="Times,serif" font-size="14.00">1:1 &#45; 0:0</text>
</g>
<!-- n19&#45;&gt;x9 -->
<g id="edge59" class="edge"><title>n19:e&#45;&gt;x9:s0:w</title>
<path fill="none" stroke="black" d="M476,-485.835C527.44,-485.835 471.009,-406.914 512,-375.835 600.001,-309.113 650.971,-361.451 757.826,-364.681"/>
<polygon fill="black" stroke="black" points="757.948,-368.183 768,-364.835 758.054,-361.184 757.948,-368.183"/>
</g>
<!-- x10 -->
<g id="node28" class="node"><title>x10</title>
<path fill="none" stroke="black" d="M524.279,-247.835C524.279,-247.835 563.721,-247.835 563.721,-247.835 569.721,-247.835 575.721,-253.835 575.721,-259.835 575.721,-259.835 575.721,-271.835 575.721,-271.835 575.721,-277.835 569.721,-283.835 563.721,-283.835 563.721,-283.835 524.279,-283.835 524.279,-283.835 518.279,-283.835 512.279,-277.835 512.279,-271.835 512.279,-271.835 512.279,-259.835 512.279,-259.835 512.279,-253.835 518.279,-247.835 524.279,-247.835"/>
<text text-anchor="middle" x="544" y="-261.735" font-family="Times,serif" font-size="14.00">0:0 &#45; 0:0</text>
</g>
<!-- n19&#45;&gt;x10 -->
<g id="edge50" class="edge"><title>n19:e&#45;&gt;x10:s0:w</title>
<path fill="none" stroke="black" d="M476,-485.835C571.401,-485.835 424.597,-281.86 502.022,-266.721"/>
<polygon fill="black" stroke="black" points="502.349,-270.206 512,-265.835 501.729,-263.234 502.349,-270.206"/>
</g>
<!-- c22 -->
<g id="node7" class="node"><title>c22</title>
<polygon fill="none" stroke="black" points="613.01,-524.035 613.01,-565.635 730.99,-565.635 730.99,-524.035 613.01,-524.035"/>
<text text-anchor="middle" x="626.064" y="-541.035" font-family="Times,serif" font-size="14.00">A</text>
<polyline fill="none" stroke="black" points="639.117,-524.035 639.117,-565.635 "/>
<text text-anchor="middle" x="672" y="-549.035" font-family="Times,serif" font-size="14.00">$261</text>
<text text-anchor="middle" x="672" y="-532.235" font-family="Times,serif" font-size="14.00">$_NOT_</text>
<polyline fill="none" stroke="black" points="704.883,-524.035 704.883,-565.635 "/>
<text text-anchor="middle" x="717.936" y="-541.035" font-family="Times,serif" font-size="14.00">Y</text>
</g>
<!-- n13 -->
<g id="node47" class="node"><title>n13</title>
<ellipse fill="black" stroke="black" cx="800" cy="-496.835" rx="1.8" ry="1.8"/>
</g>
<!-- c22&#45;&gt;n13 -->
<g id="edge25" class="edge"><title>c22:p21:e&#45;&gt;n13:w</title>
<path fill="none" stroke="black" d="M732,-544.835C764.124,-544.835 762.052,-506.426 786.963,-498.324"/>
<polygon fill="black" stroke="black" points="787.622,-501.765 797,-496.835 786.595,-494.841 787.622,-501.765"/>
</g>
<!-- x0&#45;&gt;c22 -->
<g id="edge1" class="edge"><title>x0:e&#45;&gt;c22:p20:w</title>
<path fill="none" stroke="black" d="M587.389,-517.557C593.145,-523.676 594.952,-534.275 600.79,-540.301"/>
<polygon fill="none" stroke="black" points="587.085,-517.431 580.011,-518.828 576,-512.835 583.074,-511.438 587.085,-517.431"/>
<polygon fill="none" stroke="black" points="600.875,-540.336 607.937,-538.877 612,-544.835 604.938,-546.294 600.875,-540.336"/>
</g>
<!-- c23 -->
<g id="node9" class="node"><title>c23</title>
<polygon fill="none" stroke="black" points="1154.01,-672.035 1154.01,-713.635 1271.99,-713.635 1271.99,-672.035 1154.01,-672.035"/>
<text text-anchor="middle" x="1167.06" y="-689.035" font-family="Times,serif" font-size="14.00">A</text>
<polyline fill="none" stroke="black" points="1180.12,-672.035 1180.12,-713.635 "/>
<text text-anchor="middle" x="1213" y="-697.035" font-family="Times,serif" font-size="14.00">$262</text>
<text text-anchor="middle" x="1213" y="-680.235" font-family="Times,serif" font-size="14.00">$_NOT_</text>
<polyline fill="none" stroke="black" points="1245.88,-672.035 1245.88,-713.635 "/>
<text text-anchor="middle" x="1258.94" y="-689.035" font-family="Times,serif" font-size="14.00">Y</text>
</g>
<!-- c42 -->
<g id="node36" class="node"><title>c42</title>
<polygon fill="none" stroke="black" points="1315.23,-550.035 1315.23,-599.635 1434.77,-599.635 1434.77,-550.035 1315.23,-550.035"/>
<text text-anchor="middle" x="1328.29" y="-583.035" font-family="Times,serif" font-size="14.00">A</text>
<polyline fill="none" stroke="black" points="1315.23,-574.835 1341.34,-574.835 "/>
<text text-anchor="middle" x="1328.29" y="-558.235" font-family="Times,serif" font-size="14.00">B</text>
<polyline fill="none" stroke="black" points="1341.34,-550.035 1341.34,-599.635 "/>
<text text-anchor="middle" x="1375" y="-579.035" font-family="Times,serif" font-size="14.00">$277</text>
<text text-anchor="middle" x="1375" y="-562.235" font-family="Times,serif" font-size="14.00">$_AND_</text>
<polyline fill="none" stroke="black" points="1408.66,-550.035 1408.66,-599.635 "/>
<text text-anchor="middle" x="1421.71" y="-571.035" font-family="Times,serif" font-size="14.00">Y</text>
</g>
<!-- c23&#45;&gt;c42 -->
<g id="edge21" class="edge"><title>c23:p21:e&#45;&gt;c42:p20:w</title>
<path fill="none" stroke="black" d="M1273,-692.835C1319.57,-692.835 1272.19,-602.75 1304.08,-588.675"/>
<polygon fill="black" stroke="black" points="1304.81,-592.1 1314,-586.835 1303.53,-585.217 1304.81,-592.1"/>
</g>
<!-- x1&#45;&gt;c23 -->
<g id="edge2" class="edge"><title>x1:e&#45;&gt;c23:p20:w</title>
<path fill="none" stroke="black" d="M717.072,-709.814C902.373,-709.159 955.609,-693.513 1140.89,-692.856"/>
<polygon fill="none" stroke="black" points="717,-709.814 711.007,-713.824 705,-709.835 710.993,-705.824 717,-709.814"/>
<polygon fill="none" stroke="black" points="1141,-692.856 1146.99,-688.846 1153,-692.835 1147.01,-696.846 1141,-692.856"/>
</g>
<!-- n2 -->
<g id="node48" class="node"><title>n2</title>
<ellipse fill="black" stroke="black" cx="800" cy="-408.835" rx="1.8" ry="1.8"/>
</g>
<!-- c24&#45;&gt;n2 -->
<g id="edge60" class="edge"><title>c24:p21:e&#45;&gt;n2:w</title>
<path fill="none" stroke="black" d="M732,-408.835C757.165,-408.835 765.889,-408.835 786.815,-408.835"/>
<polygon fill="black" stroke="black" points="787,-412.335 797,-408.835 787,-405.335 787,-412.335"/>
</g>
<!-- c26 -->
<g id="node12" class="node"><title>c26</title>
<polygon fill="none" stroke="black" points="617.672,-585.035 617.672,-634.635 726.328,-634.635 726.328,-585.035 617.672,-585.035"/>
<text text-anchor="middle" x="630.725" y="-618.035" font-family="Times,serif" font-size="14.00">A</text>
<polyline fill="none" stroke="black" points="617.672,-609.835 643.778,-609.835 "/>
<text text-anchor="middle" x="630.725" y="-593.235" font-family="Times,serif" font-size="14.00">B</text>
<polyline fill="none" stroke="black" points="643.778,-585.035 643.778,-634.635 "/>
<text text-anchor="middle" x="672" y="-614.035" font-family="Times,serif" font-size="14.00">$264</text>
<text text-anchor="middle" x="672" y="-597.235" font-family="Times,serif" font-size="14.00">$_OR_</text>
<polyline fill="none" stroke="black" points="700.222,-585.035 700.222,-634.635 "/>
<text text-anchor="middle" x="713.275" y="-606.035" font-family="Times,serif" font-size="14.00">Y</text>
</g>
<!-- n3 -->
<g id="node49" class="node"><title>n3</title>
<ellipse fill="black" stroke="black" cx="800" cy="-643.835" rx="1.8" ry="1.8"/>
</g>
<!-- c26&#45;&gt;n3 -->
<g id="edge63" class="edge"><title>c26:p21:e&#45;&gt;n3:w</title>
<path fill="none" stroke="black" d="M727,-609.835C757.804,-609.835 761.829,-636.804 786.774,-642.704"/>
<polygon fill="black" stroke="black" points="786.676,-646.214 797,-643.835 787.446,-639.257 786.676,-646.214"/>
</g>
<!-- x2&#45;&gt;c26 -->
<g id="edge3" class="edge"><title>x2:e&#45;&gt;c26:p20:w</title>
<path fill="none" stroke="black" d="M588.142,-622.661C594.206,-622.477 598.85,-622.19 604.924,-622.007"/>
<polygon fill="none" stroke="black" points="587.999,-622.663 582.057,-626.748 576,-622.835 581.942,-618.749 587.999,-622.663"/>
<polygon fill="none" stroke="black" points="605.001,-622.006 610.944,-617.921 617,-621.835 611.058,-625.92 605.001,-622.006"/>
</g>
<!-- x3&#45;&gt;c26 -->
<g id="edge4" class="edge"><title>x3:e&#45;&gt;c26:p25:w</title>
<path fill="none" stroke="black" d="M587.539,-571.514C595.086,-577.271 597.891,-588.35 605.422,-594.126"/>
<polygon fill="none" stroke="black" points="587.433,-571.48 580.502,-573.468 576,-567.835 582.932,-565.846 587.433,-571.48"/>
<polygon fill="none" stroke="black" points="605.572,-594.174 612.506,-592.195 617,-597.835 610.066,-599.814 605.572,-594.174"/>
</g>
<!-- c27 -->
<g id="node15" class="node"><title>c27</title>
<polygon fill="none" stroke="black" points="873.619,-725.035 873.619,-774.635 992.381,-774.635 992.381,-725.035 873.619,-725.035"/>
<text text-anchor="middle" x="886.672" y="-758.035" font-family="Times,serif" font-size="14.00">A</text>
<polyline fill="none" stroke="black" points="873.619,-749.835 899.725,-749.835 "/>
<text text-anchor="middle" x="886.672" y="-733.235" font-family="Times,serif" font-size="14.00">B</text>
<polyline fill="none" stroke="black" points="899.725,-725.035 899.725,-774.635 "/>
<text text-anchor="middle" x="933" y="-754.035" font-family="Times,serif" font-size="14.00">$265</text>
<text text-anchor="middle" x="933" y="-737.235" font-family="Times,serif" font-size="14.00">$_NOR_</text>
<polyline fill="none" stroke="black" points="966.275,-725.035 966.275,-774.635 "/>
<text text-anchor="middle" x="979.328" y="-746.035" font-family="Times,serif" font-size="14.00">Y</text>
</g>
<!-- c27&#45;&gt;n15 -->
<g id="edge33" class="edge"><title>c27:p21:e&#45;&gt;n15:w</title>
<path fill="none" stroke="black" d="M993,-749.835C1007.24,-749.835 1013.13,-749.835 1023.72,-749.835"/>
<polygon fill="black" stroke="black" points="1024,-753.335 1034,-749.835 1024,-746.335 1024,-753.335"/>
</g>
<!-- x4&#45;&gt;c27 -->
<g id="edge5" class="edge"><title>x4:e&#45;&gt;c27:p20:w</title>
<path fill="none" stroke="black" d="M717.171,-764.807C778.047,-764.523 799.897,-762.15 860.731,-761.863"/>
<polygon fill="none" stroke="black" points="717,-764.807 711.009,-768.821 705,-764.835 710.991,-760.821 717,-764.807"/>
<polygon fill="none" stroke="black" points="861,-761.863 866.991,-757.849 873,-761.835 867.009,-765.849 861,-761.863"/>
</g>
<!-- c28 -->
<g id="node17" class="node"><title>c28</title>
<polygon fill="none" stroke="black" points="873.234,-285.035 873.234,-334.635 992.766,-334.635 992.766,-285.035 873.234,-285.035"/>
<text text-anchor="middle" x="886.287" y="-318.035" font-family="Times,serif" font-size="14.00">A</text>
<polyline fill="none" stroke="black" points="873.234,-309.835 899.34,-309.835 "/>
<text text-anchor="middle" x="886.287" y="-293.235" font-family="Times,serif" font-size="14.00">B</text>
<polyline fill="none" stroke="black" points="899.34,-285.035 899.34,-334.635 "/>
<text text-anchor="middle" x="933" y="-314.035" font-family="Times,serif" font-size="14.00">$266</text>
<text text-anchor="middle" x="933" y="-297.235" font-family="Times,serif" font-size="14.00">$_AND_</text>
<polyline fill="none" stroke="black" points="966.66,-285.035 966.66,-334.635 "/>
<text text-anchor="middle" x="979.713" y="-306.035" font-family="Times,serif" font-size="14.00">Y</text>
</g>
<!-- n4 -->
<g id="node50" class="node"><title>n4</title>
<ellipse fill="black" stroke="black" cx="1073" cy="-309.835" rx="1.8" ry="1.8"/>
</g>
<!-- c28&#45;&gt;n4 -->
<g id="edge66" class="edge"><title>c28:p21:e&#45;&gt;n4:w</title>
<path fill="none" stroke="black" d="M994,-309.835C1024.08,-309.835 1034.07,-309.835 1059.76,-309.835"/>
<polygon fill="black" stroke="black" points="1060,-313.335 1070,-309.835 1060,-306.335 1060,-313.335"/>
</g>
<!-- x5&#45;&gt;c28 -->
<g id="edge6" class="edge"><title>x5:e&#45;&gt;c28:p20:w</title>
<path fill="none" stroke="black" d="M717.112,-312.918C777.683,-313.771 799.261,-320.891 859.791,-321.75"/>
<polygon fill="none" stroke="black" points="717,-312.918 710.972,-316.876 705,-312.835 711.027,-308.876 717,-312.918"/>
<polygon fill="none" stroke="black" points="860,-321.752 866.028,-317.793 872,-321.835 865.972,-325.793 860,-321.752"/>
</g>
<!-- c29 -->
<g id="node19" class="node"><title>c29</title>
<polygon fill="none" stroke="black" points="873.234,-460.035 873.234,-509.635 992.766,-509.635 992.766,-460.035 873.234,-460.035"/>
<text text-anchor="middle" x="886.287" y="-493.035" font-family="Times,serif" font-size="14.00">A</text>
<polyline fill="none" stroke="black" points="873.234,-484.835 899.34,-484.835 "/>
<text text-anchor="middle" x="886.287" y="-468.235" font-family="Times,serif" font-size="14.00">B</text>
<polyline fill="none" stroke="black" points="899.34,-460.035 899.34,-509.635 "/>
<text text-anchor="middle" x="933" y="-489.035" font-family="Times,serif" font-size="14.00">$267</text>
<text text-anchor="middle" x="933" y="-472.235" font-family="Times,serif" font-size="14.00">$_AND_</text>
<polyline fill="none" stroke="black" points="966.66,-460.035 966.66,-509.635 "/>
<text text-anchor="middle" x="979.713" y="-481.035" font-family="Times,serif" font-size="14.00">Y</text>
</g>
<!-- c37 -->
<g id="node30" class="node"><title>c37</title>
<polygon fill="none" stroke="black" points="1152.46,-338.235 1152.46,-437.435 1273.54,-437.435 1273.54,-338.235 1152.46,-338.235"/>
<text text-anchor="middle" x="1165.51" y="-420.835" font-family="Times,serif" font-size="14.00">A</text>
<polyline fill="none" stroke="black" points="1152.46,-412.635 1178.56,-412.635 "/>
<text text-anchor="middle" x="1165.51" y="-396.035" font-family="Times,serif" font-size="14.00">B</text>
<polyline fill="none" stroke="black" points="1152.46,-387.835 1178.56,-387.835 "/>
<text text-anchor="middle" x="1165.51" y="-371.235" font-family="Times,serif" font-size="14.00">C</text>
<polyline fill="none" stroke="black" points="1152.46,-363.035 1178.56,-363.035 "/>
<text text-anchor="middle" x="1165.51" y="-346.435" font-family="Times,serif" font-size="14.00">D</text>
<polyline fill="none" stroke="black" points="1178.56,-338.235 1178.56,-437.435 "/>
<text text-anchor="middle" x="1213" y="-392.035" font-family="Times,serif" font-size="14.00">$273</text>
<text text-anchor="middle" x="1213" y="-375.235" font-family="Times,serif" font-size="14.00">$_AOI4_</text>
<polyline fill="none" stroke="black" points="1247.44,-338.235 1247.44,-437.435 "/>
<text text-anchor="middle" x="1260.49" y="-383.835" font-family="Times,serif" font-size="14.00">Y</text>
</g>
<!-- c29&#45;&gt;c37 -->
<g id="edge69" class="edge"><title>c29:p21:e&#45;&gt;c37:p25:w</title>
<path fill="none" stroke="black" d="M994,-484.835C1069.78,-484.835 1071.64,-407.3 1140.78,-400.334"/>
<polygon fill="black" stroke="black" points="1141.18,-403.819 1151,-399.835 1140.84,-396.827 1141.18,-403.819"/>
</g>
<!-- x6&#45;&gt;c29 -->
<g id="edge7" class="edge"><title>x6:e&#45;&gt;c29:p25:w</title>
<path fill="none" stroke="black" d="M588.065,-457.878C705.931,-458.729 742.075,-471.941 859.947,-472.792"/>
<polygon fill="none" stroke="black" points="588,-457.878 581.986,-461.856 576,-457.835 582.014,-453.856 588,-457.878"/>
<polygon fill="none" stroke="black" points="860,-472.792 866.014,-468.814 872,-472.835 865.986,-476.814 860,-472.792"/>
</g>
<!-- c30 -->
<g id="node21" class="node"><title>c30</title>
<polygon fill="none" stroke="black" points="868.18,-179.035 868.18,-228.635 997.82,-228.635 997.82,-179.035 868.18,-179.035"/>
<text text-anchor="middle" x="881.234" y="-212.035" font-family="Times,serif" font-size="14.00">A</text>
<polyline fill="none" stroke="black" points="868.18,-203.835 894.287,-203.835 "/>
<text text-anchor="middle" x="881.234" y="-187.235" font-family="Times,serif" font-size="14.00">B</text>
<polyline fill="none" stroke="black" points="894.287,-179.035 894.287,-228.635 "/>
<text text-anchor="middle" x="933" y="-208.035" font-family="Times,serif" font-size="14.00">$268</text>
<text text-anchor="middle" x="933" y="-191.235" font-family="Times,serif" font-size="14.00">$_NAND_</text>
<polyline fill="none" stroke="black" points="971.713,-179.035 971.713,-228.635 "/>
<text text-anchor="middle" x="984.766" y="-200.035" font-family="Times,serif" font-size="14.00">Y</text>
</g>
<!-- c39 -->
<g id="node33" class="node"><title>c39</title>
<polygon fill="none" stroke="black" points="1314.46,-246.635 1314.46,-321.035 1435.54,-321.035 1435.54,-246.635 1314.46,-246.635"/>
<text text-anchor="middle" x="1327.51" y="-304.435" font-family="Times,serif" font-size="14.00">A</text>
<polyline fill="none" stroke="black" points="1314.46,-296.235 1340.56,-296.235 "/>
<text text-anchor="middle" x="1327.51" y="-279.635" font-family="Times,serif" font-size="14.00">B</text>
<polyline fill="none" stroke="black" points="1314.46,-271.435 1340.56,-271.435 "/>
<text text-anchor="middle" x="1327.51" y="-254.835" font-family="Times,serif" font-size="14.00">C</text>
<polyline fill="none" stroke="black" points="1340.56,-246.635 1340.56,-321.035 "/>
<text text-anchor="middle" x="1375" y="-288.035" font-family="Times,serif" font-size="14.00">$275</text>
<text text-anchor="middle" x="1375" y="-271.235" font-family="Times,serif" font-size="14.00">$_OAI3_</text>
<polyline fill="none" stroke="black" points="1409.44,-246.635 1409.44,-321.035 "/>
<text text-anchor="middle" x="1422.49" y="-279.935" font-family="Times,serif" font-size="14.00">Y</text>
</g>
<!-- c30&#45;&gt;c39 -->
<g id="edge70" class="edge"><title>c30:p21:e&#45;&gt;c39:p25:w</title>
<path fill="none" stroke="black" d="M998,-203.835C1122.73,-203.835 1171.84,-157.353 1278,-222.835 1301.23,-237.167 1287.57,-272.515 1304.06,-281.651"/>
<polygon fill="black" stroke="black" points="1303.48,-285.107 1314,-283.835 1304.98,-278.271 1303.48,-285.107"/>
</g>
<!-- x7&#45;&gt;c30 -->
<g id="edge8" class="edge"><title>x7:e&#45;&gt;c30:p25:w</title>
<path fill="none" stroke="black" d="M844.017,-196.503C848.262,-195.509 851.752,-194.156 855.999,-193.163"/>
<polygon fill="none" stroke="black" points="843.927,-196.513 838.404,-201.15 832,-197.835 837.523,-193.198 843.927,-196.513"/>
<polygon fill="none" stroke="black" points="856.073,-193.155 861.596,-188.519 868,-191.835 862.476,-196.471 856.073,-193.155"/>
</g>
<!-- c31 -->
<g id="node23" class="node"><title>c31</title>
<polygon fill="none" stroke="black" points="873.234,-566.035 873.234,-615.635 992.766,-615.635 992.766,-566.035 873.234,-566.035"/>
<text text-anchor="middle" x="886.287" y="-599.035" font-family="Times,serif" font-size="14.00">A</text>
<polyline fill="none" stroke="black" points="873.234,-590.835 899.34,-590.835 "/>
<text text-anchor="middle" x="886.287" y="-574.235" font-family="Times,serif" font-size="14.00">B</text>
<polyline fill="none" stroke="black" points="899.34,-566.035 899.34,-615.635 "/>
<text text-anchor="middle" x="933" y="-595.035" font-family="Times,serif" font-size="14.00">$269</text>
<text text-anchor="middle" x="933" y="-578.235" font-family="Times,serif" font-size="14.00">$_AND_</text>
<polyline fill="none" stroke="black" points="966.66,-566.035 966.66,-615.635 "/>
<text text-anchor="middle" x="979.713" y="-587.035" font-family="Times,serif" font-size="14.00">Y</text>
</g>
<!-- c31&#45;&gt;c41 -->
<g id="edge71" class="edge"><title>c31:p21:e&#45;&gt;c41:p20:w</title>
<path fill="none" stroke="black" d="M994,-590.835C1060.25,-590.835 1079.31,-588.132 1140.76,-587.857"/>
<polygon fill="black" stroke="black" points="1141.01,-591.357 1151,-587.835 1140.99,-584.357 1141.01,-591.357"/>
</g>
<!-- x8&#45;&gt;c31 -->
<g id="edge9" class="edge"><title>x8:e&#45;&gt;c31:p25:w</title>
<path fill="none" stroke="black" d="M844.095,-589.571C849.938,-587.184 854.113,-583.45 859.968,-581.073"/>
<polygon fill="none" stroke="black" points="843.795,-589.627 838.634,-594.662 832,-591.835 837.161,-586.799 843.795,-589.627"/>
<polygon fill="none" stroke="black" points="860.202,-581.03 865.37,-576 872,-578.835 866.833,-583.865 860.202,-581.03"/>
</g>
<!-- c32 -->
<g id="node25" class="node"><title>c32</title>
<polygon fill="none" stroke="black" points="873.619,-354.035 873.619,-403.635 992.381,-403.635 992.381,-354.035 873.619,-354.035"/>
<text text-anchor="middle" x="886.672" y="-387.035" font-family="Times,serif" font-size="14.00">A</text>
<polyline fill="none" stroke="black" points="873.619,-378.835 899.725,-378.835 "/>
<text text-anchor="middle" x="886.672" y="-362.235" font-family="Times,serif" font-size="14.00">B</text>
<polyline fill="none" stroke="black" points="899.725,-354.035 899.725,-403.635 "/>
<text text-anchor="middle" x="933" y="-383.035" font-family="Times,serif" font-size="14.00">$270</text>
<text text-anchor="middle" x="933" y="-366.235" font-family="Times,serif" font-size="14.00">$_NOR_</text>
<polyline fill="none" stroke="black" points="966.275,-354.035 966.275,-403.635 "/>
<text text-anchor="middle" x="979.328" y="-375.035" font-family="Times,serif" font-size="14.00">Y</text>
</g>
<!-- n8 -->
<g id="node51" class="node"><title>n8</title>
<ellipse fill="black" stroke="black" cx="1073" cy="-377.835" rx="1.8" ry="1.8"/>
</g>
<!-- c32&#45;&gt;n8 -->
<g id="edge72" class="edge"><title>c32:p21:e&#45;&gt;n8:w</title>
<path fill="none" stroke="black" d="M993,-378.835C1023.62,-378.835 1033.69,-378.035 1059.97,-377.866"/>
<polygon fill="black" stroke="black" points="1060.01,-381.366 1070,-377.835 1059.99,-374.366 1060.01,-381.366"/>
</g>
<!-- x9&#45;&gt;c32 -->
<g id="edge10" class="edge"><title>x9:e&#45;&gt;c32:p25:w</title>
<path fill="none" stroke="black" d="M844.146,-365.183C850.209,-365.55 854.847,-366.125 860.92,-366.491"/>
<polygon fill="none" stroke="black" points="843.995,-365.179 837.883,-369.005 832,-364.835 838.112,-361.009 843.995,-365.179"/>
<polygon fill="none" stroke="black" points="861.005,-366.493 867.116,-362.666 873,-366.835 866.888,-370.662 861.005,-366.493"/>
</g>
<!-- n9 -->
<g id="node52" class="node"><title>n9</title>
<ellipse fill="black" stroke="black" cx="1073" cy="-256.835" rx="1.8" ry="1.8"/>
</g>
<!-- c33&#45;&gt;n9 -->
<g id="edge76" class="edge"><title>c33:p21:e&#45;&gt;n9:w</title>
<path fill="none" stroke="black" d="M732,-250.835C878.725,-250.835 917.934,-256.557 1059.62,-256.825"/>
<polygon fill="black" stroke="black" points="1060,-260.325 1070,-256.835 1060,-253.325 1060,-260.325"/>
</g>
<!-- x10&#45;&gt;c33 -->
<g id="edge11" class="edge"><title>x10:e&#45;&gt;c33:p20:w</title>
<path fill="none" stroke="black" d="M588.23,-265.139C592.301,-264.655 595.727,-264.011 599.802,-263.527"/>
<polygon fill="none" stroke="black" points="587.981,-265.153 582.218,-269.488 576,-265.835 581.763,-261.501 587.981,-265.153"/>
<polygon fill="none" stroke="black" points="600.019,-263.515 605.783,-259.181 612,-262.835 606.236,-267.168 600.019,-263.515"/>
</g>
<!-- c34 -->
<g id="node29" class="node"><title>c34</title>
<polygon fill="none" stroke="black" points="1148.18,-232.035 1148.18,-281.635 1277.82,-281.635 1277.82,-232.035 1148.18,-232.035"/>
<text text-anchor="middle" x="1161.23" y="-265.035" font-family="Times,serif" font-size="14.00">A</text>
<polyline fill="none" stroke="black" points="1148.18,-256.835 1174.29,-256.835 "/>
<text text-anchor="middle" x="1161.23" y="-240.235" font-family="Times,serif" font-size="14.00">B</text>
<polyline fill="none" stroke="black" points="1174.29,-232.035 1174.29,-281.635 "/>
<text text-anchor="middle" x="1213" y="-261.035" font-family="Times,serif" font-size="14.00">$272</text>
<text text-anchor="middle" x="1213" y="-244.235" font-family="Times,serif" font-size="14.00">$_NAND_</text>
<polyline fill="none" stroke="black" points="1251.71,-232.035 1251.71,-281.635 "/>
<text text-anchor="middle" x="1264.77" y="-253.035" font-family="Times,serif" font-size="14.00">Y</text>
</g>
<!-- c34&#45;&gt;c39 -->
<g id="edge22" class="edge"><title>c34:p21:e&#45;&gt;c39:p35:w</title>
<path fill="none" stroke="black" d="M1278,-256.835C1290.02,-256.835 1295.25,-257.96 1303.87,-258.522"/>
<polygon fill="black" stroke="black" points="1303.9,-262.025 1314,-258.835 1304.11,-255.028 1303.9,-262.025"/>
</g>
<!-- c38 -->
<g id="node31" class="node"><title>c38</title>
<polygon fill="none" stroke="black" points="1314.46,-389.635 1314.46,-464.035 1435.54,-464.035 1435.54,-389.635 1314.46,-389.635"/>
<text text-anchor="middle" x="1327.51" y="-447.435" font-family="Times,serif" font-size="14.00">A</text>
<polyline fill="none" stroke="black" points="1314.46,-439.235 1340.56,-439.235 "/>
<text text-anchor="middle" x="1327.51" y="-422.635" font-family="Times,serif" font-size="14.00">B</text>
<polyline fill="none" stroke="black" points="1314.46,-414.435 1340.56,-414.435 "/>
<text text-anchor="middle" x="1327.51" y="-397.835" font-family="Times,serif" font-size="14.00">C</text>
<polyline fill="none" stroke="black" points="1340.56,-389.635 1340.56,-464.035 "/>
<text text-anchor="middle" x="1375" y="-431.035" font-family="Times,serif" font-size="14.00">$274</text>
<text text-anchor="middle" x="1375" y="-414.235" font-family="Times,serif" font-size="14.00">$_OAI3_</text>
<polyline fill="none" stroke="black" points="1409.44,-389.635 1409.44,-464.035 "/>
<text text-anchor="middle" x="1422.49" y="-422.935" font-family="Times,serif" font-size="14.00">Y</text>
</g>
<!-- c37&#45;&gt;c38 -->
<g id="edge23" class="edge"><title>c37:p21:e&#45;&gt;c38:p35:w</title>
<path fill="none" stroke="black" d="M1275,-387.835C1289.39,-387.835 1293.86,-396.38 1303.91,-400.118"/>
<polygon fill="black" stroke="black" points="1303.55,-403.609 1314,-401.835 1304.73,-396.708 1303.55,-403.609"/>
</g>
<!-- x11 -->
<g id="node32" class="node"><title>x11</title>
<path fill="none" stroke="black" d="M1484.28,-373.835C1484.28,-373.835 1523.72,-373.835 1523.72,-373.835 1529.72,-373.835 1535.72,-379.835 1535.72,-385.835 1535.72,-385.835 1535.72,-397.835 1535.72,-397.835 1535.72,-403.835 1529.72,-409.835 1523.72,-409.835 1523.72,-409.835 1484.28,-409.835 1484.28,-409.835 1478.28,-409.835 1472.28,-403.835 1472.28,-397.835 1472.28,-397.835 1472.28,-385.835 1472.28,-385.835 1472.28,-379.835 1478.28,-373.835 1484.28,-373.835"/>
<text text-anchor="middle" x="1504" y="-387.735" font-family="Times,serif" font-size="14.00">0:0 &#45; 0:0</text>
</g>
<!-- c38&#45;&gt;x11 -->
<g id="edge12" class="edge"><title>c38:p21:e&#45;&gt;x11:w</title>
<path fill="none" stroke="black" d="M1447.12,-422.259C1453.36,-415.589 1454.59,-403.257 1460.77,-396.523"/>
<polygon fill="none" stroke="black" points="1447.1,-422.269 1443.07,-428.251 1436,-426.835 1440.03,-420.853 1447.1,-422.269"/>
<polygon fill="none" stroke="black" points="1460.93,-396.46 1464.92,-390.456 1472,-391.835 1468,-397.838 1460.93,-396.46"/>
</g>
<!-- x11&#45;&gt;n18 -->
<g id="edge40" class="edge"><title>x11:s0:e&#45;&gt;n18:w</title>
<path fill="none" stroke="black" d="M1536,-391.835C1567.23,-391.835 1543.8,-336.501 1562.23,-323.532"/>
<polygon fill="black" stroke="black" points="1563.29,-326.868 1572,-320.835 1561.43,-320.121 1563.29,-326.868"/>
</g>
<!-- x12 -->
<g id="node34" class="node"><title>x12</title>
<path fill="none" stroke="black" d="M1484.28,-283.835C1484.28,-283.835 1523.72,-283.835 1523.72,-283.835 1529.72,-283.835 1535.72,-289.835 1535.72,-295.835 1535.72,-295.835 1535.72,-307.835 1535.72,-307.835 1535.72,-313.835 1529.72,-319.835 1523.72,-319.835 1523.72,-319.835 1484.28,-319.835 1484.28,-319.835 1478.28,-319.835 1472.28,-313.835 1472.28,-307.835 1472.28,-307.835 1472.28,-295.835 1472.28,-295.835 1472.28,-289.835 1478.28,-283.835 1484.28,-283.835"/>
<text text-anchor="middle" x="1504" y="-297.735" font-family="Times,serif" font-size="14.00">0:0 &#45; 1:1</text>
</g>
<!-- c39&#45;&gt;x12 -->
<g id="edge13" class="edge"><title>c39:p21:e&#45;&gt;x12:w</title>
<path fill="none" stroke="black" d="M1447.69,-287.306C1452.39,-290.493 1455.62,-295.191 1460.33,-298.375"/>
<polygon fill="none" stroke="black" points="1447.5,-287.251 1440.61,-289.377 1436,-283.835 1442.89,-281.708 1447.5,-287.251"/>
<polygon fill="none" stroke="black" points="1460.49,-298.424 1467.38,-296.295 1472,-301.835 1465.11,-303.965 1460.49,-298.424"/>
</g>
<!-- x12&#45;&gt;n18 -->
<g id="edge41" class="edge"><title>x12:s0:e&#45;&gt;n18:w</title>
<path fill="none" stroke="black" d="M1536,-301.835C1549.99,-301.835 1553.05,-313.201 1562.09,-318.351"/>
<polygon fill="black" stroke="black" points="1561.45,-321.798 1572,-320.835 1563.15,-315.008 1561.45,-321.798"/>
</g>
<!-- c41&#45;&gt;c42 -->
<g id="edge24" class="edge"><title>c41:p21:e&#45;&gt;c42:p25:w</title>
<path fill="none" stroke="black" d="M1275,-562.835C1288.41,-562.835 1294.04,-562.835 1303.92,-562.835"/>
<polygon fill="black" stroke="black" points="1304,-566.335 1314,-562.835 1304,-559.335 1304,-566.335"/>
</g>
<!-- x13 -->
<g id="node37" class="node"><title>x13</title>
<path fill="none" stroke="black" d="M1484.28,-492.835C1484.28,-492.835 1523.72,-492.835 1523.72,-492.835 1529.72,-492.835 1535.72,-498.835 1535.72,-504.835 1535.72,-504.835 1535.72,-516.835 1535.72,-516.835 1535.72,-522.835 1529.72,-528.835 1523.72,-528.835 1523.72,-528.835 1484.28,-528.835 1484.28,-528.835 1478.28,-528.835 1472.28,-522.835 1472.28,-516.835 1472.28,-516.835 1472.28,-504.835 1472.28,-504.835 1472.28,-498.835 1478.28,-492.835 1484.28,-492.835"/>
<text text-anchor="middle" x="1504" y="-506.735" font-family="Times,serif" font-size="14.00">0:0 &#45; 2:2</text>
</g>
<!-- c42&#45;&gt;x13 -->
<g id="edge14" class="edge"><title>c42:p21:e&#45;&gt;x13:w</title>
<path fill="none" stroke="black" d="M1447.61,-570.232C1458.24,-558.309 1449.69,-526.55 1460.74,-515.059"/>
<polygon fill="none" stroke="black" points="1447.16,-570.413 1443.05,-576.342 1436,-574.835 1440.1,-568.905 1447.16,-570.413"/>
<polygon fill="none" stroke="black" points="1460.76,-515.05 1464.98,-509.197 1472,-510.835 1467.79,-516.688 1460.76,-515.05"/>
</g>
<!-- x13&#45;&gt;n18 -->
<g id="edge42" class="edge"><title>x13:s0:e&#45;&gt;n18:w</title>
<path fill="none" stroke="black" d="M1536,-510.835C1618.09,-510.835 1497.81,-337.522 1561.72,-321.951"/>
<polygon fill="black" stroke="black" points="1562.44,-325.394 1572,-320.835 1561.68,-318.435 1562.44,-325.394"/>
</g>
<!-- x15 -->
<g id="node40" class="node"><title>x15</title>
<path fill="none" stroke="black" d="M306.279,-291.835C306.279,-291.835 345.721,-291.835 345.721,-291.835 351.721,-291.835 357.721,-297.835 357.721,-303.835 357.721,-303.835 357.721,-315.835 357.721,-315.835 357.721,-321.835 351.721,-327.835 345.721,-327.835 345.721,-327.835 306.279,-327.835 306.279,-327.835 300.279,-327.835 294.279,-321.835 294.279,-315.835 294.279,-315.835 294.279,-303.835 294.279,-303.835 294.279,-297.835 300.279,-291.835 306.279,-291.835"/>
<text text-anchor="middle" x="326" y="-305.735" font-family="Times,serif" font-size="14.00">0:0 &#45; 0:0</text>
</g>
<!-- c45&#45;&gt;x15 -->
<g id="edge16" class="edge"><title>c45:p44:e&#45;&gt;x15:w</title>
<path fill="none" stroke="black" d="M269.643,-228.487C286.169,-242.469 265.768,-292.497 282.486,-306.291"/>
<polygon fill="none" stroke="black" points="269.45,-228.427 262.528,-230.447 258,-224.835 264.922,-222.814 269.45,-228.427"/>
<polygon fill="none" stroke="black" points="282.531,-306.305 289.442,-304.247 294,-309.835 287.089,-311.893 282.531,-306.305"/>
</g>
<!-- x14&#45;&gt;c45 -->
<g id="edge15" class="edge"><title>x14:e&#45;&gt;c45:p36:w</title>
<path fill="none" stroke="black" d="M1754.26,-209.593C1753.22,-211.95 1751.73,-214.2 1750,-215.835 1729.34,-235.382 1714.19,-219.657 1686,-215.835 1603.3,-204.622 1588.46,-165.835 1505,-165.835 1374,-165.835 1374,-165.835 1374,-165.835 1177.03,-165.835 1130.97,-112.835 934,-112.835 434,-112.835 434,-112.835 434,-112.835 331.51,-112.835 354.232,-226.571 258,-261.835 196.656,-284.315 157.818,-307.404 111,-261.835 103.172,-254.215 98.0452,-240.399 100.301,-231.977"/>
<polygon fill="none" stroke="black" points="1754.21,-209.398 1748.75,-204.686 1751,-197.835 1756.46,-202.546 1754.21,-209.398"/>
<polygon fill="none" stroke="black" points="100.337,-231.95 102.797,-225.172 110,-224.835 107.54,-231.614 100.337,-231.95"/>
</g>
<!-- x15&#45;&gt;n19 -->
<g id="edge46" class="edge"><title>x15:s0:e&#45;&gt;n19:w</title>
<path fill="none" stroke="black" d="M358,-309.835C433.943,-309.835 325.751,-469.067 383.713,-484.617"/>
<polygon fill="black" stroke="black" points="383.658,-488.135 394,-485.835 384.481,-481.183 383.658,-488.135"/>
</g>
<!-- x17 -->
<g id="node43" class="node"><title>x17</title>
<path fill="none" stroke="black" d="M1982.28,-76.835C1982.28,-76.835 2021.72,-76.835 2021.72,-76.835 2027.72,-76.835 2033.72,-82.835 2033.72,-88.835 2033.72,-88.835 2033.72,-100.835 2033.72,-100.835 2033.72,-106.835 2027.72,-112.835 2021.72,-112.835 2021.72,-112.835 1982.28,-112.835 1982.28,-112.835 1976.28,-112.835 1970.28,-106.835 1970.28,-100.835 1970.28,-100.835 1970.28,-88.835 1970.28,-88.835 1970.28,-82.835 1976.28,-76.835 1982.28,-76.835"/>
<text text-anchor="middle" x="2002" y="-90.735" font-family="Times,serif" font-size="14.00">0:0 &#45; 1:1</text>
</g>
<!-- c46&#45;&gt;x17 -->
<g id="edge18" class="edge"><title>c46:p44:e&#45;&gt;x17:w</title>
<path fill="none" stroke="black" d="M1945.21,-66.4235C1951.14,-72.6574 1952.78,-83.7485 1958.62,-90.0717"/>
<polygon fill="none" stroke="black" points="1945.11,-66.3798 1938.04,-67.8094 1934,-61.835 1941.07,-60.4053 1945.11,-66.3798"/>
<polygon fill="none" stroke="black" points="1958.93,-90.2005 1966.01,-88.8281 1970,-94.835 1962.92,-96.2074 1958.93,-90.2005"/>
</g>
<!-- x16&#45;&gt;c46 -->
<g id="edge17" class="edge"><title>x16:e&#45;&gt;c46:p36:w</title>
<path fill="none" stroke="black" d="M1761.95,-274.468C1828.72,-257.168 1707.57,-81.1252 1773.72,-63.2904"/>
<polygon fill="none" stroke="black" points="1761.92,-274.471 1756.42,-279.127 1750,-275.835 1755.51,-271.179 1761.92,-274.471"/>
<polygon fill="none" stroke="black" points="1774.08,-63.2473 1779.57,-58.5689 1786,-61.835 1780.51,-66.5133 1774.08,-63.2473"/>
</g>
<!-- x17&#45;&gt;n19 -->
<g id="edge47" class="edge"><title>x17:s0:e&#45;&gt;n19:w</title>
<path fill="none" stroke="black" d="M2035,-94.835C2043.01,-94.835 2039.69,-107.192 2034,-112.835 1934.5,-211.549 1859.16,-127.835 1719,-127.835 1374,-127.835 1374,-127.835 1374,-127.835 1178.18,-127.835 1129.82,-150.835 934,-150.835 671,-150.835 671,-150.835 671,-150.835 594.656,-150.835 558.417,-155.223 512,-215.835 433.57,-318.25 572.706,-418.465 476,-503.835 448.678,-527.954 420.475,-528.88 394,-503.835 391.635,-501.598 389.705,-498.208 388.783,-494.971"/>
<polygon fill="black" stroke="black" points="391.986,-496.381 393,-485.835 385.631,-493.447 391.986,-496.381"/>
</g>
<!-- x19 -->
<g id="node46" class="node"><title>x19</title>
<path fill="none" stroke="black" d="M1982.28,-826.835C1982.28,-826.835 2021.72,-826.835 2021.72,-826.835 2027.72,-826.835 2033.72,-832.835 2033.72,-838.835 2033.72,-838.835 2033.72,-850.835 2033.72,-850.835 2033.72,-856.835 2027.72,-862.835 2021.72,-862.835 2021.72,-862.835 1982.28,-862.835 1982.28,-862.835 1976.28,-862.835 1970.28,-856.835 1970.28,-850.835 1970.28,-850.835 1970.28,-838.835 1970.28,-838.835 1970.28,-832.835 1976.28,-826.835 1982.28,-826.835"/>
<text text-anchor="middle" x="2002" y="-840.735" font-family="Times,serif" font-size="14.00">0:0 &#45; 2:2</text>
</g>
<!-- c47&#45;&gt;x19 -->
<g id="edge20" class="edge"><title>c47:p44:e&#45;&gt;x19:w</title>
<path fill="none" stroke="black" d="M1945.21,-873.246C1951.14,-867.013 1952.78,-855.921 1958.62,-849.598"/>
<polygon fill="none" stroke="black" points="1945.11,-873.29 1941.07,-879.265 1934,-877.835 1938.04,-871.861 1945.11,-873.29"/>
<polygon fill="none" stroke="black" points="1958.93,-849.469 1962.92,-843.463 1970,-844.835 1966.01,-850.842 1958.93,-849.469"/>
</g>
<!-- x18&#45;&gt;c47 -->
<g id="edge19" class="edge"><title>x18:e&#45;&gt;c47:p36:w</title>
<path fill="none" stroke="black" d="M1761.75,-551.541C1807.31,-585.388 1728.66,-840.433 1774.29,-874.157"/>
<polygon fill="none" stroke="black" points="1761.44,-551.445 1754.52,-553.454 1750,-547.835 1756.93,-545.825 1761.44,-551.445"/>
<polygon fill="none" stroke="black" points="1774.55,-874.24 1781.47,-872.221 1786,-877.835 1779.08,-879.854 1774.55,-874.24"/>
</g>
<!-- x19&#45;&gt;n19 -->
<g id="edge48" class="edge"><title>x19:s0:e&#45;&gt;n19:w</title>
<path fill="none" stroke="black" d="M2035,-844.835C2043.01,-844.835 2039.82,-857.329 2034,-862.835 2013.34,-882.382 1996.59,-872.944 1970,-862.835 1949.99,-855.227 1953.66,-839.317 1934,-830.835 1845.92,-792.827 1814.93,-811.835 1719,-811.835 671,-811.835 671,-811.835 671,-811.835 595.311,-811.835 567.012,-802.82 512,-750.835 407.028,-651.64 388.54,-530.203 390.406,-495.505"/>
<polygon fill="black" stroke="black" points="393.789,-496.4 393,-485.835 387.028,-494.586 393.789,-496.4"/>
</g>
<!-- n13&#45;&gt;c29 -->
<g id="edge26" class="edge"><title>n13:e&#45;&gt;c29:p20:w</title>
<path fill="none" stroke="black" d="M803,-496.835C829.953,-496.835 839.139,-496.835 861.789,-496.835"/>
<polygon fill="black" stroke="black" points="862,-500.335 872,-496.835 862,-493.335 862,-500.335"/>
</g>
<!-- n13&#45;&gt;c30 -->
<g id="edge27" class="edge"><title>n13:e&#45;&gt;c30:p20:w</title>
<path fill="none" stroke="black" d="M803,-496.835C863.463,-496.835 810.656,-246.765 858.288,-218.437"/>
<polygon fill="black" stroke="black" points="859.247,-221.804 868,-215.835 857.435,-215.042 859.247,-221.804"/>
</g>
<!-- n13&#45;&gt;c31 -->
<g id="edge28" class="edge"><title>n13:e&#45;&gt;c31:p20:w</title>
<path fill="none" stroke="black" d="M803,-496.835C855.48,-496.835 821.115,-589.224 862.061,-601.495"/>
<polygon fill="black" stroke="black" points="861.622,-604.967 872,-602.835 862.557,-598.03 861.622,-604.967"/>
</g>
<!-- n13&#45;&gt;c32 -->
<g id="edge29" class="edge"><title>n13:e&#45;&gt;c32:p20:w</title>
<path fill="none" stroke="black" d="M803,-496.835C855.708,-496.835 821.805,-404.446 863.009,-392.175"/>
<polygon fill="black" stroke="black" points="863.554,-395.634 873,-390.835 862.623,-388.696 863.554,-395.634"/>
</g>
<!-- n2&#45;&gt;c28 -->
<g id="edge61" class="edge"><title>n2:e&#45;&gt;c28:p25:w</title>
<path fill="none" stroke="black" d="M803,-408.835C817.94,-408.835 822.132,-403.053 832,-391.835 859.41,-360.674 832.197,-307.941 861.992,-299.108"/>
<polygon fill="black" stroke="black" points="862.522,-302.569 872,-297.835 861.638,-295.625 862.522,-302.569"/>
</g>
<!-- n2&#45;&gt;c38 -->
<g id="edge62" class="edge"><title>n2:e&#45;&gt;c38:p20:w</title>
<path fill="none" stroke="black" d="M803,-408.835C880.13,-408.835 1071.06,-441.447 1148,-446.835 1218.18,-451.749 1238.33,-451.838 1303.97,-451.835"/>
<polygon fill="black" stroke="black" points="1304,-455.336 1314,-451.835 1304,-448.336 1304,-455.336"/>
</g>
<!-- n3&#45;&gt;c27 -->
<g id="edge64" class="edge"><title>n3:e&#45;&gt;c27:p25:w</title>
<path fill="none" stroke="black" d="M803,-643.835C851.223,-643.835 825.509,-724.4 862.757,-736.358"/>
<polygon fill="black" stroke="black" points="862.603,-739.872 873,-737.835 863.602,-732.944 862.603,-739.872"/>
</g>
<!-- n3&#45;&gt;c38 -->
<g id="edge65" class="edge"><title>n3:e&#45;&gt;c38:p25:w</title>
<path fill="none" stroke="black" d="M803,-643.835C908.842,-643.835 1198.74,-678.985 1278,-608.835 1336.97,-556.639 1240.92,-438.13 1304.01,-427.588"/>
<polygon fill="black" stroke="black" points="1304.29,-431.077 1314,-426.835 1303.77,-424.096 1304.29,-431.077"/>
</g>
<!-- n4&#45;&gt;c37 -->
<g id="edge67" class="edge"><title>n4:e&#45;&gt;c37:p20:w</title>
<path fill="none" stroke="black" d="M1076,-309.835C1133.33,-309.835 1095.28,-411.331 1141.06,-423.621"/>
<polygon fill="black" stroke="black" points="1140.65,-427.097 1151,-424.835 1141.5,-420.149 1140.65,-427.097"/>
</g>
<!-- n4&#45;&gt;c39 -->
<g id="edge68" class="edge"><title>n4:e&#45;&gt;c39:p20:w</title>
<path fill="none" stroke="black" d="M1076,-309.835C1178.27,-309.835 1206.38,-308.9 1303.72,-308.838"/>
<polygon fill="black" stroke="black" points="1304,-312.338 1314,-308.835 1304,-305.338 1304,-312.338"/>
</g>
<!-- n8&#45;&gt;c34 -->
<g id="edge73" class="edge"><title>n8:e&#45;&gt;c34:p20:w</title>
<path fill="none" stroke="black" d="M1076,-377.835C1130.32,-377.835 1095.2,-282.433 1137.99,-270.135"/>
<polygon fill="black" stroke="black" points="1138.53,-273.594 1148,-268.835 1137.63,-266.652 1138.53,-273.594"/>
</g>
<!-- n8&#45;&gt;c37 -->
<g id="edge74" class="edge"><title>n8:e&#45;&gt;c37:p35:w</title>
<path fill="none" stroke="black" d="M1076,-377.835C1105.7,-377.835 1115.54,-376.249 1140.89,-375.902"/>
<polygon fill="black" stroke="black" points="1141.02,-379.401 1151,-375.835 1140.98,-372.401 1141.02,-379.401"/>
</g>
<!-- n8&#45;&gt;c41 -->
<g id="edge75" class="edge"><title>n8:e&#45;&gt;c41:p25:w</title>
<path fill="none" stroke="black" d="M1076,-377.835C1161.08,-377.835 1070.36,-547.97 1141.02,-561.927"/>
<polygon fill="black" stroke="black" points="1140.72,-565.414 1151,-562.835 1141.36,-558.443 1140.72,-565.414"/>
</g>
<!-- n9&#45;&gt;c34 -->
<g id="edge77" class="edge"><title>n9:e&#45;&gt;c34:p25:w</title>
<path fill="none" stroke="black" d="M1076,-256.835C1104.77,-256.835 1113.62,-247.4 1137.88,-245.262"/>
<polygon fill="black" stroke="black" points="1138.16,-248.753 1148,-244.835 1137.86,-241.76 1138.16,-248.753"/>
</g>
<!-- n9&#45;&gt;c37 -->
<g id="edge78" class="edge"><title>n9:e&#45;&gt;c37:p36:w</title>
<path fill="none" stroke="black" d="M1076,-256.835C1125.69,-256.835 1101.62,-338.081 1140.93,-349.506"/>
<polygon fill="black" stroke="black" points="1140.63,-352.996 1151,-350.835 1141.54,-346.056 1140.63,-352.996"/>
</g>
</g>
</svg>
