<?xml version="1.0" encoding="UTF-8" standalone="no"?>
<!DOCTYPE svg PUBLIC "-//W3C//DTD SVG 1.1//EN"
 "http://www.w3.org/Graphics/SVG/1.1/DTD/svg11.dtd">
<!-- Generated by graphviz version 2.32.0 (20130805.1022)
 -->
<!-- Title: fsm Pages: 1 -->
<svg width="450pt" height="2822pt"
 viewBox="0.00 0.00 450.00 2821.80" xmlns="http://www.w3.org/2000/svg" xmlns:xlink="http://www.w3.org/1999/xlink">
<g id="graph0" class="graph" transform="scale(1 1) rotate(0) translate(4 2817.8)">
<title>fsm</title>
<polygon fill="white" stroke="white" points="-4,5 -4,-2817.8 447,-2817.8 447,5 -4,5"/>
<text text-anchor="middle" x="221" y="-8.2" font-family="Times,serif" font-size="14.00">fsm</text>
<!-- n21 -->
<g id="node1" class="node"><title>n21</title>
<polygon fill="none" stroke="black" points="223.696,-2624.34 223.696,-2639.26 204.543,-2649.8 177.457,-2649.8 158.304,-2639.26 158.304,-2624.34 177.457,-2613.8 204.543,-2613.8 223.696,-2624.34"/>
<text text-anchor="middle" x="191" y="-2627.6" font-family="Times,serif" font-size="14.00">CLK</text>
</g>
<!-- c64 -->
<g id="node47" class="node"><title>c64</title>
<polygon fill="none" stroke="black" points="305.586,-2648.8 305.586,-2772.8 436.414,-2772.8 436.414,-2648.8 305.586,-2648.8"/>
<text text-anchor="middle" x="323.692" y="-2756.2" font-family="Times,serif" font-size="14.00">CK</text>
<polyline fill="none" stroke="black" points="305.586,-2748 341.799,-2748 "/>
<text text-anchor="middle" x="323.692" y="-2731.4" font-family="Times,serif" font-size="14.00">D</text>
<polyline fill="none" stroke="black" points="305.586,-2723.2 341.799,-2723.2 "/>
<text text-anchor="middle" x="323.692" y="-2706.6" font-family="Times,serif" font-size="14.00">Q</text>
<polyline fill="none" stroke="black" points="305.586,-2698.4 341.799,-2698.4 "/>
<text text-anchor="middle" x="323.692" y="-2681.8" font-family="Times,serif" font-size="14.00">QN</text>
<polyline fill="none" stroke="black" points="305.586,-2673.6 341.799,-2673.6 "/>
<text text-anchor="middle" x="323.692" y="-2657" font-family="Times,serif" font-size="14.00">RN</text>
<polyline fill="none" stroke="black" points="341.799,-2648.8 341.799,-2772.8 "/>
<text text-anchor="middle" x="379.357" y="-2715" font-family="Times,serif" font-size="14.00">$171</text>
<text text-anchor="middle" x="379.357" y="-2698.2" font-family="Times,serif" font-size="14.00">DFFR_X1</text>
<polyline fill="none" stroke="black" points="416.914,-2648.8 416.914,-2772.8 "/>
<text text-anchor="middle" x="426.664" y="-2706.7" font-family="Times,serif" font-size="14.00"> </text>
</g>
<!-- n21&#45;&gt;c64 -->
<g id="edge56" class="edge"><title>n21:e&#45;&gt;c64:p59:w</title>
<path fill="none" stroke="black" d="M225,-2631.8C246.082,-2631.8 250.847,-2642.32 264,-2658.8 291.982,-2693.85 261.969,-2750.5 294.65,-2759.56"/>
<polygon fill="black" stroke="black" points="294.655,-2763.09 305,-2760.8 295.487,-2756.14 294.655,-2763.09"/>
</g>
<!-- c65 -->
<g id="node50" class="node"><title>c65</title>
<polygon fill="none" stroke="black" points="305.586,-2459.8 305.586,-2583.8 436.414,-2583.8 436.414,-2459.8 305.586,-2459.8"/>
<text text-anchor="middle" x="323.692" y="-2567.2" font-family="Times,serif" font-size="14.00">CK</text>
<polyline fill="none" stroke="black" points="305.586,-2559 341.799,-2559 "/>
<text text-anchor="middle" x="323.692" y="-2542.4" font-family="Times,serif" font-size="14.00">D</text>
<polyline fill="none" stroke="black" points="305.586,-2534.2 341.799,-2534.2 "/>
<text text-anchor="middle" x="323.692" y="-2517.6" font-family="Times,serif" font-size="14.00">Q</text>
<polyline fill="none" stroke="black" points="305.586,-2509.4 341.799,-2509.4 "/>
<text text-anchor="middle" x="323.692" y="-2492.8" font-family="Times,serif" font-size="14.00">QN</text>
<polyline fill="none" stroke="black" points="305.586,-2484.6 341.799,-2484.6 "/>
<text text-anchor="middle" x="323.692" y="-2468" font-family="Times,serif" font-size="14.00">RN</text>
<polyline fill="none" stroke="black" points="341.799,-2459.8 341.799,-2583.8 "/>
<text text-anchor="middle" x="379.357" y="-2526" font-family="Times,serif" font-size="14.00">$172</text>
<text text-anchor="middle" x="379.357" y="-2509.2" font-family="Times,serif" font-size="14.00">DFFR_X1</text>
<polyline fill="none" stroke="black" points="416.914,-2459.8 416.914,-2583.8 "/>
<text text-anchor="middle" x="426.664" y="-2517.7" font-family="Times,serif" font-size="14.00"> </text>
</g>
<!-- n21&#45;&gt;c65 -->
<g id="edge57" class="edge"><title>n21:e&#45;&gt;c65:p59:w</title>
<path fill="none" stroke="black" d="M225,-2631.8C246.338,-2631.8 246.919,-2616.59 264,-2603.8 279.323,-2592.33 281.532,-2577.91 294.967,-2573.29"/>
<polygon fill="black" stroke="black" points="295.625,-2576.73 305,-2571.8 294.593,-2569.81 295.625,-2576.73"/>
</g>
<!-- c66 -->
<g id="node53" class="node"><title>c66</title>
<polygon fill="none" stroke="black" points="305.586,-2295.8 305.586,-2419.8 436.414,-2419.8 436.414,-2295.8 305.586,-2295.8"/>
<text text-anchor="middle" x="323.692" y="-2403.2" font-family="Times,serif" font-size="14.00">CK</text>
<polyline fill="none" stroke="black" points="305.586,-2395 341.799,-2395 "/>
<text text-anchor="middle" x="323.692" y="-2378.4" font-family="Times,serif" font-size="14.00">D</text>
<polyline fill="none" stroke="black" points="305.586,-2370.2 341.799,-2370.2 "/>
<text text-anchor="middle" x="323.692" y="-2353.6" font-family="Times,serif" font-size="14.00">Q</text>
<polyline fill="none" stroke="black" points="305.586,-2345.4 341.799,-2345.4 "/>
<text text-anchor="middle" x="323.692" y="-2328.8" font-family="Times,serif" font-size="14.00">QN</text>
<polyline fill="none" stroke="black" points="305.586,-2320.6 341.799,-2320.6 "/>
<text text-anchor="middle" x="323.692" y="-2304" font-family="Times,serif" font-size="14.00">RN</text>
<polyline fill="none" stroke="black" points="341.799,-2295.8 341.799,-2419.8 "/>
<text text-anchor="middle" x="379.357" y="-2362" font-family="Times,serif" font-size="14.00">$173</text>
<text text-anchor="middle" x="379.357" y="-2345.2" font-family="Times,serif" font-size="14.00">DFFR_X1</text>
<polyline fill="none" stroke="black" points="416.914,-2295.8 416.914,-2419.8 "/>
<text text-anchor="middle" x="426.664" y="-2353.7" font-family="Times,serif" font-size="14.00"> </text>
</g>
<!-- n21&#45;&gt;c66 -->
<g id="edge58" class="edge"><title>n21:e&#45;&gt;c66:p59:w</title>
<path fill="none" stroke="black" d="M225,-2631.8C246.338,-2631.8 252.357,-2621.68 264,-2603.8 310.569,-2532.28 223.68,-2417.68 294.963,-2408.4"/>
<polygon fill="black" stroke="black" points="295.227,-2411.89 305,-2407.8 294.809,-2404.9 295.227,-2411.89"/>
</g>
<!-- n22 -->
<g id="node2" class="node"><title>n22</title>
<polygon fill="none" stroke="black" points="229.774,-919.344 229.774,-934.256 207.061,-944.8 174.939,-944.8 152.226,-934.256 152.226,-919.344 174.939,-908.8 207.061,-908.8 229.774,-919.344"/>
<text text-anchor="middle" x="191" y="-922.6" font-family="Times,serif" font-size="14.00">accept</text>
</g>
<!-- c38 -->
<g id="node20" class="node"><title>c38</title>
<polygon fill="none" stroke="black" points="311.43,-1275 311.43,-1324.6 430.57,-1324.6 430.57,-1275 311.43,-1275"/>
<text text-anchor="middle" x="328.76" y="-1308" font-family="Times,serif" font-size="14.00">A</text>
<polyline fill="none" stroke="black" points="311.43,-1299.8 346.089,-1299.8 "/>
<text text-anchor="middle" x="328.76" y="-1283.2" font-family="Times,serif" font-size="14.00">ZN</text>
<polyline fill="none" stroke="black" points="346.089,-1275 346.089,-1324.6 "/>
<text text-anchor="middle" x="378.58" y="-1304" font-family="Times,serif" font-size="14.00">$271</text>
<text text-anchor="middle" x="378.58" y="-1287.2" font-family="Times,serif" font-size="14.00">INV_X1</text>
<polyline fill="none" stroke="black" points="411.07,-1275 411.07,-1324.6 "/>
<text text-anchor="middle" x="420.82" y="-1296" font-family="Times,serif" font-size="14.00"> </text>
</g>
<!-- n22&#45;&gt;c38 -->
<g id="edge59" class="edge"><title>n22:e&#45;&gt;c38:p28:w</title>
<path fill="none" stroke="black" d="M231,-926.8C249.95,-926.8 254.912,-937.171 264,-953.8 298.176,-1016.34 241.17,-1262.09 299.997,-1285.94"/>
<polygon fill="black" stroke="black" points="299.528,-1289.41 310,-1287.8 300.81,-1282.53 299.528,-1289.41"/>
</g>
<!-- c57 -->
<g id="node44" class="node"><title>c57</title>
<polygon fill="none" stroke="black" points="304.43,-752.2 304.43,-851.4 437.57,-851.4 437.57,-752.2 304.43,-752.2"/>
<text text-anchor="middle" x="321.76" y="-834.8" font-family="Times,serif" font-size="14.00">A</text>
<polyline fill="none" stroke="black" points="304.43,-826.6 339.089,-826.6 "/>
<text text-anchor="middle" x="321.76" y="-810" font-family="Times,serif" font-size="14.00">B1</text>
<polyline fill="none" stroke="black" points="304.43,-801.8 339.089,-801.8 "/>
<text text-anchor="middle" x="321.76" y="-785.2" font-family="Times,serif" font-size="14.00">B2</text>
<polyline fill="none" stroke="black" points="304.43,-777 339.089,-777 "/>
<text text-anchor="middle" x="321.76" y="-760.4" font-family="Times,serif" font-size="14.00">ZN</text>
<polyline fill="none" stroke="black" points="339.089,-752.2 339.089,-851.4 "/>
<text text-anchor="middle" x="378.58" y="-806" font-family="Times,serif" font-size="14.00">$284</text>
<text text-anchor="middle" x="378.58" y="-789.2" font-family="Times,serif" font-size="14.00">OAI21_X1</text>
<polyline fill="none" stroke="black" points="418.07,-752.2 418.07,-851.4 "/>
<text text-anchor="middle" x="427.82" y="-797.8" font-family="Times,serif" font-size="14.00"> </text>
</g>
<!-- n22&#45;&gt;c57 -->
<g id="edge60" class="edge"><title>n22:e&#45;&gt;c57:p43:w</title>
<path fill="none" stroke="black" d="M231,-926.8C249.95,-926.8 253.099,-915.301 264,-899.8 291.623,-860.519 257.069,-799.691 292.945,-790.879"/>
<polygon fill="black" stroke="black" points="293.43,-794.347 303,-789.8 292.684,-787.387 293.43,-794.347"/>
</g>
<!-- n23 -->
<g id="node3" class="node"><title>n23</title>
<polygon fill="none" stroke="black" points="220.214,-701.344 220.214,-716.256 203.101,-726.8 178.899,-726.8 161.786,-716.256 161.786,-701.344 178.899,-690.8 203.101,-690.8 220.214,-701.344"/>
<text text-anchor="middle" x="191" y="-704.6" font-family="Times,serif" font-size="14.00">data</text>
</g>
<!-- c29 -->
<g id="node7" class="node"><title>c29</title>
<polygon fill="none" stroke="black" points="311.43,-472 311.43,-521.6 430.57,-521.6 430.57,-472 311.43,-472"/>
<text text-anchor="middle" x="328.76" y="-505" font-family="Times,serif" font-size="14.00">A</text>
<polyline fill="none" stroke="black" points="311.43,-496.8 346.089,-496.8 "/>
<text text-anchor="middle" x="328.76" y="-480.2" font-family="Times,serif" font-size="14.00">ZN</text>
<polyline fill="none" stroke="black" points="346.089,-472 346.089,-521.6 "/>
<text text-anchor="middle" x="378.58" y="-501" font-family="Times,serif" font-size="14.00">$265</text>
<text text-anchor="middle" x="378.58" y="-484.2" font-family="Times,serif" font-size="14.00">INV_X1</text>
<polyline fill="none" stroke="black" points="411.07,-472 411.07,-521.6 "/>
<text text-anchor="middle" x="420.82" y="-493" font-family="Times,serif" font-size="14.00"> </text>
</g>
<!-- n23&#45;&gt;c29 -->
<g id="edge61" class="edge"><title>n23:e&#45;&gt;c29:p27:w</title>
<path fill="none" stroke="black" d="M221,-708.8C314.682,-708.8 220.264,-523.368 299.986,-509.606"/>
<polygon fill="black" stroke="black" points="300.313,-513.091 310,-508.8 299.751,-506.113 300.313,-513.091"/>
</g>
<!-- c49 -->
<g id="node36" class="node"><title>c49</title>
<polygon fill="none" stroke="black" points="304.43,-540.2 304.43,-639.4 437.57,-639.4 437.57,-540.2 304.43,-540.2"/>
<text text-anchor="middle" x="321.76" y="-622.8" font-family="Times,serif" font-size="14.00">A</text>
<polyline fill="none" stroke="black" points="304.43,-614.6 339.089,-614.6 "/>
<text text-anchor="middle" x="321.76" y="-598" font-family="Times,serif" font-size="14.00">B1</text>
<polyline fill="none" stroke="black" points="304.43,-589.8 339.089,-589.8 "/>
<text text-anchor="middle" x="321.76" y="-573.2" font-family="Times,serif" font-size="14.00">B2</text>
<polyline fill="none" stroke="black" points="304.43,-565 339.089,-565 "/>
<text text-anchor="middle" x="321.76" y="-548.4" font-family="Times,serif" font-size="14.00">ZN</text>
<polyline fill="none" stroke="black" points="339.089,-540.2 339.089,-639.4 "/>
<text text-anchor="middle" x="378.58" y="-594" font-family="Times,serif" font-size="14.00">$279</text>
<text text-anchor="middle" x="378.58" y="-577.2" font-family="Times,serif" font-size="14.00">AOI21_X1</text>
<polyline fill="none" stroke="black" points="418.07,-540.2 418.07,-639.4 "/>
<text text-anchor="middle" x="427.82" y="-585.8" font-family="Times,serif" font-size="14.00"> </text>
</g>
<!-- n23&#45;&gt;c49 -->
<g id="edge62" class="edge"><title>n23:e&#45;&gt;c49:p27:w</title>
<path fill="none" stroke="black" d="M221,-708.8C268.715,-708.8 254.189,-638.52 292.665,-628.088"/>
<polygon fill="black" stroke="black" points="293.51,-631.51 303,-626.8 292.644,-624.564 293.51,-631.51"/>
</g>
<!-- c51 -->
<g id="node40" class="node"><title>c51</title>
<polygon fill="none" stroke="black" points="300.154,-658.6 300.154,-733 441.846,-733 441.846,-658.6 300.154,-658.6"/>
<text text-anchor="middle" x="317.483" y="-716.4" font-family="Times,serif" font-size="14.00">A1</text>
<polyline fill="none" stroke="black" points="300.154,-708.2 334.813,-708.2 "/>
<text text-anchor="middle" x="317.483" y="-691.6" font-family="Times,serif" font-size="14.00">A2</text>
<polyline fill="none" stroke="black" points="300.154,-683.4 334.813,-683.4 "/>
<text text-anchor="middle" x="317.483" y="-666.8" font-family="Times,serif" font-size="14.00">ZN</text>
<polyline fill="none" stroke="black" points="334.813,-658.6 334.813,-733 "/>
<text text-anchor="middle" x="378.58" y="-700" font-family="Times,serif" font-size="14.00">$281</text>
<text text-anchor="middle" x="378.58" y="-683.2" font-family="Times,serif" font-size="14.00">NAND2_X1</text>
<polyline fill="none" stroke="black" points="422.346,-658.6 422.346,-733 "/>
<text text-anchor="middle" x="432.096" y="-691.9" font-family="Times,serif" font-size="14.00"> </text>
</g>
<!-- n23&#45;&gt;c51 -->
<g id="edge63" class="edge"><title>n23:e&#45;&gt;c51:p31:w</title>
<path fill="none" stroke="black" d="M221,-708.8C252.907,-708.8 262.583,-718.486 289.974,-720.454"/>
<polygon fill="black" stroke="black" points="289.885,-723.953 300,-720.8 290.127,-716.957 289.885,-723.953"/>
</g>
<!-- c55 -->
<g id="node41" class="node"><title>c55</title>
<polygon fill="none" stroke="black" points="300.93,-988.8 300.93,-1112.8 441.07,-1112.8 441.07,-988.8 300.93,-988.8"/>
<text text-anchor="middle" x="318.26" y="-1096.2" font-family="Times,serif" font-size="14.00">A</text>
<polyline fill="none" stroke="black" points="300.93,-1088 335.589,-1088 "/>
<text text-anchor="middle" x="318.26" y="-1071.4" font-family="Times,serif" font-size="14.00">B</text>
<polyline fill="none" stroke="black" points="300.93,-1063.2 335.589,-1063.2 "/>
<text text-anchor="middle" x="318.26" y="-1046.6" font-family="Times,serif" font-size="14.00">C1</text>
<polyline fill="none" stroke="black" points="300.93,-1038.4 335.589,-1038.4 "/>
<text text-anchor="middle" x="318.26" y="-1021.8" font-family="Times,serif" font-size="14.00">C2</text>
<polyline fill="none" stroke="black" points="300.93,-1013.6 335.589,-1013.6 "/>
<text text-anchor="middle" x="318.26" y="-997" font-family="Times,serif" font-size="14.00">ZN</text>
<polyline fill="none" stroke="black" points="335.589,-988.8 335.589,-1112.8 "/>
<text text-anchor="middle" x="378.58" y="-1055" font-family="Times,serif" font-size="14.00">$282</text>
<text text-anchor="middle" x="378.58" y="-1038.2" font-family="Times,serif" font-size="14.00">OAI211_X1</text>
<polyline fill="none" stroke="black" points="421.57,-988.8 421.57,-1112.8 "/>
<text text-anchor="middle" x="431.32" y="-1046.7" font-family="Times,serif" font-size="14.00"> </text>
</g>
<!-- n23&#45;&gt;c55 -->
<g id="edge64" class="edge"><title>n23:e&#45;&gt;c55:p54:w</title>
<path fill="none" stroke="black" d="M221,-708.8C243.566,-708.8 251.883,-716.763 264,-735.8 296.894,-787.481 241.973,-999.733 290.163,-1023.61"/>
<polygon fill="black" stroke="black" points="289.479,-1027.04 300,-1025.8 290.999,-1020.21 289.479,-1027.04"/>
</g>
<!-- n23&#45;&gt;c57 -->
<g id="edge65" class="edge"><title>n23:e&#45;&gt;c57:p27:w</title>
<path fill="none" stroke="black" d="M221,-708.8C243.566,-708.8 249.705,-718.339 264,-735.8 292.465,-770.568 260.286,-828.299 292.679,-837.536"/>
<polygon fill="black" stroke="black" points="292.649,-841.059 303,-838.8 293.5,-834.11 292.649,-841.059"/>
</g>
<!-- n24 -->
<g id="node4" class="node"><title>n24</title>
<polygon fill="none" stroke="black" points="227.179,-2405.34 227.179,-2420.26 205.986,-2430.8 176.014,-2430.8 154.821,-2420.26 154.821,-2405.34 176.014,-2394.8 205.986,-2394.8 227.179,-2405.34"/>
<text text-anchor="middle" x="191" y="-2408.6" font-family="Times,serif" font-size="14.00">nRST</text>
</g>
<!-- n24&#45;&gt;c64 -->
<g id="edge66" class="edge"><title>n24:e&#45;&gt;c64:p63:w</title>
<path fill="none" stroke="black" d="M228,-2412.8C248,-2412.8 253.455,-2422.81 264,-2439.8 288.381,-2479.09 259.949,-2635.05 295.227,-2657.98"/>
<polygon fill="black" stroke="black" points="294.422,-2661.39 305,-2660.8 296.364,-2654.66 294.422,-2661.39"/>
</g>
<!-- n24&#45;&gt;c65 -->
<g id="edge67" class="edge"><title>n24:e&#45;&gt;c65:p63:w</title>
<path fill="none" stroke="black" d="M228,-2412.8C267.408,-2412.8 263.086,-2462.1 294.978,-2470.57"/>
<polygon fill="black" stroke="black" points="294.648,-2474.05 305,-2471.8 295.502,-2467.11 294.648,-2474.05"/>
</g>
<!-- n24&#45;&gt;c66 -->
<g id="edge68" class="edge"><title>n24:e&#45;&gt;c66:p63:w</title>
<path fill="none" stroke="black" d="M228,-2412.8C248.27,-2412.8 250.949,-2400.31 264,-2384.8 286.428,-2358.15 270.355,-2317.23 294.976,-2309.2"/>
<polygon fill="black" stroke="black" points="295.579,-2312.65 305,-2307.8 294.613,-2305.71 295.579,-2312.65"/>
</g>
<!-- n25 -->
<g id="node5" class="node"><title>n25</title>
<polygon fill="none" stroke="black" points="41,-1442.8 1.75447,-1424.8 41,-1406.8 80.2455,-1424.8 41,-1442.8"/>
<text text-anchor="middle" x="41" y="-1420.6" font-family="Times,serif" font-size="14.00">next</text>
</g>
<!-- x16 -->
<g id="node39" class="node"><title>x16</title>
<path fill="none" stroke="black" d="M171.279,-127.8C171.279,-127.8 210.721,-127.8 210.721,-127.8 216.721,-127.8 222.721,-133.8 222.721,-139.8 222.721,-139.8 222.721,-151.8 222.721,-151.8 222.721,-157.8 216.721,-163.8 210.721,-163.8 210.721,-163.8 171.279,-163.8 171.279,-163.8 165.279,-163.8 159.279,-157.8 159.279,-151.8 159.279,-151.8 159.279,-139.8 159.279,-139.8 159.279,-133.8 165.279,-127.8 171.279,-127.8"/>
<text text-anchor="middle" x="191" y="-141.7" font-family="Times,serif" font-size="14.00">2:2 &#45; 0:0</text>
</g>
<!-- n25&#45;&gt;x16 -->
<g id="edge69" class="edge"><title>n25:e&#45;&gt;x16:s0:w</title>
<path fill="none" stroke="black" d="M81,-1424.8C149.753,-1424.8 91.5143,-251.247 118,-187.8 126.456,-167.543 130.824,-151.329 147.852,-146.962"/>
<polygon fill="black" stroke="black" points="148.463,-150.415 158,-145.8 147.667,-143.461 148.463,-150.415"/>
</g>
<!-- x17 -->
<g id="node42" class="node"><title>x17</title>
<path fill="none" stroke="black" d="M171.279,-1071.8C171.279,-1071.8 210.721,-1071.8 210.721,-1071.8 216.721,-1071.8 222.721,-1077.8 222.721,-1083.8 222.721,-1083.8 222.721,-1095.8 222.721,-1095.8 222.721,-1101.8 216.721,-1107.8 210.721,-1107.8 210.721,-1107.8 171.279,-1107.8 171.279,-1107.8 165.279,-1107.8 159.279,-1101.8 159.279,-1095.8 159.279,-1095.8 159.279,-1083.8 159.279,-1083.8 159.279,-1077.8 165.279,-1071.8 171.279,-1071.8"/>
<text text-anchor="middle" x="191" y="-1085.7" font-family="Times,serif" font-size="14.00">1:1 &#45; 0:0</text>
</g>
<!-- n25&#45;&gt;x17 -->
<g id="edge70" class="edge"><title>n25:e&#45;&gt;x17:s0:w</title>
<path fill="none" stroke="black" d="M81,-1424.8C149.716,-1424.8 82.6703,-1176.74 118,-1117.8 127.24,-1102.39 133.726,-1093.3 148.007,-1090.63"/>
<polygon fill="black" stroke="black" points="148.325,-1094.12 158,-1089.8 147.744,-1087.14 148.325,-1094.12"/>
</g>
<!-- x18 -->
<g id="node46" class="node"><title>x18</title>
<path fill="none" stroke="black" d="M171.279,-359.8C171.279,-359.8 210.721,-359.8 210.721,-359.8 216.721,-359.8 222.721,-365.8 222.721,-371.8 222.721,-371.8 222.721,-383.8 222.721,-383.8 222.721,-389.8 216.721,-395.8 210.721,-395.8 210.721,-395.8 171.279,-395.8 171.279,-395.8 165.279,-395.8 159.279,-389.8 159.279,-383.8 159.279,-383.8 159.279,-371.8 159.279,-371.8 159.279,-365.8 165.279,-359.8 171.279,-359.8"/>
<text text-anchor="middle" x="191" y="-373.7" font-family="Times,serif" font-size="14.00">0:0 &#45; 0:0</text>
</g>
<!-- n25&#45;&gt;x18 -->
<g id="edge71" class="edge"><title>n25:e&#45;&gt;x18:s0:w</title>
<path fill="none" stroke="black" d="M81,-1424.8C137.648,-1424.8 90.9317,-455.563 118,-405.8 126.587,-390.014 133.501,-381.171 147.949,-378.598"/>
<polygon fill="black" stroke="black" points="148.308,-382.081 158,-377.8 147.754,-375.103 148.308,-382.081"/>
</g>
<!-- x19 -->
<g id="node48" class="node"><title>x19</title>
<path fill="none" stroke="black" d="M171.279,-2722.8C171.279,-2722.8 210.721,-2722.8 210.721,-2722.8 216.721,-2722.8 222.721,-2728.8 222.721,-2734.8 222.721,-2734.8 222.721,-2746.8 222.721,-2746.8 222.721,-2752.8 216.721,-2758.8 210.721,-2758.8 210.721,-2758.8 171.279,-2758.8 171.279,-2758.8 165.279,-2758.8 159.279,-2752.8 159.279,-2746.8 159.279,-2746.8 159.279,-2734.8 159.279,-2734.8 159.279,-2728.8 165.279,-2722.8 171.279,-2722.8"/>
<text text-anchor="middle" x="191" y="-2736.7" font-family="Times,serif" font-size="14.00">0:0 &#45; 0:0</text>
</g>
<!-- n25&#45;&gt;x19 -->
<g id="edge72" class="edge"><title>n25:e&#45;&gt;x19:s0:w</title>
<path fill="none" stroke="black" d="M81,-1424.8C152.585,-1424.8 84.033,-2649.79 118,-2712.8 126.527,-2728.62 133.481,-2737.44 147.943,-2740"/>
<polygon fill="black" stroke="black" points="147.755,-2743.5 158,-2740.8 148.307,-2736.52 147.755,-2743.5"/>
</g>
<!-- x21 -->
<g id="node51" class="node"><title>x21</title>
<path fill="none" stroke="black" d="M171.279,-2558.8C171.279,-2558.8 210.721,-2558.8 210.721,-2558.8 216.721,-2558.8 222.721,-2564.8 222.721,-2570.8 222.721,-2570.8 222.721,-2582.8 222.721,-2582.8 222.721,-2588.8 216.721,-2594.8 210.721,-2594.8 210.721,-2594.8 171.279,-2594.8 171.279,-2594.8 165.279,-2594.8 159.279,-2588.8 159.279,-2582.8 159.279,-2582.8 159.279,-2570.8 159.279,-2570.8 159.279,-2564.8 165.279,-2558.8 171.279,-2558.8"/>
<text text-anchor="middle" x="191" y="-2572.7" font-family="Times,serif" font-size="14.00">1:1 &#45; 0:0</text>
</g>
<!-- n25&#45;&gt;x21 -->
<g id="edge73" class="edge"><title>n25:e&#45;&gt;x21:s0:w</title>
<path fill="none" stroke="black" d="M81,-1424.8C143.478,-1424.8 88.2391,-2493.87 118,-2548.8 126.56,-2564.6 133.492,-2573.43 147.946,-2576"/>
<polygon fill="black" stroke="black" points="147.755,-2579.5 158,-2576.8 148.308,-2572.52 147.755,-2579.5"/>
</g>
<!-- x23 -->
<g id="node54" class="node"><title>x23</title>
<path fill="none" stroke="black" d="M171.279,-2284.8C171.279,-2284.8 210.721,-2284.8 210.721,-2284.8 216.721,-2284.8 222.721,-2290.8 222.721,-2296.8 222.721,-2296.8 222.721,-2308.8 222.721,-2308.8 222.721,-2314.8 216.721,-2320.8 210.721,-2320.8 210.721,-2320.8 171.279,-2320.8 171.279,-2320.8 165.279,-2320.8 159.279,-2314.8 159.279,-2308.8 159.279,-2308.8 159.279,-2296.8 159.279,-2296.8 159.279,-2290.8 165.279,-2284.8 171.279,-2284.8"/>
<text text-anchor="middle" x="191" y="-2298.7" font-family="Times,serif" font-size="14.00">2:2 &#45; 0:0</text>
</g>
<!-- n25&#45;&gt;x23 -->
<g id="edge74" class="edge"><title>n25:e&#45;&gt;x23:s0:w</title>
<path fill="none" stroke="black" d="M81,-1424.8C128.267,-1424.8 95.265,-2233.36 118,-2274.8 126.644,-2290.56 133.521,-2299.42 147.954,-2302"/>
<polygon fill="black" stroke="black" points="147.753,-2305.49 158,-2302.8 148.31,-2298.52 147.753,-2305.49"/>
</g>
<!-- n26 -->
<g id="node6" class="node"><title>n26</title>
<polygon fill="none" stroke="black" points="41,-1826.8 0.230756,-1808.8 41,-1790.8 81.7692,-1808.8 41,-1826.8"/>
<text text-anchor="middle" x="41" y="-1804.6" font-family="Times,serif" font-size="14.00">state</text>
</g>
<!-- x0 -->
<g id="node9" class="node"><title>x0</title>
<path fill="none" stroke="black" d="M171.279,-1625.8C171.279,-1625.8 210.721,-1625.8 210.721,-1625.8 216.721,-1625.8 222.721,-1631.8 222.721,-1637.8 222.721,-1637.8 222.721,-1649.8 222.721,-1649.8 222.721,-1655.8 216.721,-1661.8 210.721,-1661.8 210.721,-1661.8 171.279,-1661.8 171.279,-1661.8 165.279,-1661.8 159.279,-1655.8 159.279,-1649.8 159.279,-1649.8 159.279,-1637.8 159.279,-1637.8 159.279,-1631.8 165.279,-1625.8 171.279,-1625.8"/>
<text text-anchor="middle" x="191" y="-1639.7" font-family="Times,serif" font-size="14.00">0:0 &#45; 0:0</text>
</g>
<!-- n26&#45;&gt;x0 -->
<g id="edge75" class="edge"><title>n26:e&#45;&gt;x0:s0:w</title>
<path fill="none" stroke="black" d="M82,-1808.8C145.386,-1808.8 81.3713,-1722.53 118,-1670.8 128.167,-1656.44 134.137,-1647.47 147.794,-1644.71"/>
<polygon fill="black" stroke="black" points="148.351,-1648.18 158,-1643.8 147.728,-1641.2 148.351,-1648.18"/>
</g>
<!-- x1 -->
<g id="node11" class="node"><title>x1</title>
<path fill="none" stroke="black" d="M171.279,-1570.8C171.279,-1570.8 210.721,-1570.8 210.721,-1570.8 216.721,-1570.8 222.721,-1576.8 222.721,-1582.8 222.721,-1582.8 222.721,-1594.8 222.721,-1594.8 222.721,-1600.8 216.721,-1606.8 210.721,-1606.8 210.721,-1606.8 171.279,-1606.8 171.279,-1606.8 165.279,-1606.8 159.279,-1600.8 159.279,-1594.8 159.279,-1594.8 159.279,-1582.8 159.279,-1582.8 159.279,-1576.8 165.279,-1570.8 171.279,-1570.8"/>
<text text-anchor="middle" x="191" y="-1584.7" font-family="Times,serif" font-size="14.00">2:2 &#45; 0:0</text>
</g>
<!-- n26&#45;&gt;x1 -->
<g id="edge82" class="edge"><title>n26:e&#45;&gt;x1:s0:w</title>
<path fill="none" stroke="black" d="M82,-1808.8C125.629,-1808.8 94.0639,-1652.28 118,-1615.8 127.653,-1601.09 133.952,-1592.34 147.744,-1589.68"/>
<polygon fill="black" stroke="black" points="148.335,-1593.14 158,-1588.8 147.738,-1586.16 148.335,-1593.14"/>
</g>
<!-- x2 -->
<g id="node12" class="node"><title>x2</title>
<path fill="none" stroke="black" d="M171.279,-1460.8C171.279,-1460.8 210.721,-1460.8 210.721,-1460.8 216.721,-1460.8 222.721,-1466.8 222.721,-1472.8 222.721,-1472.8 222.721,-1484.8 222.721,-1484.8 222.721,-1490.8 216.721,-1496.8 210.721,-1496.8 210.721,-1496.8 171.279,-1496.8 171.279,-1496.8 165.279,-1496.8 159.279,-1490.8 159.279,-1484.8 159.279,-1484.8 159.279,-1472.8 159.279,-1472.8 159.279,-1466.8 165.279,-1460.8 171.279,-1460.8"/>
<text text-anchor="middle" x="191" y="-1474.7" font-family="Times,serif" font-size="14.00">1:1 &#45; 0:0</text>
</g>
<!-- n26&#45;&gt;x2 -->
<g id="edge86" class="edge"><title>n26:e&#45;&gt;x2:s0:w</title>
<path fill="none" stroke="black" d="M82,-1808.8C149.586,-1808.8 83.2887,-1564.79 118,-1506.8 127.23,-1491.38 133.722,-1482.3 148.006,-1479.63"/>
<polygon fill="black" stroke="black" points="148.324,-1483.12 158,-1478.8 147.744,-1476.14 148.324,-1483.12"/>
</g>
<!-- x3 -->
<g id="node14" class="node"><title>x3</title>
<path fill="none" stroke="black" d="M171.279,-1405.8C171.279,-1405.8 210.721,-1405.8 210.721,-1405.8 216.721,-1405.8 222.721,-1411.8 222.721,-1417.8 222.721,-1417.8 222.721,-1429.8 222.721,-1429.8 222.721,-1435.8 216.721,-1441.8 210.721,-1441.8 210.721,-1441.8 171.279,-1441.8 171.279,-1441.8 165.279,-1441.8 159.279,-1435.8 159.279,-1429.8 159.279,-1429.8 159.279,-1417.8 159.279,-1417.8 159.279,-1411.8 165.279,-1405.8 171.279,-1405.8"/>
<text text-anchor="middle" x="191" y="-1419.7" font-family="Times,serif" font-size="14.00">2:2 &#45; 0:0</text>
</g>
<!-- n26&#45;&gt;x3 -->
<g id="edge87" class="edge"><title>n26:e&#45;&gt;x3:s0:w</title>
<path fill="none" stroke="black" d="M82,-1808.8C161.957,-1808.8 76.985,-1519.44 118,-1450.8 127.025,-1435.7 133.727,-1427.2 147.683,-1424.64"/>
<polygon fill="black" stroke="black" points="148.317,-1428.1 158,-1423.8 147.749,-1421.12 148.317,-1428.1"/>
</g>
<!-- x4 -->
<g id="node15" class="node"><title>x4</title>
<path fill="none" stroke="black" d="M171.279,-1350.8C171.279,-1350.8 210.721,-1350.8 210.721,-1350.8 216.721,-1350.8 222.721,-1356.8 222.721,-1362.8 222.721,-1362.8 222.721,-1374.8 222.721,-1374.8 222.721,-1380.8 216.721,-1386.8 210.721,-1386.8 210.721,-1386.8 171.279,-1386.8 171.279,-1386.8 165.279,-1386.8 159.279,-1380.8 159.279,-1374.8 159.279,-1374.8 159.279,-1362.8 159.279,-1362.8 159.279,-1356.8 165.279,-1350.8 171.279,-1350.8"/>
<text text-anchor="middle" x="191" y="-1364.7" font-family="Times,serif" font-size="14.00">1:1 &#45; 0:0</text>
</g>
<!-- n26&#45;&gt;x4 -->
<g id="edge88" class="edge"><title>n26:e&#45;&gt;x4:s0:w</title>
<path fill="none" stroke="black" d="M82,-1808.8C128.063,-1808.8 94.6344,-1435.5 118,-1395.8 126.925,-1380.64 133.691,-1372.18 147.674,-1369.63"/>
<polygon fill="black" stroke="black" points="148.314,-1373.09 158,-1368.8 147.751,-1366.12 148.314,-1373.09"/>
</g>
<!-- x5 -->
<g id="node17" class="node"><title>x5</title>
<path fill="none" stroke="black" d="M171.279,-2229.8C171.279,-2229.8 210.721,-2229.8 210.721,-2229.8 216.721,-2229.8 222.721,-2235.8 222.721,-2241.8 222.721,-2241.8 222.721,-2253.8 222.721,-2253.8 222.721,-2259.8 216.721,-2265.8 210.721,-2265.8 210.721,-2265.8 171.279,-2265.8 171.279,-2265.8 165.279,-2265.8 159.279,-2259.8 159.279,-2253.8 159.279,-2253.8 159.279,-2241.8 159.279,-2241.8 159.279,-2235.8 165.279,-2229.8 171.279,-2229.8"/>
<text text-anchor="middle" x="191" y="-2243.7" font-family="Times,serif" font-size="14.00">0:0 &#45; 0:0</text>
</g>
<!-- n26&#45;&gt;x5 -->
<g id="edge89" class="edge"><title>n26:e&#45;&gt;x5:s0:w</title>
<path fill="none" stroke="black" d="M82,-1808.8C127.842,-1808.8 95.0745,-2180.1 118,-2219.8 126.987,-2235.36 133.639,-2244.35 147.984,-2246.98"/>
<polygon fill="black" stroke="black" points="147.748,-2250.47 158,-2247.8 148.318,-2243.5 147.748,-2250.47"/>
</g>
<!-- x6 -->
<g id="node18" class="node"><title>x6</title>
<path fill="none" stroke="black" d="M171.279,-2174.8C171.279,-2174.8 210.721,-2174.8 210.721,-2174.8 216.721,-2174.8 222.721,-2180.8 222.721,-2186.8 222.721,-2186.8 222.721,-2198.8 222.721,-2198.8 222.721,-2204.8 216.721,-2210.8 210.721,-2210.8 210.721,-2210.8 171.279,-2210.8 171.279,-2210.8 165.279,-2210.8 159.279,-2204.8 159.279,-2198.8 159.279,-2198.8 159.279,-2186.8 159.279,-2186.8 159.279,-2180.8 165.279,-2174.8 171.279,-2174.8"/>
<text text-anchor="middle" x="191" y="-2188.7" font-family="Times,serif" font-size="14.00">1:1 &#45; 0:0</text>
</g>
<!-- n26&#45;&gt;x6 -->
<g id="edge90" class="edge"><title>n26:e&#45;&gt;x6:s0:w</title>
<path fill="none" stroke="black" d="M82,-1808.8C161.515,-1808.8 77.7735,-2096.21 118,-2164.8 127.091,-2180.3 133.675,-2189.33 147.993,-2191.98"/>
<polygon fill="black" stroke="black" points="147.747,-2195.47 158,-2192.8 148.321,-2188.49 147.747,-2195.47"/>
</g>
<!-- x7 -->
<g id="node22" class="node"><title>x7</title>
<path fill="none" stroke="black" d="M171.279,-2119.8C171.279,-2119.8 210.721,-2119.8 210.721,-2119.8 216.721,-2119.8 222.721,-2125.8 222.721,-2131.8 222.721,-2131.8 222.721,-2143.8 222.721,-2143.8 222.721,-2149.8 216.721,-2155.8 210.721,-2155.8 210.721,-2155.8 171.279,-2155.8 171.279,-2155.8 165.279,-2155.8 159.279,-2149.8 159.279,-2143.8 159.279,-2143.8 159.279,-2131.8 159.279,-2131.8 159.279,-2125.8 165.279,-2119.8 171.279,-2119.8"/>
<text text-anchor="middle" x="191" y="-2133.7" font-family="Times,serif" font-size="14.00">0:0 &#45; 0:0</text>
</g>
<!-- n26&#45;&gt;x7 -->
<g id="edge91" class="edge"><title>n26:e&#45;&gt;x7:s0:w</title>
<path fill="none" stroke="black" d="M82,-1808.8C149.366,-1808.8 83.3907,-2052 118,-2109.8 127.233,-2125.22 133.723,-2134.3 148.006,-2136.97"/>
<polygon fill="black" stroke="black" points="147.744,-2140.46 158,-2137.8 148.324,-2133.48 147.744,-2140.46"/>
</g>
<!-- x8 -->
<g id="node23" class="node"><title>x8</title>
<path fill="none" stroke="black" d="M171.279,-2064.8C171.279,-2064.8 210.721,-2064.8 210.721,-2064.8 216.721,-2064.8 222.721,-2070.8 222.721,-2076.8 222.721,-2076.8 222.721,-2088.8 222.721,-2088.8 222.721,-2094.8 216.721,-2100.8 210.721,-2100.8 210.721,-2100.8 171.279,-2100.8 171.279,-2100.8 165.279,-2100.8 159.279,-2094.8 159.279,-2088.8 159.279,-2088.8 159.279,-2076.8 159.279,-2076.8 159.279,-2070.8 165.279,-2064.8 171.279,-2064.8"/>
<text text-anchor="middle" x="191" y="-2078.7" font-family="Times,serif" font-size="14.00">1:1 &#45; 0:0</text>
</g>
<!-- n26&#45;&gt;x8 -->
<g id="edge92" class="edge"><title>n26:e&#45;&gt;x8:s0:w</title>
<path fill="none" stroke="black" d="M82,-1808.8C137.249,-1808.8 88.9955,-2007.78 118,-2054.8 127.434,-2070.1 133.793,-2079.26 148.024,-2081.96"/>
<polygon fill="black" stroke="black" points="147.741,-2085.45 158,-2082.8 148.33,-2078.47 147.741,-2085.45"/>
</g>
<!-- x9 -->
<g id="node25" class="node"><title>x9</title>
<path fill="none" stroke="black" d="M171.279,-1900.8C171.279,-1900.8 210.721,-1900.8 210.721,-1900.8 216.721,-1900.8 222.721,-1906.8 222.721,-1912.8 222.721,-1912.8 222.721,-1924.8 222.721,-1924.8 222.721,-1930.8 216.721,-1936.8 210.721,-1936.8 210.721,-1936.8 171.279,-1936.8 171.279,-1936.8 165.279,-1936.8 159.279,-1930.8 159.279,-1924.8 159.279,-1924.8 159.279,-1912.8 159.279,-1912.8 159.279,-1906.8 165.279,-1900.8 171.279,-1900.8"/>
<text text-anchor="middle" x="191" y="-1914.7" font-family="Times,serif" font-size="14.00">2:2 &#45; 0:0</text>
</g>
<!-- n26&#45;&gt;x9 -->
<g id="edge93" class="edge"><title>n26:e&#45;&gt;x9:s0:w</title>
<path fill="none" stroke="black" d="M82,-1808.8C121.802,-1808.8 92.7605,-1860.02 118,-1890.8 129.288,-1904.56 134.371,-1914.59 147.811,-1917.75"/>
<polygon fill="black" stroke="black" points="147.693,-1921.25 158,-1918.8 148.413,-1914.29 147.693,-1921.25"/>
</g>
<!-- x10 -->
<g id="node26" class="node"><title>x10</title>
<path fill="none" stroke="black" d="M171.279,-1845.8C171.279,-1845.8 210.721,-1845.8 210.721,-1845.8 216.721,-1845.8 222.721,-1851.8 222.721,-1857.8 222.721,-1857.8 222.721,-1869.8 222.721,-1869.8 222.721,-1875.8 216.721,-1881.8 210.721,-1881.8 210.721,-1881.8 171.279,-1881.8 171.279,-1881.8 165.279,-1881.8 159.279,-1875.8 159.279,-1869.8 159.279,-1869.8 159.279,-1857.8 159.279,-1857.8 159.279,-1851.8 165.279,-1845.8 171.279,-1845.8"/>
<text text-anchor="middle" x="191" y="-1859.7" font-family="Times,serif" font-size="14.00">0:0 &#45; 0:0</text>
</g>
<!-- n26&#45;&gt;x10 -->
<g id="edge76" class="edge"><title>n26:e&#45;&gt;x10:s0:w</title>
<path fill="none" stroke="black" d="M82,-1808.8C102,-1808.8 101.806,-1824.06 118,-1835.8 132.277,-1846.15 135.434,-1858.16 147.756,-1862.31"/>
<polygon fill="black" stroke="black" points="147.6,-1865.82 158,-1863.8 148.609,-1858.89 147.6,-1865.82"/>
</g>
<!-- x11 -->
<g id="node28" class="node"><title>x11</title>
<path fill="none" stroke="black" d="M171.279,-1680.8C171.279,-1680.8 210.721,-1680.8 210.721,-1680.8 216.721,-1680.8 222.721,-1686.8 222.721,-1692.8 222.721,-1692.8 222.721,-1704.8 222.721,-1704.8 222.721,-1710.8 216.721,-1716.8 210.721,-1716.8 210.721,-1716.8 171.279,-1716.8 171.279,-1716.8 165.279,-1716.8 159.279,-1710.8 159.279,-1704.8 159.279,-1704.8 159.279,-1692.8 159.279,-1692.8 159.279,-1686.8 165.279,-1680.8 171.279,-1680.8"/>
<text text-anchor="middle" x="191" y="-1694.7" font-family="Times,serif" font-size="14.00">2:2 &#45; 0:0</text>
</g>
<!-- n26&#45;&gt;x11 -->
<g id="edge77" class="edge"><title>n26:e&#45;&gt;x11:s0:w</title>
<path fill="none" stroke="black" d="M82,-1808.8C122.209,-1808.8 92.3078,-1756.73 118,-1725.8 129.242,-1712.27 134.524,-1702.77 147.898,-1699.79"/>
<polygon fill="black" stroke="black" points="148.39,-1703.26 158,-1698.8 147.706,-1696.29 148.39,-1703.26"/>
</g>
<!-- x12 -->
<g id="node30" class="node"><title>x12</title>
<path fill="none" stroke="black" d="M171.279,-799.8C171.279,-799.8 210.721,-799.8 210.721,-799.8 216.721,-799.8 222.721,-805.8 222.721,-811.8 222.721,-811.8 222.721,-823.8 222.721,-823.8 222.721,-829.8 216.721,-835.8 210.721,-835.8 210.721,-835.8 171.279,-835.8 171.279,-835.8 165.279,-835.8 159.279,-829.8 159.279,-823.8 159.279,-823.8 159.279,-811.8 159.279,-811.8 159.279,-805.8 165.279,-799.8 171.279,-799.8"/>
<text text-anchor="middle" x="191" y="-813.7" font-family="Times,serif" font-size="14.00">1:1 &#45; 0:0</text>
</g>
<!-- n26&#45;&gt;x12 -->
<g id="edge78" class="edge"><title>n26:e&#45;&gt;x12:s0:w</title>
<path fill="none" stroke="black" d="M82,-1808.8C135.537,-1808.8 92.3931,-892.816 118,-845.8 126.595,-830.018 133.504,-821.173 147.949,-818.598"/>
<polygon fill="black" stroke="black" points="148.309,-822.081 158,-817.8 147.754,-815.103 148.309,-822.081"/>
</g>
<!-- x13 -->
<g id="node33" class="node"><title>x13</title>
<path fill="none" stroke="black" d="M171.279,-1790.8C171.279,-1790.8 210.721,-1790.8 210.721,-1790.8 216.721,-1790.8 222.721,-1796.8 222.721,-1802.8 222.721,-1802.8 222.721,-1814.8 222.721,-1814.8 222.721,-1820.8 216.721,-1826.8 210.721,-1826.8 210.721,-1826.8 171.279,-1826.8 171.279,-1826.8 165.279,-1826.8 159.279,-1820.8 159.279,-1814.8 159.279,-1814.8 159.279,-1802.8 159.279,-1802.8 159.279,-1796.8 165.279,-1790.8 171.279,-1790.8"/>
<text text-anchor="middle" x="191" y="-1804.7" font-family="Times,serif" font-size="14.00">0:0 &#45; 0:0</text>
</g>
<!-- n26&#45;&gt;x13 -->
<g id="edge79" class="edge"><title>n26:e&#45;&gt;x13:s0:w</title>
<path fill="none" stroke="black" d="M82,-1808.8C112.083,-1808.8 122.072,-1808.8 147.76,-1808.8"/>
<polygon fill="black" stroke="black" points="148,-1812.3 158,-1808.8 148,-1805.3 148,-1812.3"/>
</g>
<!-- x14 -->
<g id="node34" class="node"><title>x14</title>
<path fill="none" stroke="black" d="M171.279,-1735.8C171.279,-1735.8 210.721,-1735.8 210.721,-1735.8 216.721,-1735.8 222.721,-1741.8 222.721,-1747.8 222.721,-1747.8 222.721,-1759.8 222.721,-1759.8 222.721,-1765.8 216.721,-1771.8 210.721,-1771.8 210.721,-1771.8 171.279,-1771.8 171.279,-1771.8 165.279,-1771.8 159.279,-1765.8 159.279,-1759.8 159.279,-1759.8 159.279,-1747.8 159.279,-1747.8 159.279,-1741.8 165.279,-1735.8 171.279,-1735.8"/>
<text text-anchor="middle" x="191" y="-1749.7" font-family="Times,serif" font-size="14.00">1:1 &#45; 0:0</text>
</g>
<!-- n26&#45;&gt;x14 -->
<g id="edge80" class="edge"><title>n26:e&#45;&gt;x14:s0:w</title>
<path fill="none" stroke="black" d="M82,-1808.8C102.27,-1808.8 101.59,-1792.7 118,-1780.8 132.108,-1770.57 135.537,-1759.14 147.832,-1755.21"/>
<polygon fill="black" stroke="black" points="148.577,-1758.64 158,-1753.8 147.613,-1751.71 148.577,-1758.64"/>
</g>
<!-- x15 -->
<g id="node37" class="node"><title>x15</title>
<path fill="none" stroke="black" d="M171.279,-606.8C171.279,-606.8 210.721,-606.8 210.721,-606.8 216.721,-606.8 222.721,-612.8 222.721,-618.8 222.721,-618.8 222.721,-630.8 222.721,-630.8 222.721,-636.8 216.721,-642.8 210.721,-642.8 210.721,-642.8 171.279,-642.8 171.279,-642.8 165.279,-642.8 159.279,-636.8 159.279,-630.8 159.279,-630.8 159.279,-618.8 159.279,-618.8 159.279,-612.8 165.279,-606.8 171.279,-606.8"/>
<text text-anchor="middle" x="191" y="-620.7" font-family="Times,serif" font-size="14.00">1:1 &#45; 0:0</text>
</g>
<!-- n26&#45;&gt;x15 -->
<g id="edge81" class="edge"><title>n26:e&#45;&gt;x15:s0:w</title>
<path fill="none" stroke="black" d="M82,-1808.8C144.643,-1808.8 98.1806,-741.225 118,-681.8 126.568,-656.111 127.072,-631.737 147.797,-626.045"/>
<polygon fill="black" stroke="black" points="148.498,-629.486 158,-624.8 147.65,-622.537 148.498,-629.486"/>
</g>
<!-- x20 -->
<g id="node49" class="node"><title>x20</title>
<path fill="none" stroke="black" d="M171.279,-2777.8C171.279,-2777.8 210.721,-2777.8 210.721,-2777.8 216.721,-2777.8 222.721,-2783.8 222.721,-2789.8 222.721,-2789.8 222.721,-2801.8 222.721,-2801.8 222.721,-2807.8 216.721,-2813.8 210.721,-2813.8 210.721,-2813.8 171.279,-2813.8 171.279,-2813.8 165.279,-2813.8 159.279,-2807.8 159.279,-2801.8 159.279,-2801.8 159.279,-2789.8 159.279,-2789.8 159.279,-2783.8 165.279,-2777.8 171.279,-2777.8"/>
<text text-anchor="middle" x="191" y="-2791.7" font-family="Times,serif" font-size="14.00">0:0 &#45; 0:0</text>
</g>
<!-- n26&#45;&gt;x20 -->
<g id="edge83" class="edge"><title>n26:e&#45;&gt;x20:s0:w</title>
<path fill="none" stroke="black" d="M82,-1808.8C135.315,-1808.8 92.4956,-2720.98 118,-2767.8 126.597,-2783.58 133.505,-2792.43 147.95,-2795"/>
<polygon fill="black" stroke="black" points="147.754,-2798.5 158,-2795.8 148.309,-2791.52 147.754,-2798.5"/>
</g>
<!-- x22 -->
<g id="node52" class="node"><title>x22</title>
<path fill="none" stroke="black" d="M171.279,-2503.8C171.279,-2503.8 210.721,-2503.8 210.721,-2503.8 216.721,-2503.8 222.721,-2509.8 222.721,-2515.8 222.721,-2515.8 222.721,-2527.8 222.721,-2527.8 222.721,-2533.8 216.721,-2539.8 210.721,-2539.8 210.721,-2539.8 171.279,-2539.8 171.279,-2539.8 165.279,-2539.8 159.279,-2533.8 159.279,-2527.8 159.279,-2527.8 159.279,-2515.8 159.279,-2515.8 159.279,-2509.8 165.279,-2503.8 171.279,-2503.8"/>
<text text-anchor="middle" x="191" y="-2517.7" font-family="Times,serif" font-size="14.00">1:1 &#45; 0:0</text>
</g>
<!-- n26&#45;&gt;x22 -->
<g id="edge84" class="edge"><title>n26:e&#45;&gt;x22:s0:w</title>
<path fill="none" stroke="black" d="M82,-1808.8C158.216,-1808.8 81.0402,-2427.15 118,-2493.8 126.715,-2509.52 133.545,-2518.4 147.96,-2521"/>
<polygon fill="black" stroke="black" points="147.752,-2524.49 158,-2521.8 148.311,-2517.51 147.752,-2524.49"/>
</g>
<!-- x24 -->
<g id="node55" class="node"><title>x24</title>
<path fill="none" stroke="black" d="M171.279,-2339.8C171.279,-2339.8 210.721,-2339.8 210.721,-2339.8 216.721,-2339.8 222.721,-2345.8 222.721,-2351.8 222.721,-2351.8 222.721,-2363.8 222.721,-2363.8 222.721,-2369.8 216.721,-2375.8 210.721,-2375.8 210.721,-2375.8 171.279,-2375.8 171.279,-2375.8 165.279,-2375.8 159.279,-2369.8 159.279,-2363.8 159.279,-2363.8 159.279,-2351.8 159.279,-2351.8 159.279,-2345.8 165.279,-2339.8 171.279,-2339.8"/>
<text text-anchor="middle" x="191" y="-2353.7" font-family="Times,serif" font-size="14.00">2:2 &#45; 0:0</text>
</g>
<!-- n26&#45;&gt;x24 -->
<g id="edge85" class="edge"><title>n26:e&#45;&gt;x24:s0:w</title>
<path fill="none" stroke="black" d="M82,-1808.8C140.027,-1808.8 89.4435,-2279.29 118,-2329.8 126.844,-2345.44 133.59,-2354.38 147.971,-2356.99"/>
<polygon fill="black" stroke="black" points="147.75,-2360.48 158,-2357.8 148.315,-2353.51 147.75,-2360.48"/>
</g>
<!-- c30 -->
<g id="node8" class="node"><title>c30</title>
<polygon fill="none" stroke="black" points="311.43,-1579 311.43,-1628.6 430.57,-1628.6 430.57,-1579 311.43,-1579"/>
<text text-anchor="middle" x="328.76" y="-1612" font-family="Times,serif" font-size="14.00">A</text>
<polyline fill="none" stroke="black" points="311.43,-1603.8 346.089,-1603.8 "/>
<text text-anchor="middle" x="328.76" y="-1587.2" font-family="Times,serif" font-size="14.00">ZN</text>
<polyline fill="none" stroke="black" points="346.089,-1579 346.089,-1628.6 "/>
<text text-anchor="middle" x="378.58" y="-1608" font-family="Times,serif" font-size="14.00">$266</text>
<text text-anchor="middle" x="378.58" y="-1591.2" font-family="Times,serif" font-size="14.00">INV_X1</text>
<polyline fill="none" stroke="black" points="411.07,-1579 411.07,-1628.6 "/>
<text text-anchor="middle" x="420.82" y="-1600" font-family="Times,serif" font-size="14.00"> </text>
</g>
<!-- x0&#45;&gt;c30 -->
<g id="edge1" class="edge"><title>x0:e&#45;&gt;c30:p27:w</title>
<path fill="none" stroke="black" d="M236.039,-1642.87C262.112,-1638.62 271.774,-1621.08 297.766,-1616.76"/>
<polygon fill="none" stroke="black" points="235.964,-1642.87 230.291,-1647.33 224,-1643.8 229.673,-1639.35 235.964,-1642.87"/>
<polygon fill="none" stroke="black" points="298.037,-1616.74 303.704,-1612.28 310,-1615.8 304.333,-1620.26 298.037,-1616.74"/>
</g>
<!-- c34 -->
<g id="node10" class="node"><title>c34</title>
<polygon fill="none" stroke="black" points="305.592,-1461.2 305.592,-1560.4 436.408,-1560.4 436.408,-1461.2 305.592,-1461.2"/>
<text text-anchor="middle" x="322.922" y="-1543.8" font-family="Times,serif" font-size="14.00">A1</text>
<polyline fill="none" stroke="black" points="305.592,-1535.6 340.251,-1535.6 "/>
<text text-anchor="middle" x="322.922" y="-1519" font-family="Times,serif" font-size="14.00">A2</text>
<polyline fill="none" stroke="black" points="305.592,-1510.8 340.251,-1510.8 "/>
<text text-anchor="middle" x="322.922" y="-1494.2" font-family="Times,serif" font-size="14.00">A3</text>
<polyline fill="none" stroke="black" points="305.592,-1486 340.251,-1486 "/>
<text text-anchor="middle" x="322.922" y="-1469.4" font-family="Times,serif" font-size="14.00">ZN</text>
<polyline fill="none" stroke="black" points="340.251,-1461.2 340.251,-1560.4 "/>
<text text-anchor="middle" x="378.58" y="-1515" font-family="Times,serif" font-size="14.00">$267</text>
<text text-anchor="middle" x="378.58" y="-1498.2" font-family="Times,serif" font-size="14.00">NOR3_X1</text>
<polyline fill="none" stroke="black" points="416.908,-1461.2 416.908,-1560.4 "/>
<text text-anchor="middle" x="426.658" y="-1506.8" font-family="Times,serif" font-size="14.00"> </text>
</g>
<!-- x1&#45;&gt;c34 -->
<g id="edge2" class="edge"><title>x1:e&#45;&gt;c34:p31:w</title>
<path fill="none" stroke="black" d="M236.287,-1587.34C261.351,-1580.95 267.769,-1555.47 292.95,-1549.2"/>
<polygon fill="none" stroke="black" points="235.916,-1587.38 230.43,-1592.06 224,-1588.8 229.486,-1584.12 235.916,-1587.38"/>
<polygon fill="none" stroke="black" points="293.08,-1549.18 298.579,-1544.52 305,-1547.8 299.502,-1552.47 293.08,-1549.18"/>
</g>
<!-- x2&#45;&gt;c34 -->
<g id="edge3" class="edge"><title>x2:e&#45;&gt;c34:p33:w</title>
<path fill="none" stroke="black" d="M236.248,-1479.61C259.498,-1482.84 269.555,-1494.79 292.838,-1498"/>
<polygon fill="none" stroke="black" points="235.974,-1479.59 229.723,-1483.19 224,-1478.8 230.251,-1475.2 235.974,-1479.59"/>
<polygon fill="none" stroke="black" points="293.026,-1498.02 299.274,-1494.42 305,-1498.8 298.751,-1502.4 293.026,-1498.02"/>
</g>
<!-- c35 -->
<g id="node13" class="node"><title>c35</title>
<polygon fill="none" stroke="black" points="310.646,-1343.2 310.646,-1442.4 431.354,-1442.4 431.354,-1343.2 310.646,-1343.2"/>
<text text-anchor="middle" x="327.975" y="-1425.8" font-family="Times,serif" font-size="14.00">A1</text>
<polyline fill="none" stroke="black" points="310.646,-1417.6 345.305,-1417.6 "/>
<text text-anchor="middle" x="327.975" y="-1401" font-family="Times,serif" font-size="14.00">A2</text>
<polyline fill="none" stroke="black" points="310.646,-1392.8 345.305,-1392.8 "/>
<text text-anchor="middle" x="327.975" y="-1376.2" font-family="Times,serif" font-size="14.00">A3</text>
<polyline fill="none" stroke="black" points="310.646,-1368 345.305,-1368 "/>
<text text-anchor="middle" x="327.975" y="-1351.4" font-family="Times,serif" font-size="14.00">ZN</text>
<polyline fill="none" stroke="black" points="345.305,-1343.2 345.305,-1442.4 "/>
<text text-anchor="middle" x="378.58" y="-1397" font-family="Times,serif" font-size="14.00">$268</text>
<text text-anchor="middle" x="378.58" y="-1380.2" font-family="Times,serif" font-size="14.00">OR3_X1</text>
<polyline fill="none" stroke="black" points="411.854,-1343.2 411.854,-1442.4 "/>
<text text-anchor="middle" x="421.604" y="-1388.8" font-family="Times,serif" font-size="14.00"> </text>
</g>
<!-- x3&#45;&gt;c35 -->
<g id="edge4" class="edge"><title>x3:e&#45;&gt;c35:p31:w</title>
<path fill="none" stroke="black" d="M236.371,-1424.03C261.23,-1424.98 272.983,-1428.65 297.958,-1429.58"/>
<polygon fill="none" stroke="black" points="235.998,-1424.02 229.925,-1427.91 224,-1423.8 230.073,-1419.91 235.998,-1424.02"/>
<polygon fill="none" stroke="black" points="298.002,-1429.59 304.073,-1425.69 310,-1429.8 303.929,-1433.69 298.002,-1429.59"/>
</g>
<!-- x4&#45;&gt;c35 -->
<g id="edge5" class="edge"><title>x4:e&#45;&gt;c35:p33:w</title>
<path fill="none" stroke="black" d="M236.056,-1369.23C261.244,-1371.09 272.692,-1378.49 297.844,-1380.37"/>
<polygon fill="none" stroke="black" points="235.992,-1369.22 229.855,-1373.01 224,-1368.8 230.138,-1365.01 235.992,-1369.22"/>
<polygon fill="none" stroke="black" points="298.008,-1380.37 304.147,-1376.59 310,-1380.8 303.861,-1384.58 298.008,-1380.37"/>
</g>
<!-- c36 -->
<g id="node16" class="node"><title>c36</title>
<polygon fill="none" stroke="black" points="305.592,-2164.6 305.592,-2239 436.408,-2239 436.408,-2164.6 305.592,-2164.6"/>
<text text-anchor="middle" x="322.922" y="-2222.4" font-family="Times,serif" font-size="14.00">A1</text>
<polyline fill="none" stroke="black" points="305.592,-2214.2 340.251,-2214.2 "/>
<text text-anchor="middle" x="322.922" y="-2197.6" font-family="Times,serif" font-size="14.00">A2</text>
<polyline fill="none" stroke="black" points="305.592,-2189.4 340.251,-2189.4 "/>
<text text-anchor="middle" x="322.922" y="-2172.8" font-family="Times,serif" font-size="14.00">ZN</text>
<polyline fill="none" stroke="black" points="340.251,-2164.6 340.251,-2239 "/>
<text text-anchor="middle" x="378.58" y="-2206" font-family="Times,serif" font-size="14.00">$269</text>
<text text-anchor="middle" x="378.58" y="-2189.2" font-family="Times,serif" font-size="14.00">NOR2_X1</text>
<polyline fill="none" stroke="black" points="416.908,-2164.6 416.908,-2239 "/>
<text text-anchor="middle" x="426.658" y="-2197.9" font-family="Times,serif" font-size="14.00"> </text>
</g>
<!-- x5&#45;&gt;c36 -->
<g id="edge6" class="edge"><title>x5:e&#45;&gt;c36:p31:w</title>
<path fill="none" stroke="black" d="M236.274,-2246.95C259.555,-2243.56 269.498,-2231.01 292.812,-2227.64"/>
<polygon fill="none" stroke="black" points="235.971,-2246.97 230.262,-2251.38 224,-2247.8 229.71,-2243.4 235.971,-2246.97"/>
<polygon fill="none" stroke="black" points="293.028,-2227.62 298.74,-2223.22 305,-2226.8 299.288,-2231.2 293.028,-2227.62"/>
</g>
<!-- x6&#45;&gt;c36 -->
<g id="edge7" class="edge"><title>x6:e&#45;&gt;c36:p32:w</title>
<path fill="none" stroke="black" d="M236.04,-2193.16C258.951,-2194.61 269.901,-2199.95 292.733,-2201.42"/>
<polygon fill="none" stroke="black" points="235.995,-2193.16 229.876,-2196.98 224,-2192.8 230.118,-2188.98 235.995,-2193.16"/>
<polygon fill="none" stroke="black" points="293.006,-2201.43 299.126,-2197.62 305,-2201.8 298.879,-2205.61 293.006,-2201.43"/>
</g>
<!-- c37 -->
<g id="node19" class="node"><title>c37</title>
<polygon fill="none" stroke="black" points="300.154,-1952.6 300.154,-2027 441.846,-2027 441.846,-1952.6 300.154,-1952.6"/>
<text text-anchor="middle" x="317.483" y="-2010.4" font-family="Times,serif" font-size="14.00">A1</text>
<polyline fill="none" stroke="black" points="300.154,-2002.2 334.813,-2002.2 "/>
<text text-anchor="middle" x="317.483" y="-1985.6" font-family="Times,serif" font-size="14.00">A2</text>
<polyline fill="none" stroke="black" points="300.154,-1977.4 334.813,-1977.4 "/>
<text text-anchor="middle" x="317.483" y="-1960.8" font-family="Times,serif" font-size="14.00">ZN</text>
<polyline fill="none" stroke="black" points="334.813,-1952.6 334.813,-2027 "/>
<text text-anchor="middle" x="378.58" y="-1994" font-family="Times,serif" font-size="14.00">$270</text>
<text text-anchor="middle" x="378.58" y="-1977.2" font-family="Times,serif" font-size="14.00">NAND2_X1</text>
<polyline fill="none" stroke="black" points="422.346,-1952.6 422.346,-2027 "/>
<text text-anchor="middle" x="432.096" y="-1985.9" font-family="Times,serif" font-size="14.00"> </text>
</g>
<!-- c39 -->
<g id="node21" class="node"><title>c39</title>
<polygon fill="none" stroke="black" points="305.207,-2046.2 305.207,-2145.4 436.793,-2145.4 436.793,-2046.2 305.207,-2046.2"/>
<text text-anchor="middle" x="322.537" y="-2128.8" font-family="Times,serif" font-size="14.00">A1</text>
<polyline fill="none" stroke="black" points="305.207,-2120.6 339.866,-2120.6 "/>
<text text-anchor="middle" x="322.537" y="-2104" font-family="Times,serif" font-size="14.00">A2</text>
<polyline fill="none" stroke="black" points="305.207,-2095.8 339.866,-2095.8 "/>
<text text-anchor="middle" x="322.537" y="-2079.2" font-family="Times,serif" font-size="14.00">A3</text>
<polyline fill="none" stroke="black" points="305.207,-2071 339.866,-2071 "/>
<text text-anchor="middle" x="322.537" y="-2054.4" font-family="Times,serif" font-size="14.00">ZN</text>
<polyline fill="none" stroke="black" points="339.866,-2046.2 339.866,-2145.4 "/>
<text text-anchor="middle" x="378.58" y="-2100" font-family="Times,serif" font-size="14.00">$272</text>
<text text-anchor="middle" x="378.58" y="-2083.2" font-family="Times,serif" font-size="14.00">AND3_X1</text>
<polyline fill="none" stroke="black" points="417.293,-2046.2 417.293,-2145.4 "/>
<text text-anchor="middle" x="427.043" y="-2091.8" font-family="Times,serif" font-size="14.00"> </text>
</g>
<!-- x7&#45;&gt;c39 -->
<g id="edge8" class="edge"><title>x7:e&#45;&gt;c39:p31:w</title>
<path fill="none" stroke="black" d="M236.205,-2137.59C258.572,-2136.76 269.543,-2133.82 291.97,-2133.01"/>
<polygon fill="none" stroke="black" points="235.998,-2137.59 230.07,-2141.69 224,-2137.8 229.929,-2133.69 235.998,-2137.59"/>
<polygon fill="none" stroke="black" points="292.002,-2133.01 297.932,-2128.9 304,-2132.8 298.07,-2136.9 292.002,-2133.01"/>
</g>
<!-- x8&#45;&gt;c39 -->
<g id="edge9" class="edge"><title>x8:e&#45;&gt;c39:p32:w</title>
<path fill="none" stroke="black" d="M236.249,-2083.81C259.384,-2087.85 268.667,-2102.79 291.837,-2106.8"/>
<polygon fill="none" stroke="black" points="235.959,-2083.79 229.651,-2087.28 224,-2082.8 230.309,-2079.31 235.959,-2083.79"/>
<polygon fill="none" stroke="black" points="292.04,-2106.82 298.347,-2103.32 304,-2107.8 297.693,-2111.3 292.04,-2106.82"/>
</g>
<!-- c40 -->
<g id="node24" class="node"><title>c40</title>
<polygon fill="none" stroke="black" points="305.592,-1859.6 305.592,-1934 436.408,-1934 436.408,-1859.6 305.592,-1859.6"/>
<text text-anchor="middle" x="322.922" y="-1917.4" font-family="Times,serif" font-size="14.00">A1</text>
<polyline fill="none" stroke="black" points="305.592,-1909.2 340.251,-1909.2 "/>
<text text-anchor="middle" x="322.922" y="-1892.6" font-family="Times,serif" font-size="14.00">A2</text>
<polyline fill="none" stroke="black" points="305.592,-1884.4 340.251,-1884.4 "/>
<text text-anchor="middle" x="322.922" y="-1867.8" font-family="Times,serif" font-size="14.00">ZN</text>
<polyline fill="none" stroke="black" points="340.251,-1859.6 340.251,-1934 "/>
<text text-anchor="middle" x="378.58" y="-1901" font-family="Times,serif" font-size="14.00">$273</text>
<text text-anchor="middle" x="378.58" y="-1884.2" font-family="Times,serif" font-size="14.00">NOR2_X1</text>
<polyline fill="none" stroke="black" points="416.908,-1859.6 416.908,-1934 "/>
<text text-anchor="middle" x="426.658" y="-1892.9" font-family="Times,serif" font-size="14.00"> </text>
</g>
<!-- x9&#45;&gt;c40 -->
<g id="edge10" class="edge"><title>x9:e&#45;&gt;c40:p31:w</title>
<path fill="none" stroke="black" d="M236.346,-1918.93C258.981,-1919.42 270.135,-1921.19 292.831,-1921.67"/>
<polygon fill="none" stroke="black" points="235.999,-1918.93 229.958,-1922.86 224,-1918.8 230.041,-1914.86 235.999,-1918.93"/>
<polygon fill="none" stroke="black" points="293.001,-1921.68 299.041,-1917.74 305,-1921.8 298.959,-1925.74 293.001,-1921.68"/>
</g>
<!-- x10&#45;&gt;c40 -->
<g id="edge11" class="edge"><title>x10:e&#45;&gt;c40:p32:w</title>
<path fill="none" stroke="black" d="M235.943,-1864.97C260.442,-1870.1 268.504,-1890.44 292.96,-1895.61"/>
<polygon fill="none" stroke="black" points="235.942,-1864.97 229.58,-1868.37 224,-1863.8 230.363,-1860.41 235.942,-1864.97"/>
<polygon fill="none" stroke="black" points="293.059,-1895.61 299.424,-1892.23 305,-1896.8 298.634,-1900.19 293.059,-1895.61"/>
</g>
<!-- c41 -->
<g id="node27" class="node"><title>c41</title>
<polygon fill="none" stroke="black" points="300.154,-1647.6 300.154,-1722 441.846,-1722 441.846,-1647.6 300.154,-1647.6"/>
<text text-anchor="middle" x="317.483" y="-1705.4" font-family="Times,serif" font-size="14.00">A1</text>
<polyline fill="none" stroke="black" points="300.154,-1697.2 334.813,-1697.2 "/>
<text text-anchor="middle" x="317.483" y="-1680.6" font-family="Times,serif" font-size="14.00">A2</text>
<polyline fill="none" stroke="black" points="300.154,-1672.4 334.813,-1672.4 "/>
<text text-anchor="middle" x="317.483" y="-1655.8" font-family="Times,serif" font-size="14.00">ZN</text>
<polyline fill="none" stroke="black" points="334.813,-1647.6 334.813,-1722 "/>
<text text-anchor="middle" x="378.58" y="-1689" font-family="Times,serif" font-size="14.00">$274</text>
<text text-anchor="middle" x="378.58" y="-1672.2" font-family="Times,serif" font-size="14.00">NAND2_X1</text>
<polyline fill="none" stroke="black" points="422.346,-1647.6 422.346,-1722 "/>
<text text-anchor="middle" x="432.096" y="-1680.9" font-family="Times,serif" font-size="14.00"> </text>
</g>
<!-- x11&#45;&gt;c41 -->
<g id="edge12" class="edge"><title>x11:e&#45;&gt;c41:p31:w</title>
<path fill="none" stroke="black" d="M235.996,-1699.3C256.917,-1701.13 267.061,-1707.46 287.97,-1709.3"/>
<polygon fill="none" stroke="black" points="235.99,-1699.3 229.828,-1703.05 224,-1698.8 230.162,-1695.05 235.99,-1699.3"/>
<polygon fill="none" stroke="black" points="288.011,-1709.3 294.173,-1705.55 300,-1709.8 293.838,-1713.55 288.011,-1709.3"/>
</g>
<!-- c44 -->
<g id="node29" class="node"><title>c44</title>
<polygon fill="none" stroke="black" points="304.43,-870.2 304.43,-969.4 437.57,-969.4 437.57,-870.2 304.43,-870.2"/>
<text text-anchor="middle" x="321.76" y="-952.8" font-family="Times,serif" font-size="14.00">A</text>
<polyline fill="none" stroke="black" points="304.43,-944.6 339.089,-944.6 "/>
<text text-anchor="middle" x="321.76" y="-928" font-family="Times,serif" font-size="14.00">B1</text>
<polyline fill="none" stroke="black" points="304.43,-919.8 339.089,-919.8 "/>
<text text-anchor="middle" x="321.76" y="-903.2" font-family="Times,serif" font-size="14.00">B2</text>
<polyline fill="none" stroke="black" points="304.43,-895 339.089,-895 "/>
<text text-anchor="middle" x="321.76" y="-878.4" font-family="Times,serif" font-size="14.00">ZN</text>
<polyline fill="none" stroke="black" points="339.089,-870.2 339.089,-969.4 "/>
<text text-anchor="middle" x="378.58" y="-924" font-family="Times,serif" font-size="14.00">$275</text>
<text text-anchor="middle" x="378.58" y="-907.2" font-family="Times,serif" font-size="14.00">AOI21_X1</text>
<polyline fill="none" stroke="black" points="418.07,-870.2 418.07,-969.4 "/>
<text text-anchor="middle" x="427.82" y="-915.8" font-family="Times,serif" font-size="14.00"> </text>
</g>
<!-- x12&#45;&gt;c44 -->
<g id="edge13" class="edge"><title>x12:e&#45;&gt;c44:p43:w</title>
<path fill="none" stroke="black" d="M235.919,-819.471C247.717,-823.338 252.311,-833.521 264,-845.8 282.938,-865.694 274.507,-896.156 290.965,-905.189"/>
<polygon fill="none" stroke="black" points="235.884,-819.466 229.387,-822.594 224,-817.8 230.497,-814.672 235.884,-819.466"/>
<polygon fill="none" stroke="black" points="291.273,-905.256 297.984,-902.619 303,-907.8 296.288,-910.437 291.273,-905.256"/>
</g>
<!-- c46 -->
<g id="node31" class="node"><title>c46</title>
<polygon fill="none" stroke="black" points="305.207,-1131.8 305.207,-1255.8 436.793,-1255.8 436.793,-1131.8 305.207,-1131.8"/>
<text text-anchor="middle" x="322.537" y="-1239.2" font-family="Times,serif" font-size="14.00">A1</text>
<polyline fill="none" stroke="black" points="305.207,-1231 339.866,-1231 "/>
<text text-anchor="middle" x="322.537" y="-1214.4" font-family="Times,serif" font-size="14.00">A2</text>
<polyline fill="none" stroke="black" points="305.207,-1206.2 339.866,-1206.2 "/>
<text text-anchor="middle" x="322.537" y="-1189.6" font-family="Times,serif" font-size="14.00">A3</text>
<polyline fill="none" stroke="black" points="305.207,-1181.4 339.866,-1181.4 "/>
<text text-anchor="middle" x="322.537" y="-1164.8" font-family="Times,serif" font-size="14.00">A4</text>
<polyline fill="none" stroke="black" points="305.207,-1156.6 339.866,-1156.6 "/>
<text text-anchor="middle" x="322.537" y="-1140" font-family="Times,serif" font-size="14.00">ZN</text>
<polyline fill="none" stroke="black" points="339.866,-1131.8 339.866,-1255.8 "/>
<text text-anchor="middle" x="378.58" y="-1198" font-family="Times,serif" font-size="14.00">$276</text>
<text text-anchor="middle" x="378.58" y="-1181.2" font-family="Times,serif" font-size="14.00">AND4_X1</text>
<polyline fill="none" stroke="black" points="417.293,-1131.8 417.293,-1255.8 "/>
<text text-anchor="middle" x="427.043" y="-1189.7" font-family="Times,serif" font-size="14.00"> </text>
</g>
<!-- c47 -->
<g id="node32" class="node"><title>c47</title>
<polygon fill="none" stroke="black" points="305.592,-1741.2 305.592,-1840.4 436.408,-1840.4 436.408,-1741.2 305.592,-1741.2"/>
<text text-anchor="middle" x="322.922" y="-1823.8" font-family="Times,serif" font-size="14.00">A1</text>
<polyline fill="none" stroke="black" points="305.592,-1815.6 340.251,-1815.6 "/>
<text text-anchor="middle" x="322.922" y="-1799" font-family="Times,serif" font-size="14.00">A2</text>
<polyline fill="none" stroke="black" points="305.592,-1790.8 340.251,-1790.8 "/>
<text text-anchor="middle" x="322.922" y="-1774.2" font-family="Times,serif" font-size="14.00">A3</text>
<polyline fill="none" stroke="black" points="305.592,-1766 340.251,-1766 "/>
<text text-anchor="middle" x="322.922" y="-1749.4" font-family="Times,serif" font-size="14.00">ZN</text>
<polyline fill="none" stroke="black" points="340.251,-1741.2 340.251,-1840.4 "/>
<text text-anchor="middle" x="378.58" y="-1795" font-family="Times,serif" font-size="14.00">$277</text>
<text text-anchor="middle" x="378.58" y="-1778.2" font-family="Times,serif" font-size="14.00">NOR3_X1</text>
<polyline fill="none" stroke="black" points="416.908,-1741.2 416.908,-1840.4 "/>
<text text-anchor="middle" x="426.658" y="-1786.8" font-family="Times,serif" font-size="14.00"> </text>
</g>
<!-- x13&#45;&gt;c47 -->
<g id="edge14" class="edge"><title>x13:e&#45;&gt;c47:p31:w</title>
<path fill="none" stroke="black" d="M236.223,-1809.57C259.445,-1812.64 269.609,-1823.99 292.863,-1827.04"/>
<polygon fill="none" stroke="black" points="235.976,-1809.55 229.737,-1813.17 224,-1808.8 230.239,-1805.18 235.976,-1809.55"/>
<polygon fill="none" stroke="black" points="293.023,-1827.05 299.261,-1823.43 305,-1827.8 298.763,-1831.42 293.023,-1827.05"/>
</g>
<!-- x14&#45;&gt;c47 -->
<g id="edge15" class="edge"><title>x14:e&#45;&gt;c47:p32:w</title>
<path fill="none" stroke="black" d="M235.91,-1755.32C262.28,-1762.59 266.593,-1793.76 292.804,-1801.2"/>
<polygon fill="none" stroke="black" points="235.903,-1755.32 229.445,-1758.53 224,-1753.8 230.458,-1750.59 235.903,-1755.32"/>
<polygon fill="none" stroke="black" points="293.102,-1801.24 299.571,-1798.05 305,-1802.8 298.531,-1805.99 293.102,-1801.24"/>
</g>
<!-- c48 -->
<g id="node35" class="node"><title>c48</title>
<polygon fill="none" stroke="black" points="305.592,-24.6 305.592,-99 436.408,-99 436.408,-24.6 305.592,-24.6"/>
<text text-anchor="middle" x="322.922" y="-82.4" font-family="Times,serif" font-size="14.00">A1</text>
<polyline fill="none" stroke="black" points="305.592,-74.2 340.251,-74.2 "/>
<text text-anchor="middle" x="322.922" y="-57.6" font-family="Times,serif" font-size="14.00">A2</text>
<polyline fill="none" stroke="black" points="305.592,-49.4 340.251,-49.4 "/>
<text text-anchor="middle" x="322.922" y="-32.8" font-family="Times,serif" font-size="14.00">ZN</text>
<polyline fill="none" stroke="black" points="340.251,-24.6 340.251,-99 "/>
<text text-anchor="middle" x="378.58" y="-66" font-family="Times,serif" font-size="14.00">$278</text>
<text text-anchor="middle" x="378.58" y="-49.2" font-family="Times,serif" font-size="14.00">NOR2_X1</text>
<polyline fill="none" stroke="black" points="416.908,-24.6 416.908,-99 "/>
<text text-anchor="middle" x="426.658" y="-57.9" font-family="Times,serif" font-size="14.00"> </text>
</g>
<!-- x15&#45;&gt;c49 -->
<g id="edge16" class="edge"><title>x15:e&#45;&gt;c49:p42:w</title>
<path fill="none" stroke="black" d="M236.043,-623.87C258.727,-620.172 268.136,-606.531 290.732,-602.767"/>
<polygon fill="none" stroke="black" points="235.964,-623.876 230.29,-628.326 224,-624.8 229.674,-620.35 235.964,-623.876"/>
<polygon fill="none" stroke="black" points="291.037,-602.743 296.704,-598.284 303,-601.8 297.333,-606.259 291.037,-602.743"/>
</g>
<!-- c50 -->
<g id="node38" class="node"><title>c50</title>
<polygon fill="none" stroke="black" points="305.592,-118.2 305.592,-217.4 436.408,-217.4 436.408,-118.2 305.592,-118.2"/>
<text text-anchor="middle" x="322.922" y="-200.8" font-family="Times,serif" font-size="14.00">A1</text>
<polyline fill="none" stroke="black" points="305.592,-192.6 340.251,-192.6 "/>
<text text-anchor="middle" x="322.922" y="-176" font-family="Times,serif" font-size="14.00">A2</text>
<polyline fill="none" stroke="black" points="305.592,-167.8 340.251,-167.8 "/>
<text text-anchor="middle" x="322.922" y="-151.2" font-family="Times,serif" font-size="14.00">A3</text>
<polyline fill="none" stroke="black" points="305.592,-143 340.251,-143 "/>
<text text-anchor="middle" x="322.922" y="-126.4" font-family="Times,serif" font-size="14.00">ZN</text>
<polyline fill="none" stroke="black" points="340.251,-118.2 340.251,-217.4 "/>
<text text-anchor="middle" x="378.58" y="-172" font-family="Times,serif" font-size="14.00">$280</text>
<text text-anchor="middle" x="378.58" y="-155.2" font-family="Times,serif" font-size="14.00">NOR3_X1</text>
<polyline fill="none" stroke="black" points="416.908,-118.2 416.908,-217.4 "/>
<text text-anchor="middle" x="426.658" y="-163.8" font-family="Times,serif" font-size="14.00"> </text>
</g>
<!-- x16&#45;&gt;c50 -->
<g id="edge17" class="edge"><title>x16:e&#45;&gt;c50:p28:w</title>
<path fill="none" stroke="black" d="M236.134,-145.193C259.256,-142.771 269.798,-133.804 292.951,-131.398"/>
<polygon fill="none" stroke="black" points="235.985,-145.201 230.192,-149.495 224,-145.8 229.793,-141.505 235.985,-145.201"/>
<polygon fill="none" stroke="black" points="293.015,-131.395 298.809,-127.102 305,-130.8 299.206,-135.092 293.015,-131.395"/>
</g>
<!-- x17&#45;&gt;c55 -->
<g id="edge18" class="edge"><title>x17:e&#45;&gt;c55:p28:w</title>
<path fill="none" stroke="black" d="M235.944,-1088.15C247.793,-1084.33 252.486,-1074.24 264,-1061.8 281.872,-1042.48 273.023,-1012.84 288.027,-1003.63"/>
<polygon fill="none" stroke="black" points="235.888,-1088.16 230.49,-1092.94 224,-1089.8 229.397,-1085.02 235.888,-1088.16"/>
<polygon fill="none" stroke="black" points="288.321,-1003.56 293.241,-998.286 300,-1000.8 295.08,-1006.07 288.321,-1003.56"/>
</g>
<!-- c56 -->
<g id="node43" class="node"><title>c56</title>
<polygon fill="none" stroke="black" points="304.43,-236.2 304.43,-335.4 437.57,-335.4 437.57,-236.2 304.43,-236.2"/>
<text text-anchor="middle" x="321.76" y="-318.8" font-family="Times,serif" font-size="14.00">A</text>
<polyline fill="none" stroke="black" points="304.43,-310.6 339.089,-310.6 "/>
<text text-anchor="middle" x="321.76" y="-294" font-family="Times,serif" font-size="14.00">B1</text>
<polyline fill="none" stroke="black" points="304.43,-285.8 339.089,-285.8 "/>
<text text-anchor="middle" x="321.76" y="-269.2" font-family="Times,serif" font-size="14.00">B2</text>
<polyline fill="none" stroke="black" points="304.43,-261 339.089,-261 "/>
<text text-anchor="middle" x="321.76" y="-244.4" font-family="Times,serif" font-size="14.00">ZN</text>
<polyline fill="none" stroke="black" points="339.089,-236.2 339.089,-335.4 "/>
<text text-anchor="middle" x="378.58" y="-290" font-family="Times,serif" font-size="14.00">$283</text>
<text text-anchor="middle" x="378.58" y="-273.2" font-family="Times,serif" font-size="14.00">OAI21_X1</text>
<polyline fill="none" stroke="black" points="418.07,-236.2 418.07,-335.4 "/>
<text text-anchor="middle" x="427.82" y="-281.8" font-family="Times,serif" font-size="14.00"> </text>
</g>
<!-- c58 -->
<g id="node45" class="node"><title>c58</title>
<polygon fill="none" stroke="black" points="304.43,-354.2 304.43,-453.4 437.57,-453.4 437.57,-354.2 304.43,-354.2"/>
<text text-anchor="middle" x="321.76" y="-436.8" font-family="Times,serif" font-size="14.00">A</text>
<polyline fill="none" stroke="black" points="304.43,-428.6 339.089,-428.6 "/>
<text text-anchor="middle" x="321.76" y="-412" font-family="Times,serif" font-size="14.00">B1</text>
<polyline fill="none" stroke="black" points="304.43,-403.8 339.089,-403.8 "/>
<text text-anchor="middle" x="321.76" y="-387.2" font-family="Times,serif" font-size="14.00">B2</text>
<polyline fill="none" stroke="black" points="304.43,-379 339.089,-379 "/>
<text text-anchor="middle" x="321.76" y="-362.4" font-family="Times,serif" font-size="14.00">ZN</text>
<polyline fill="none" stroke="black" points="339.089,-354.2 339.089,-453.4 "/>
<text text-anchor="middle" x="378.58" y="-408" font-family="Times,serif" font-size="14.00">$285</text>
<text text-anchor="middle" x="378.58" y="-391.2" font-family="Times,serif" font-size="14.00">AOI21_X1</text>
<polyline fill="none" stroke="black" points="418.07,-354.2 418.07,-453.4 "/>
<text text-anchor="middle" x="427.82" y="-399.8" font-family="Times,serif" font-size="14.00"> </text>
</g>
<!-- x18&#45;&gt;c58 -->
<g id="edge19" class="edge"><title>x18:e&#45;&gt;c58:p28:w</title>
<path fill="none" stroke="black" d="M236.119,-377.327C258.176,-375.526 268.74,-369.103 290.752,-367.283"/>
<polygon fill="none" stroke="black" points="235.991,-377.332 230.151,-381.563 224,-377.8 229.84,-373.569 235.991,-377.332"/>
<polygon fill="none" stroke="black" points="291.009,-367.273 296.847,-363.04 303,-366.8 297.162,-371.034 291.009,-367.273"/>
</g>
<!-- x19&#45;&gt;c64 -->
<g id="edge20" class="edge"><title>x19:e&#45;&gt;c64:p60:w</title>
<path fill="none" stroke="black" d="M236.003,-2740.6C258.872,-2739.79 269.979,-2736.83 292.77,-2736.01"/>
<polygon fill="none" stroke="black" points="235.998,-2740.6 230.067,-2744.7 224,-2740.8 229.932,-2736.7 235.998,-2740.6"/>
<polygon fill="none" stroke="black" points="293.002,-2736.01 298.932,-2731.9 305,-2735.8 299.07,-2739.9 293.002,-2736.01"/>
</g>
<!-- x20&#45;&gt;c64 -->
<g id="edge21" class="edge"><title>x20:e&#45;&gt;c64:p61:w</title>
<path fill="none" stroke="black" d="M236.213,-2793.96C247.641,-2789.89 252.056,-2779.59 264,-2767.8 282.564,-2749.47 276.935,-2721.96 292.817,-2713.42"/>
<polygon fill="none" stroke="black" points="235.865,-2794.01 230.53,-2798.86 224,-2795.8 229.335,-2790.95 235.865,-2794.01"/>
<polygon fill="none" stroke="black" points="293.268,-2713.32 298.293,-2708.15 305,-2710.8 299.975,-2715.97 293.268,-2713.32"/>
</g>
<!-- x21&#45;&gt;c65 -->
<g id="edge22" class="edge"><title>x21:e&#45;&gt;c65:p60:w</title>
<path fill="none" stroke="black" d="M236.199,-2575.66C260.176,-2570.91 268.821,-2552.69 292.796,-2547.94"/>
<polygon fill="none" stroke="black" points="235.948,-2575.68 230.346,-2580.22 224,-2576.8 229.602,-2572.26 235.948,-2575.68"/>
<polygon fill="none" stroke="black" points="293.052,-2547.92 298.654,-2543.38 305,-2546.8 299.398,-2551.34 293.052,-2547.92"/>
</g>
<!-- x22&#45;&gt;c65 -->
<g id="edge23" class="edge"><title>x22:e&#45;&gt;c65:p61:w</title>
<path fill="none" stroke="black" d="M236.34,-2521.8C258.969,-2521.8 270.148,-2521.8 292.837,-2521.8"/>
<polygon fill="none" stroke="black" points="236,-2521.8 230,-2525.8 224,-2521.8 230,-2517.8 236,-2521.8"/>
<polygon fill="none" stroke="black" points="293,-2521.8 299,-2517.8 305,-2521.8 299,-2525.8 293,-2521.8"/>
</g>
<!-- x23&#45;&gt;c66 -->
<g id="edge24" class="edge"><title>x23:e&#45;&gt;c66:p60:w</title>
<path fill="none" stroke="black" d="M236.086,-2304.58C247.418,-2308.51 251.896,-2318.46 264,-2329.8 281.994,-2346.67 277.879,-2371.94 292.847,-2380.14"/>
<polygon fill="none" stroke="black" points="235.872,-2304.55 229.352,-2307.63 224,-2302.8 230.519,-2299.72 235.872,-2304.55"/>
<polygon fill="none" stroke="black" points="293.278,-2380.23 299.996,-2377.61 305,-2382.8 298.283,-2385.42 293.278,-2380.23"/>
</g>
<!-- x24&#45;&gt;c66 -->
<g id="edge25" class="edge"><title>x24:e&#45;&gt;c66:p61:w</title>
<path fill="none" stroke="black" d="M236.34,-2357.8C258.969,-2357.8 270.148,-2357.8 292.837,-2357.8"/>
<polygon fill="none" stroke="black" points="236,-2357.8 230,-2361.8 224,-2357.8 230,-2353.8 236,-2357.8"/>
<polygon fill="none" stroke="black" points="293,-2357.8 299,-2353.8 305,-2357.8 299,-2361.8 293,-2357.8"/>
</g>
<!-- n1 -->
<g id="node56" class="node"><title>n1</title>
<polygon fill="none" stroke="black" points="191,-2045.8 125.156,-2027.8 191,-2009.8 256.844,-2027.8 191,-2045.8"/>
<text text-anchor="middle" x="191" y="-2023.6" font-family="Times,serif" font-size="14.00">$new_n9</text>
</g>
<!-- n1&#45;&gt;c37 -->
<g id="edge26" class="edge"><title>n1:e&#45;&gt;c37:p31:w</title>
<path fill="none" stroke="black" d="M258,-2027.8C273.571,-2027.8 278.588,-2019.54 289.871,-2016.19"/>
<polygon fill="black" stroke="black" points="290.569,-2019.63 300,-2014.8 289.617,-2012.69 290.569,-2019.63"/>
</g>
<!-- n1&#45;&gt;c39 -->
<g id="edge27" class="edge"><title>n1:e&#45;&gt;c39:p33:w</title>
<path fill="none" stroke="black" d="M258,-2027.8C286.183,-2027.8 275.604,-2070.68 294.097,-2081.39"/>
<polygon fill="black" stroke="black" points="293.456,-2084.84 304,-2083.8 295.109,-2078.04 293.456,-2084.84"/>
</g>
<!-- n1&#45;&gt;c47 -->
<g id="edge28" class="edge"><title>n1:e&#45;&gt;c47:p33:w</title>
<path fill="none" stroke="black" d="M258,-2027.8C366.991,-2027.8 203.565,-1794.59 294.999,-1779.56"/>
<polygon fill="black" stroke="black" points="295.294,-1783.05 305,-1778.8 294.764,-1776.07 295.294,-1783.05"/>
</g>
<!-- n1&#45;&gt;c66 -->
<g id="edge29" class="edge"><title>n1:e&#45;&gt;c66:p62:w</title>
<path fill="none" stroke="black" d="M258,-2027.8C322.827,-2027.8 245.808,-2300.35 295.121,-2330.16"/>
<polygon fill="black" stroke="black" points="294.436,-2333.6 305,-2332.8 296.241,-2326.84 294.436,-2333.6"/>
</g>
<!-- n10 -->
<g id="node57" class="node"><title>n10</title>
<polygon fill="none" stroke="black" points="191,-1216.8 118.5,-1198.8 191,-1180.8 263.5,-1198.8 191,-1216.8"/>
<text text-anchor="middle" x="191" y="-1194.6" font-family="Times,serif" font-size="14.00">$new_n19</text>
</g>
<!-- n10&#45;&gt;c41 -->
<g id="edge30" class="edge"><title>n10:e&#45;&gt;c41:p28:w</title>
<path fill="none" stroke="black" d="M264,-1198.8C362.943,-1198.8 209.45,-1626.22 289.657,-1657.94"/>
<polygon fill="black" stroke="black" points="289.539,-1661.48 300,-1659.8 290.776,-1654.59 289.539,-1661.48"/>
</g>
<!-- n10&#45;&gt;c46 -->
<g id="edge31" class="edge"><title>n10:e&#45;&gt;c46:p33:w</title>
<path fill="none" stroke="black" d="M264,-1198.8C277.997,-1198.8 283.603,-1195.75 293.928,-1194.41"/>
<polygon fill="black" stroke="black" points="294.231,-1197.9 304,-1193.8 293.806,-1190.91 294.231,-1197.9"/>
</g>
<!-- n10&#45;&gt;c55 -->
<g id="edge32" class="edge"><title>n10:e&#45;&gt;c55:p53:w</title>
<path fill="none" stroke="black" d="M264,-1198.8C327.861,-1198.8 243.027,-1067.09 290.044,-1052.17"/>
<polygon fill="black" stroke="black" points="290.571,-1055.63 300,-1050.8 289.616,-1048.7 290.571,-1055.63"/>
</g>
<!-- n11 -->
<g id="node58" class="node"><title>n11</title>
<polygon fill="none" stroke="black" points="191,-1162.8 118.5,-1144.8 191,-1126.8 263.5,-1144.8 191,-1162.8"/>
<text text-anchor="middle" x="191" y="-1140.6" font-family="Times,serif" font-size="14.00">$new_n20</text>
</g>
<!-- n11&#45;&gt;c44 -->
<g id="edge33" class="edge"><title>n11:e&#45;&gt;c44:p28:w</title>
<path fill="none" stroke="black" d="M264,-1144.8C318.955,-1144.8 253.986,-916.442 293.013,-886.113"/>
<polygon fill="black" stroke="black" points="294.61,-889.27 303,-882.8 292.407,-882.626 294.61,-889.27"/>
</g>
<!-- n11&#45;&gt;c46 -->
<g id="edge34" class="edge"><title>n11:e&#45;&gt;c46:p45:w</title>
<path fill="none" stroke="black" d="M264,-1144.8C280.683,-1144.8 282.993,-1160.34 294.062,-1166.41"/>
<polygon fill="black" stroke="black" points="293.459,-1169.87 304,-1168.8 295.095,-1163.06 293.459,-1169.87"/>
</g>
<!-- n12 -->
<g id="node59" class="node"><title>n12</title>
<polygon fill="none" stroke="black" points="191,-504.8 118.5,-486.8 191,-468.8 263.5,-486.8 191,-504.8"/>
<text text-anchor="middle" x="191" y="-482.6" font-family="Times,serif" font-size="14.00">$new_n21</text>
</g>
<!-- n12&#45;&gt;c46 -->
<g id="edge35" class="edge"><title>n12:e&#45;&gt;c46:p28:w</title>
<path fill="none" stroke="black" d="M264,-486.8C333.707,-486.8 240.433,-1083.65 294.861,-1139.6"/>
<polygon fill="black" stroke="black" points="293.452,-1142.81 304,-1143.8 296.372,-1136.45 293.452,-1142.81"/>
</g>
<!-- n12&#45;&gt;c50 -->
<g id="edge36" class="edge"><title>n12:e&#45;&gt;c50:p31:w</title>
<path fill="none" stroke="black" d="M264,-486.8C323.615,-486.8 251.2,-236.879 295.343,-207.591"/>
<polygon fill="black" stroke="black" points="296.365,-210.939 305,-204.8 294.421,-204.214 296.365,-210.939"/>
</g>
<!-- n12&#45;&gt;c58 -->
<g id="edge37" class="edge"><title>n12:e&#45;&gt;c58:p27:w</title>
<path fill="none" stroke="black" d="M264,-486.8C286.615,-486.8 279.75,-454.052 293.153,-443.818"/>
<polygon fill="black" stroke="black" points="294.465,-447.077 303,-440.8 292.413,-440.384 294.465,-447.077"/>
</g>
<!-- n13 -->
<g id="node60" class="node"><title>n13</title>
<polygon fill="none" stroke="black" points="191,-232.8 118.5,-214.8 191,-196.8 263.5,-214.8 191,-232.8"/>
<text text-anchor="middle" x="191" y="-210.6" font-family="Times,serif" font-size="14.00">$new_n22</text>
</g>
<!-- n13&#45;&gt;c47 -->
<g id="edge38" class="edge"><title>n13:e&#45;&gt;c47:p28:w</title>
<path fill="none" stroke="black" d="M264,-214.8C346.44,-214.8 228.587,-1644.59 296.553,-1747.92"/>
<polygon fill="black" stroke="black" points="294.794,-1750.96 305,-1753.8 298.794,-1745.21 294.794,-1750.96"/>
</g>
<!-- n13&#45;&gt;c48 -->
<g id="edge39" class="edge"><title>n13:e&#45;&gt;c48:p32:w</title>
<path fill="none" stroke="black" d="M264,-214.8C330.549,-214.8 245.007,-78.0768 294.921,-63.1227"/>
<polygon fill="black" stroke="black" points="295.54,-66.5716 305,-61.8 294.63,-59.6311 295.54,-66.5716"/>
</g>
<!-- n13&#45;&gt;c56 -->
<g id="edge40" class="edge"><title>n13:e&#45;&gt;c56:p43:w</title>
<path fill="none" stroke="black" d="M264,-214.8C291.259,-214.8 276.931,-259.169 293.143,-270.954"/>
<polygon fill="black" stroke="black" points="292.422,-274.389 303,-273.8 294.363,-267.664 292.422,-274.389"/>
</g>
<!-- n14 -->
<g id="node61" class="node"><title>n14</title>
<polygon fill="none" stroke="black" points="191,-81.8 118.5,-63.8 191,-45.8 263.5,-63.8 191,-81.8"/>
<text text-anchor="middle" x="191" y="-59.6" font-family="Times,serif" font-size="14.00">$new_n23</text>
</g>
<!-- n14&#45;&gt;c48 -->
<g id="edge41" class="edge"><title>n14:e&#45;&gt;c48:p28:w</title>
<path fill="none" stroke="black" d="M264,-63.8C281.728,-63.8 283.311,-45.9758 294.984,-39.2917"/>
<polygon fill="black" stroke="black" points="296.141,-42.6107 305,-36.8 294.451,-35.8177 296.141,-42.6107"/>
</g>
<!-- n14&#45;&gt;c50 -->
<g id="edge42" class="edge"><title>n14:e&#45;&gt;c50:p32:w</title>
<path fill="none" stroke="black" d="M264,-63.8C314.623,-63.8 259.789,-163.22 294.758,-177.978"/>
<polygon fill="black" stroke="black" points="294.542,-181.494 305,-179.8 295.768,-174.603 294.542,-181.494"/>
</g>
<!-- n15 -->
<g id="node62" class="node"><title>n15</title>
<polygon fill="none" stroke="black" points="191,-450.8 118.5,-432.8 191,-414.8 263.5,-432.8 191,-450.8"/>
<text text-anchor="middle" x="191" y="-428.6" font-family="Times,serif" font-size="14.00">$new_n24</text>
</g>
<!-- n15&#45;&gt;c49 -->
<g id="edge43" class="edge"><title>n15:e&#45;&gt;c49:p28:w</title>
<path fill="none" stroke="black" d="M264,-432.8C316.136,-432.8 256.57,-536.518 292.998,-551.104"/>
<polygon fill="black" stroke="black" points="292.556,-554.579 303,-552.8 293.726,-547.677 292.556,-554.579"/>
</g>
<!-- n15&#45;&gt;c50 -->
<g id="edge44" class="edge"><title>n15:e&#45;&gt;c50:p33:w</title>
<path fill="none" stroke="black" d="M264,-432.8C322.459,-432.8 252.345,-188.328 295.235,-158.723"/>
<polygon fill="black" stroke="black" points="296.424,-162.021 305,-155.8 294.416,-155.315 296.424,-162.021"/>
</g>
<!-- n16 -->
<g id="node63" class="node"><title>n16</title>
<polygon fill="none" stroke="black" points="191,-890.8 118.5,-872.8 191,-854.8 263.5,-872.8 191,-890.8"/>
<text text-anchor="middle" x="191" y="-868.6" font-family="Times,serif" font-size="14.00">$new_n26</text>
</g>
<!-- n16&#45;&gt;c51 -->
<g id="edge45" class="edge"><title>n16:e&#45;&gt;c51:p28:w</title>
<path fill="none" stroke="black" d="M264,-872.8C351.452,-872.8 220.416,-687.03 289.945,-671.792"/>
<polygon fill="black" stroke="black" points="290.392,-675.265 300,-670.8 289.705,-668.298 290.392,-675.265"/>
</g>
<!-- n16&#45;&gt;c55 -->
<g id="edge46" class="edge"><title>n16:e&#45;&gt;c55:p52:w</title>
<path fill="none" stroke="black" d="M264,-872.8C351.872,-872.8 220.048,-1059.49 289.898,-1074.8"/>
<polygon fill="black" stroke="black" points="289.705,-1078.3 300,-1075.8 290.392,-1071.34 289.705,-1078.3"/>
</g>
<!-- n17 -->
<g id="node64" class="node"><title>n17</title>
<polygon fill="none" stroke="black" points="191,-286.8 118.5,-268.8 191,-250.8 263.5,-268.8 191,-286.8"/>
<text text-anchor="middle" x="191" y="-264.6" font-family="Times,serif" font-size="14.00">$new_n28</text>
</g>
<!-- n17&#45;&gt;c56 -->
<g id="edge47" class="edge"><title>n17:e&#45;&gt;c56:p28:w</title>
<path fill="none" stroke="black" d="M264,-268.8C279.523,-268.8 282.702,-256.1 293.21,-250.94"/>
<polygon fill="black" stroke="black" points="293.978,-254.355 303,-248.8 292.483,-247.517 293.978,-254.355"/>
</g>
<!-- n17&#45;&gt;c58 -->
<g id="edge48" class="edge"><title>n17:e&#45;&gt;c58:p42:w</title>
<path fill="none" stroke="black" d="M264,-268.8C327.765,-268.8 245.777,-399.619 293.031,-414.439"/>
<polygon fill="black" stroke="black" points="292.618,-417.915 303,-415.8 293.566,-410.979 292.618,-417.915"/>
</g>
<!-- n18 -->
<g id="node65" class="node"><title>n18</title>
<polygon fill="none" stroke="black" points="191,-561.8 118.5,-543.8 191,-525.8 263.5,-543.8 191,-561.8"/>
<text text-anchor="middle" x="191" y="-539.6" font-family="Times,serif" font-size="14.00">$new_n29</text>
</g>
<!-- n18&#45;&gt;c57 -->
<g id="edge49" class="edge"><title>n18:e&#45;&gt;c57:p28:w</title>
<path fill="none" stroke="black" d="M264,-543.8C360.039,-543.8 214.812,-748.702 292.945,-763.91"/>
<polygon fill="black" stroke="black" points="292.73,-767.404 303,-764.8 293.348,-760.431 292.73,-767.404"/>
</g>
<!-- n18&#45;&gt;c58 -->
<g id="edge50" class="edge"><title>n18:e&#45;&gt;c58:p43:w</title>
<path fill="none" stroke="black" d="M264,-543.8C329.93,-543.8 243.738,-407.97 293.029,-393.114"/>
<polygon fill="black" stroke="black" points="293.543,-396.577 303,-391.8 292.628,-389.637 293.543,-396.577"/>
</g>
<!-- n19 -->
<g id="node66" class="node"><title>n19</title>
<polygon fill="none" stroke="black" points="191,-2703.8 148.156,-2685.8 191,-2667.8 233.844,-2685.8 191,-2703.8"/>
<text text-anchor="middle" x="191" y="-2681.6" font-family="Times,serif" font-size="14.00">$262</text>
</g>
<!-- n19&#45;&gt;c64 -->
<g id="edge51" class="edge"><title>n19:e&#45;&gt;c64:p62:w</title>
<path fill="none" stroke="black" d="M235,-2685.8C262.465,-2685.8 271.746,-2685.8 294.949,-2685.8"/>
<polygon fill="black" stroke="black" points="295,-2689.3 305,-2685.8 295,-2682.3 295,-2689.3"/>
</g>
<!-- n2 -->
<g id="node67" class="node"><title>n2</title>
<polygon fill="none" stroke="black" points="191,-340.8 118.5,-322.8 191,-304.8 263.5,-322.8 191,-340.8"/>
<text text-anchor="middle" x="191" y="-318.6" font-family="Times,serif" font-size="14.00">$new_n10</text>
</g>
<!-- n2&#45;&gt;c29 -->
<g id="edge52" class="edge"><title>n2:e&#45;&gt;c29:p28:w</title>
<path fill="none" stroke="black" d="M264,-322.8C335.046,-322.8 245.225,-468.765 299.932,-483.589"/>
<polygon fill="black" stroke="black" points="299.654,-487.081 310,-484.8 300.489,-480.131 299.654,-487.081"/>
</g>
<!-- n2&#45;&gt;c48 -->
<g id="edge53" class="edge"><title>n2:e&#45;&gt;c48:p31:w</title>
<path fill="none" stroke="black" d="M264,-322.8C313.487,-322.8 260.389,-118.821 295.45,-90.1362"/>
<polygon fill="black" stroke="black" points="296.714,-93.4021 305,-86.8 294.405,-86.7937 296.714,-93.4021"/>
</g>
<!-- n2&#45;&gt;c56 -->
<g id="edge54" class="edge"><title>n2:e&#45;&gt;c56:p27:w</title>
<path fill="none" stroke="black" d="M264,-322.8C277.406,-322.8 283.036,-322.8 292.918,-322.8"/>
<polygon fill="black" stroke="black" points="293,-326.3 303,-322.8 293,-319.3 293,-326.3"/>
</g>
<!-- n20 -->
<g id="node68" class="node"><title>n20</title>
<polygon fill="none" stroke="black" points="191,-2484.8 148.156,-2466.8 191,-2448.8 233.844,-2466.8 191,-2484.8"/>
<text text-anchor="middle" x="191" y="-2462.6" font-family="Times,serif" font-size="14.00">$263</text>
</g>
<!-- n20&#45;&gt;c65 -->
<g id="edge55" class="edge"><title>n20:e&#45;&gt;c65:p62:w</title>
<path fill="none" stroke="black" d="M235,-2466.8C265.146,-2466.8 270.271,-2490.6 294.943,-2495.8"/>
<polygon fill="black" stroke="black" points="294.703,-2499.3 305,-2496.8 295.395,-2492.33 294.703,-2499.3"/>
</g>
<!-- n3 -->
<g id="node69" class="node"><title>n3</title>
<polygon fill="none" stroke="black" points="191,-1551.8 118.5,-1533.8 191,-1515.8 263.5,-1533.8 191,-1551.8"/>
<text text-anchor="middle" x="191" y="-1529.6" font-family="Times,serif" font-size="14.00">$new_n11</text>
</g>
<!-- n3&#45;&gt;c30 -->
<g id="edge94" class="edge"><title>n3:e&#45;&gt;c30:p28:w</title>
<path fill="none" stroke="black" d="M264,-1533.8C292.917,-1533.8 281.122,-1578.6 300.179,-1589.45"/>
<polygon fill="black" stroke="black" points="299.46,-1592.88 310,-1591.8 301.087,-1586.07 299.46,-1592.88"/>
</g>
<!-- n3&#45;&gt;c34 -->
<g id="edge95" class="edge"><title>n3:e&#45;&gt;c34:p32:w</title>
<path fill="none" stroke="black" d="M264,-1533.8C278.887,-1533.8 284.061,-1526.95 294.85,-1524.06"/>
<polygon fill="black" stroke="black" points="295.508,-1527.51 305,-1522.8 294.645,-1520.56 295.508,-1527.51"/>
</g>
<!-- n3&#45;&gt;c35 -->
<g id="edge96" class="edge"><title>n3:e&#45;&gt;c35:p32:w</title>
<path fill="none" stroke="black" d="M264,-1533.8C320.946,-1533.8 258.326,-1420.89 299.86,-1406.34"/>
<polygon fill="black" stroke="black" points="300.638,-1409.76 310,-1404.8 299.588,-1402.84 300.638,-1409.76"/>
</g>
<!-- n4 -->
<g id="node70" class="node"><title>n4</title>
<polygon fill="none" stroke="black" points="191,-998.8 118.5,-980.8 191,-962.8 263.5,-980.8 191,-998.8"/>
<text text-anchor="middle" x="191" y="-976.6" font-family="Times,serif" font-size="14.00">$new_n12</text>
</g>
<!-- n4&#45;&gt;c34 -->
<g id="edge97" class="edge"><title>n4:e&#45;&gt;c34:p28:w</title>
<path fill="none" stroke="black" d="M264,-980.8C315.639,-980.8 257.926,-1415.91 296.323,-1468.6"/>
<polygon fill="black" stroke="black" points="294.624,-1471.66 305,-1473.8 298.224,-1465.66 294.624,-1471.66"/>
</g>
<!-- n4&#45;&gt;c57 -->
<g id="edge98" class="edge"><title>n4:e&#45;&gt;c57:p42:w</title>
<path fill="none" stroke="black" d="M264,-980.8C336.349,-980.8 237.813,-830.33 292.806,-815.048"/>
<polygon fill="black" stroke="black" points="293.5,-818.49 303,-813.8 292.649,-811.541 293.5,-818.49"/>
</g>
<!-- n5 -->
<g id="node71" class="node"><title>n5</title>
<polygon fill="none" stroke="black" points="191,-1270.8 118.5,-1252.8 191,-1234.8 263.5,-1252.8 191,-1270.8"/>
<text text-anchor="middle" x="191" y="-1248.6" font-family="Times,serif" font-size="14.00">$new_n13</text>
</g>
<!-- n5&#45;&gt;c35 -->
<g id="edge99" class="edge"><title>n5:e&#45;&gt;c35:p28:w</title>
<path fill="none" stroke="black" d="M264,-1252.8C310.219,-1252.8 267.707,-1340.33 300.062,-1354.01"/>
<polygon fill="black" stroke="black" points="299.538,-1357.47 310,-1355.8 300.778,-1350.58 299.538,-1357.47"/>
</g>
<!-- n5&#45;&gt;c46 -->
<g id="edge100" class="edge"><title>n5:e&#45;&gt;c46:p31:w</title>
<path fill="none" stroke="black" d="M264,-1252.8C278.236,-1252.8 283.52,-1247.31 293.84,-1244.9"/>
<polygon fill="black" stroke="black" points="294.436,-1248.36 304,-1243.8 293.68,-1241.4 294.436,-1248.36"/>
</g>
<!-- n5&#45;&gt;c55 -->
<g id="edge101" class="edge"><title>n5:e&#45;&gt;c55:p27:w</title>
<path fill="none" stroke="black" d="M264,-1252.8C329.492,-1252.8 241.674,-1117.53 289.799,-1102.21"/>
<polygon fill="black" stroke="black" points="290.572,-1105.63 300,-1100.8 289.615,-1098.7 290.572,-1105.63"/>
</g>
<!-- n6 -->
<g id="node72" class="node"><title>n6</title>
<polygon fill="none" stroke="black" points="191,-1991.8 118.5,-1973.8 191,-1955.8 263.5,-1973.8 191,-1991.8"/>
<text text-anchor="middle" x="191" y="-1969.6" font-family="Times,serif" font-size="14.00">$new_n14</text>
</g>
<!-- n6&#45;&gt;c36 -->
<g id="edge102" class="edge"><title>n6:e&#45;&gt;c36:p28:w</title>
<path fill="none" stroke="black" d="M264,-1973.8C352.269,-1973.8 224.298,-2160.49 294.828,-2175.8"/>
<polygon fill="black" stroke="black" points="294.706,-2179.31 305,-2176.8 295.389,-2172.34 294.706,-2179.31"/>
</g>
<!-- n6&#45;&gt;c37 -->
<g id="edge103" class="edge"><title>n6:e&#45;&gt;c37:p32:w</title>
<path fill="none" stroke="black" d="M264,-1973.8C277.405,-1973.8 281.123,-1983.18 289.987,-1987.58"/>
<polygon fill="black" stroke="black" points="289.479,-1991.05 300,-1989.8 290.997,-1984.21 289.479,-1991.05"/>
</g>
<!-- n6&#45;&gt;c41 -->
<g id="edge104" class="edge"><title>n6:e&#45;&gt;c41:p32:w</title>
<path fill="none" stroke="black" d="M264,-1973.8C324.926,-1973.8 245.688,-1717.67 290.189,-1687.66"/>
<polygon fill="black" stroke="black" points="291.379,-1690.96 300,-1684.8 289.42,-1684.24 291.379,-1690.96"/>
</g>
<!-- n7 -->
<g id="node73" class="node"><title>n7</title>
<polygon fill="none" stroke="black" points="191,-1329.8 118.5,-1311.8 191,-1293.8 263.5,-1311.8 191,-1329.8"/>
<text text-anchor="middle" x="191" y="-1307.6" font-family="Times,serif" font-size="14.00">$new_n15</text>
</g>
<!-- n7&#45;&gt;c37 -->
<g id="edge105" class="edge"><title>n7:e&#45;&gt;c37:p28:w</title>
<path fill="none" stroke="black" d="M264,-1311.8C333.118,-1311.8 237.577,-1902.59 290.615,-1960.28"/>
<polygon fill="black" stroke="black" points="289.472,-1963.62 300,-1964.8 292.508,-1957.31 289.472,-1963.62"/>
</g>
<!-- n7&#45;&gt;c38 -->
<g id="edge106" class="edge"><title>n7:e&#45;&gt;c38:p27:w</title>
<path fill="none" stroke="black" d="M264,-1311.8C280.611,-1311.8 287.1,-1311.8 299.915,-1311.8"/>
<polygon fill="black" stroke="black" points="300,-1315.3 310,-1311.8 300,-1308.3 300,-1315.3"/>
</g>
<!-- n7&#45;&gt;c46 -->
<g id="edge107" class="edge"><title>n7:e&#45;&gt;c46:p32:w</title>
<path fill="none" stroke="black" d="M264,-1311.8C304.952,-1311.8 267.221,-1234.76 294.035,-1220.92"/>
<polygon fill="black" stroke="black" points="294.946,-1224.3 304,-1218.8 293.491,-1217.45 294.946,-1224.3"/>
</g>
<!-- n8 -->
<g id="node74" class="node"><title>n8</title>
<polygon fill="none" stroke="black" points="191,-780.8 118.5,-762.8 191,-744.8 263.5,-762.8 191,-780.8"/>
<text text-anchor="middle" x="191" y="-758.6" font-family="Times,serif" font-size="14.00">$new_n17</text>
</g>
<!-- n8&#45;&gt;c39 -->
<g id="edge108" class="edge"><title>n8:e&#45;&gt;c39:p28:w</title>
<path fill="none" stroke="black" d="M264,-762.8C333.08,-762.8 240.206,-1954.67 296.001,-2052.44"/>
<polygon fill="black" stroke="black" points="293.995,-2055.31 304,-2058.8 298.352,-2049.84 293.995,-2055.31"/>
</g>
<!-- n8&#45;&gt;c44 -->
<g id="edge109" class="edge"><title>n8:e&#45;&gt;c44:p27:w</title>
<path fill="none" stroke="black" d="M264,-762.8C348.168,-762.8 226.402,-940.486 292.873,-955.756"/>
<polygon fill="black" stroke="black" points="292.694,-959.256 303,-956.8 293.412,-952.293 292.694,-959.256"/>
</g>
<!-- n8&#45;&gt;c51 -->
<g id="edge110" class="edge"><title>n8:e&#45;&gt;c51:p32:w</title>
<path fill="none" stroke="black" d="M264,-762.8C293.579,-762.8 273.076,-711.503 290.134,-698.679"/>
<polygon fill="black" stroke="black" points="291.381,-701.961 300,-695.8 289.42,-695.241 291.381,-701.961"/>
</g>
<!-- n8&#45;&gt;c56 -->
<g id="edge111" class="edge"><title>n8:e&#45;&gt;c56:p42:w</title>
<path fill="none" stroke="black" d="M264,-762.8C364.051,-762.8 210.808,-329.921 293.049,-299.484"/>
<polygon fill="black" stroke="black" points="293.724,-302.919 303,-297.8 292.556,-296.017 293.724,-302.919"/>
</g>
<!-- n9 -->
<g id="node75" class="node"><title>n9</title>
<polygon fill="none" stroke="black" points="191,-1052.8 118.5,-1034.8 191,-1016.8 263.5,-1034.8 191,-1052.8"/>
<text text-anchor="middle" x="191" y="-1030.6" font-family="Times,serif" font-size="14.00">$new_n18</text>
</g>
<!-- n9&#45;&gt;c40 -->
<g id="edge112" class="edge"><title>n9:e&#45;&gt;c40:p28:w</title>
<path fill="none" stroke="black" d="M264,-1034.8C353.474,-1034.8 222.87,-1807.69 295.151,-1868.07"/>
<polygon fill="black" stroke="black" points="294.409,-1871.53 305,-1871.8 296.889,-1864.98 294.409,-1871.53"/>
</g>
<!-- n9&#45;&gt;c44 -->
<g id="edge113" class="edge"><title>n9:e&#45;&gt;c44:p42:w</title>
<path fill="none" stroke="black" d="M264,-1034.8C308.934,-1034.8 262.988,-948.005 293.012,-933.766"/>
<polygon fill="black" stroke="black" points="293.864,-937.165 303,-931.8 292.512,-930.297 293.864,-937.165"/>
</g>
<!-- n9&#45;&gt;c49 -->
<g id="edge114" class="edge"><title>n9:e&#45;&gt;c49:p43:w</title>
<path fill="none" stroke="black" d="M264,-1034.8C362.142,-1034.8 212.943,-611.089 292.728,-579.641"/>
<polygon fill="black" stroke="black" points="293.774,-583.01 303,-577.8 292.539,-576.119 293.774,-583.01"/>
</g>
</g>
</svg>
