<?xml version="1.0" encoding="UTF-8" standalone="no"?>
<!DOCTYPE svg PUBLIC "-//W3C//DTD SVG 1.1//EN"
 "http://www.w3.org/Graphics/SVG/1.1/DTD/svg11.dtd">
<!-- Generated by graphviz version 2.32.0 (20130805.1022)
 -->
<!-- Title: fsm Pages: 1 -->
<svg width="858pt" height="794pt"
 viewBox="0.00 0.00 858.00 793.95" xmlns="http://www.w3.org/2000/svg" xmlns:xlink="http://www.w3.org/1999/xlink">
<g id="graph0" class="graph" transform="scale(1 1) rotate(0) translate(4 789.946)">
<title>fsm</title>
<polygon fill="white" stroke="white" points="-4,5 -4,-789.946 855,-789.946 855,5 -4,5"/>
<text text-anchor="middle" x="425" y="-8.2" font-family="Times,serif" font-size="14.00">fsm</text>
<!-- n11 -->
<g id="node1" class="node"><title>n11</title>
<polygon fill="none" stroke="black" points="174,-642.8 134.754,-624.8 174,-606.8 213.246,-624.8 174,-642.8"/>
<text text-anchor="middle" x="174" y="-620.6" font-family="Times,serif" font-size="14.00">next</text>
</g>
<!-- p12 -->
<g id="node26" class="node"><title>p12</title>
<path fill="none" stroke="black" d="M393.202,-702.402C393.202,-702.402 286.798,-702.402 286.798,-702.402 280.798,-702.402 274.798,-696.402 274.798,-690.402 274.798,-690.402 274.798,-673.198 274.798,-673.198 274.798,-667.198 280.798,-661.198 286.798,-661.198 286.798,-661.198 393.202,-661.198 393.202,-661.198 399.202,-661.198 405.202,-667.198 405.202,-673.198 405.202,-673.198 405.202,-690.402 405.202,-690.402 405.202,-696.402 399.202,-702.402 393.202,-702.402"/>
<text text-anchor="middle" x="340" y="-686" font-family="Times,serif" font-size="14.00">PROC $1</text>
<text text-anchor="middle" x="340" y="-669.2" font-family="Times,serif" font-size="14.00">src/fsm.sv:23.5&#45;29.8</text>
</g>
<!-- n11&#45;&gt;p12 -->
<g id="edge3" class="edge"><title>n11:e&#45;&gt;p12:w</title>
<path fill="none" stroke="black" stroke-width="3" d="M214,-624.8C246.902,-624.8 239.519,-670.411 263.924,-680.032"/>
<polygon fill="black" stroke="black" points="263.545,-683.519 274,-681.8 264.756,-676.624 263.545,-683.519"/>
</g>
<!-- n12 -->
<g id="node2" class="node"><title>n12</title>
<polygon fill="none" stroke="black" points="492,-699.8 451.231,-681.8 492,-663.8 532.769,-681.8 492,-699.8"/>
<text text-anchor="middle" x="492" y="-677.6" font-family="Times,serif" font-size="14.00">state</text>
</g>
<!-- c20 -->
<g id="node8" class="node"><title>c20</title>
<polygon fill="none" stroke="black" points="592.786,-684 592.786,-733.6 681.214,-733.6 681.214,-684 592.786,-684"/>
<text text-anchor="middle" x="605.839" y="-717" font-family="Times,serif" font-size="14.00">A</text>
<polyline fill="none" stroke="black" points="592.786,-708.8 618.893,-708.8 "/>
<text text-anchor="middle" x="605.839" y="-692.2" font-family="Times,serif" font-size="14.00">B</text>
<polyline fill="none" stroke="black" points="618.893,-684 618.893,-733.6 "/>
<text text-anchor="middle" x="637" y="-713" font-family="Times,serif" font-size="14.00">$9</text>
<text text-anchor="middle" x="637" y="-696.2" font-family="Times,serif" font-size="14.00">$eq</text>
<polyline fill="none" stroke="black" points="655.107,-684 655.107,-733.6 "/>
<text text-anchor="middle" x="668.161" y="-705" font-family="Times,serif" font-size="14.00">Y</text>
</g>
<!-- n12&#45;&gt;c20 -->
<g id="edge5" class="edge"><title>n12:e&#45;&gt;c20:p17:w</title>
<path fill="none" stroke="black" stroke-width="3" d="M534,-681.8C561.181,-681.8 561.418,-711.659 581.863,-719.124"/>
<polygon fill="black" stroke="black" points="581.563,-722.622 592,-720.8 582.705,-715.716 581.563,-722.622"/>
</g>
<!-- p11 -->
<g id="node25" class="node"><title>p11</title>
<path fill="none" stroke="black" d="M683.202,-441.402C683.202,-441.402 590.798,-441.402 590.798,-441.402 584.798,-441.402 578.798,-435.402 578.798,-429.402 578.798,-429.402 578.798,-412.198 578.798,-412.198 578.798,-406.198 584.798,-400.198 590.798,-400.198 590.798,-400.198 683.202,-400.198 683.202,-400.198 689.202,-400.198 695.202,-406.198 695.202,-412.198 695.202,-412.198 695.202,-429.402 695.202,-429.402 695.202,-435.402 689.202,-441.402 683.202,-441.402"/>
<text text-anchor="middle" x="637" y="-425" font-family="Times,serif" font-size="14.00">PROC $3</text>
<text text-anchor="middle" x="637" y="-408.2" font-family="Times,serif" font-size="14.00">src/fsm.sv:0.0&#45;0.0</text>
</g>
<!-- n12&#45;&gt;p11 -->
<g id="edge6" class="edge"><title>n12:e&#45;&gt;p11:w</title>
<path fill="none" stroke="black" stroke-width="3" d="M534,-681.8C588.912,-681.8 528.377,-454.313 567.957,-424.1"/>
<polygon fill="black" stroke="black" points="569.592,-427.247 578,-420.8 567.407,-420.597 569.592,-427.247"/>
</g>
<!-- n12&#45;&gt;p12 -->
<g id="edge7" class="edge"><title>n12:e&#45;&gt;p12:w</title>
<path fill="none" stroke="black" stroke-width="3" d="M534,-681.8C542.012,-681.8 538.777,-694.248 533,-699.8 512.649,-719.358 434.225,-701.578 406,-701.8 347.78,-702.258 317.185,-741.928 275,-701.8 272.078,-699.02 269.771,-694.653 268.95,-690.708"/>
<polygon fill="black" stroke="black" points="272.114,-692.226 274,-681.8 266.024,-688.774 272.114,-692.226"/>
</g>
<!-- n13 -->
<g id="node3" class="node"><title>n13</title>
<polygon fill="none" stroke="black" points="849.774,-701.344 849.774,-716.256 827.061,-726.8 794.939,-726.8 772.226,-716.256 772.226,-701.344 794.939,-690.8 827.061,-690.8 849.774,-701.344"/>
<text text-anchor="middle" x="811" y="-704.6" font-family="Times,serif" font-size="14.00">accept</text>
</g>
<!-- n14 -->
<g id="node4" class="node"><title>n14</title>
<polygon fill="none" stroke="black" points="369.214,-251.344 369.214,-266.256 352.101,-276.8 327.899,-276.8 310.786,-266.256 310.786,-251.344 327.899,-240.8 352.101,-240.8 369.214,-251.344"/>
<text text-anchor="middle" x="340" y="-254.6" font-family="Times,serif" font-size="14.00">data</text>
</g>
<!-- c22 -->
<g id="node11" class="node"><title>c22</title>
<polygon fill="none" stroke="black" points="441.948,-173.6 441.948,-248 542.052,-248 542.052,-173.6 441.948,-173.6"/>
<text text-anchor="middle" x="455.001" y="-231.4" font-family="Times,serif" font-size="14.00">A</text>
<polyline fill="none" stroke="black" points="441.948,-223.2 468.055,-223.2 "/>
<text text-anchor="middle" x="455.001" y="-206.6" font-family="Times,serif" font-size="14.00">B</text>
<polyline fill="none" stroke="black" points="441.948,-198.4 468.055,-198.4 "/>
<text text-anchor="middle" x="455.001" y="-181.8" font-family="Times,serif" font-size="14.00">S</text>
<polyline fill="none" stroke="black" points="468.055,-173.6 468.055,-248 "/>
<text text-anchor="middle" x="492" y="-215" font-family="Times,serif" font-size="14.00">$8</text>
<text text-anchor="middle" x="492" y="-198.2" font-family="Times,serif" font-size="14.00">$mux</text>
<polyline fill="none" stroke="black" points="515.945,-173.6 515.945,-248 "/>
<text text-anchor="middle" x="528.999" y="-206.9" font-family="Times,serif" font-size="14.00">Y</text>
</g>
<!-- n14&#45;&gt;c22 -->
<g id="edge9" class="edge"><title>n14:e&#45;&gt;c22:p21:w</title>
<path fill="none" stroke="black" d="M370,-258.8C390,-258.8 391.713,-245.796 406,-231.8 421.647,-216.471 418.037,-194.262 432.121,-187.695"/>
<polygon fill="black" stroke="black" points="432.839,-191.122 442,-185.8 431.52,-184.247 432.839,-191.122"/>
</g>
<!-- c23 -->
<g id="node14" class="node"><title>c23</title>
<polygon fill="none" stroke="black" points="441.948,-45.6 441.948,-120 542.052,-120 542.052,-45.6 441.948,-45.6"/>
<text text-anchor="middle" x="455.001" y="-103.4" font-family="Times,serif" font-size="14.00">A</text>
<polyline fill="none" stroke="black" points="441.948,-95.2 468.055,-95.2 "/>
<text text-anchor="middle" x="455.001" y="-78.6" font-family="Times,serif" font-size="14.00">B</text>
<polyline fill="none" stroke="black" points="441.948,-70.4 468.055,-70.4 "/>
<text text-anchor="middle" x="455.001" y="-53.8" font-family="Times,serif" font-size="14.00">S</text>
<polyline fill="none" stroke="black" points="468.055,-45.6 468.055,-120 "/>
<text text-anchor="middle" x="492" y="-87" font-family="Times,serif" font-size="14.00">$7</text>
<text text-anchor="middle" x="492" y="-70.2" font-family="Times,serif" font-size="14.00">$mux</text>
<polyline fill="none" stroke="black" points="515.945,-45.6 515.945,-120 "/>
<text text-anchor="middle" x="528.999" y="-78.9" font-family="Times,serif" font-size="14.00">Y</text>
</g>
<!-- n14&#45;&gt;c23 -->
<g id="edge10" class="edge"><title>n14:e&#45;&gt;c23:p21:w</title>
<path fill="none" stroke="black" d="M370,-258.8C390,-258.8 395.281,-248.685 406,-231.8 446.342,-168.255 370.745,-67.7728 431.947,-58.4923"/>
<polygon fill="black" stroke="black" points="432.264,-61.9788 442,-57.8 431.783,-54.9954 432.264,-61.9788"/>
</g>
<!-- c24 -->
<g id="node17" class="node"><title>c24</title>
<polygon fill="none" stroke="black" points="441.948,-483.6 441.948,-558 542.052,-558 542.052,-483.6 441.948,-483.6"/>
<text text-anchor="middle" x="455.001" y="-541.4" font-family="Times,serif" font-size="14.00">A</text>
<polyline fill="none" stroke="black" points="441.948,-533.2 468.055,-533.2 "/>
<text text-anchor="middle" x="455.001" y="-516.6" font-family="Times,serif" font-size="14.00">B</text>
<polyline fill="none" stroke="black" points="441.948,-508.4 468.055,-508.4 "/>
<text text-anchor="middle" x="455.001" y="-491.8" font-family="Times,serif" font-size="14.00">S</text>
<polyline fill="none" stroke="black" points="468.055,-483.6 468.055,-558 "/>
<text text-anchor="middle" x="492" y="-525" font-family="Times,serif" font-size="14.00">$6</text>
<text text-anchor="middle" x="492" y="-508.2" font-family="Times,serif" font-size="14.00">$mux</text>
<polyline fill="none" stroke="black" points="515.945,-483.6 515.945,-558 "/>
<text text-anchor="middle" x="528.999" y="-516.9" font-family="Times,serif" font-size="14.00">Y</text>
</g>
<!-- n14&#45;&gt;c24 -->
<g id="edge11" class="edge"><title>n14:e&#45;&gt;c24:p21:w</title>
<path fill="none" stroke="black" d="M370,-258.8C390,-258.8 395.571,-268.734 406,-285.8 428.76,-323.045 399.913,-470.089 432.361,-492.837"/>
<polygon fill="black" stroke="black" points="431.413,-496.207 442,-495.8 433.47,-489.516 431.413,-496.207"/>
</g>
<!-- c25 -->
<g id="node20" class="node"><title>c25</title>
<polygon fill="none" stroke="black" points="441.948,-383.6 441.948,-458 542.052,-458 542.052,-383.6 441.948,-383.6"/>
<text text-anchor="middle" x="455.001" y="-441.4" font-family="Times,serif" font-size="14.00">A</text>
<polyline fill="none" stroke="black" points="441.948,-433.2 468.055,-433.2 "/>
<text text-anchor="middle" x="455.001" y="-416.6" font-family="Times,serif" font-size="14.00">B</text>
<polyline fill="none" stroke="black" points="441.948,-408.4 468.055,-408.4 "/>
<text text-anchor="middle" x="455.001" y="-391.8" font-family="Times,serif" font-size="14.00">S</text>
<polyline fill="none" stroke="black" points="468.055,-383.6 468.055,-458 "/>
<text text-anchor="middle" x="492" y="-425" font-family="Times,serif" font-size="14.00">$5</text>
<text text-anchor="middle" x="492" y="-408.2" font-family="Times,serif" font-size="14.00">$mux</text>
<polyline fill="none" stroke="black" points="515.945,-383.6 515.945,-458 "/>
<text text-anchor="middle" x="528.999" y="-416.9" font-family="Times,serif" font-size="14.00">Y</text>
</g>
<!-- n14&#45;&gt;c25 -->
<g id="edge12" class="edge"><title>n14:e&#45;&gt;c25:p21:w</title>
<path fill="none" stroke="black" d="M370,-258.8C390,-258.8 394.35,-269.543 406,-285.8 433.623,-324.346 397.194,-385.307 431.635,-394.597"/>
<polygon fill="black" stroke="black" points="431.663,-398.123 442,-395.8 432.47,-391.17 431.663,-398.123"/>
</g>
<!-- c26 -->
<g id="node23" class="node"><title>c26</title>
<polygon fill="none" stroke="black" points="441.948,-283.6 441.948,-358 542.052,-358 542.052,-283.6 441.948,-283.6"/>
<text text-anchor="middle" x="455.001" y="-341.4" font-family="Times,serif" font-size="14.00">A</text>
<polyline fill="none" stroke="black" points="441.948,-333.2 468.055,-333.2 "/>
<text text-anchor="middle" x="455.001" y="-316.6" font-family="Times,serif" font-size="14.00">B</text>
<polyline fill="none" stroke="black" points="441.948,-308.4 468.055,-308.4 "/>
<text text-anchor="middle" x="455.001" y="-291.8" font-family="Times,serif" font-size="14.00">S</text>
<polyline fill="none" stroke="black" points="468.055,-283.6 468.055,-358 "/>
<text text-anchor="middle" x="492" y="-325" font-family="Times,serif" font-size="14.00">$4</text>
<text text-anchor="middle" x="492" y="-308.2" font-family="Times,serif" font-size="14.00">$mux</text>
<polyline fill="none" stroke="black" points="515.945,-283.6 515.945,-358 "/>
<text text-anchor="middle" x="528.999" y="-316.9" font-family="Times,serif" font-size="14.00">Y</text>
</g>
<!-- n14&#45;&gt;c26 -->
<g id="edge13" class="edge"><title>n14:e&#45;&gt;c26:p21:w</title>
<path fill="none" stroke="black" d="M370,-258.8C402.183,-258.8 405.613,-288.407 431.731,-294.652"/>
<polygon fill="black" stroke="black" points="431.673,-298.167 442,-295.8 432.451,-291.211 431.673,-298.167"/>
</g>
<!-- n15 -->
<g id="node5" class="node"><title>n15</title>
<polygon fill="none" stroke="black" points="73.1788,-725.344 73.1788,-740.256 51.9858,-750.8 22.0142,-750.8 0.821158,-740.256 0.821158,-725.344 22.0142,-714.8 51.9858,-714.8 73.1788,-725.344"/>
<text text-anchor="middle" x="37" y="-728.6" font-family="Times,serif" font-size="14.00">nRST</text>
</g>
<!-- c27 -->
<g id="node24" class="node"><title>c27</title>
<polygon fill="none" stroke="black" points="109.95,-661 109.95,-702.6 238.05,-702.6 238.05,-661 109.95,-661"/>
<text text-anchor="middle" x="123.004" y="-678" font-family="Times,serif" font-size="14.00">A</text>
<polyline fill="none" stroke="black" points="136.057,-661 136.057,-702.6 "/>
<text text-anchor="middle" x="174" y="-686" font-family="Times,serif" font-size="14.00">$2</text>
<text text-anchor="middle" x="174" y="-669.2" font-family="Times,serif" font-size="14.00">$logic_not</text>
<polyline fill="none" stroke="black" points="211.943,-661 211.943,-702.6 "/>
<text text-anchor="middle" x="224.996" y="-678" font-family="Times,serif" font-size="14.00">Y</text>
</g>
<!-- n15&#45;&gt;c27 -->
<g id="edge14" class="edge"><title>n15:e&#45;&gt;c27:p17:w</title>
<path fill="none" stroke="black" d="M74,-732.8C97.6265,-732.8 87.0004,-695.817 100.458,-684.838"/>
<polygon fill="black" stroke="black" points="101.533,-688.169 110,-681.8 99.4095,-681.498 101.533,-688.169"/>
</g>
<!-- n15&#45;&gt;p12 -->
<g id="edge15" class="edge"><title>n15:e&#45;&gt;p12:w</title>
<path fill="none" stroke="black" d="M74,-732.8C95.7051,-732.8 89.7714,-757.931 110,-765.8 163.019,-786.424 190.507,-797.117 238,-765.8 268.465,-745.711 240.461,-693.916 263.915,-683.602"/>
<polygon fill="black" stroke="black" points="264.771,-687.004 274,-681.8 263.54,-680.113 264.771,-687.004"/>
</g>
<!-- n16 -->
<g id="node6" class="node"><title>n16</title>
<polygon fill="none" stroke="black" points="206.696,-731.344 206.696,-746.256 187.543,-756.8 160.457,-756.8 141.304,-746.256 141.304,-731.344 160.457,-720.8 187.543,-720.8 206.696,-731.344"/>
<text text-anchor="middle" x="174" y="-734.6" font-family="Times,serif" font-size="14.00">CLK</text>
</g>
<!-- n16&#45;&gt;p12 -->
<g id="edge16" class="edge"><title>n16:e&#45;&gt;p12:w</title>
<path fill="none" stroke="black" d="M208,-738.8C242.974,-738.8 237.011,-692.389 263.99,-683.325"/>
<polygon fill="black" stroke="black" points="264.641,-686.766 274,-681.8 263.587,-679.846 264.641,-686.766"/>
</g>
<!-- v0 -->
<g id="node7" class="node"><title>v0</title>
<ellipse fill="none" stroke="black" cx="492" cy="-735.8" rx="33.6305" ry="18"/>
<text text-anchor="middle" x="492" y="-731.6" font-family="Times,serif" font-size="14.00">3&#39;000</text>
</g>
<!-- v0&#45;&gt;c20 -->
<g id="edge23" class="edge"><title>v0:e&#45;&gt;c20:p18:w</title>
<path fill="none" stroke="black" stroke-width="3" d="M527,-735.8C556.874,-735.8 558.386,-705.135 581.834,-698.188"/>
<polygon fill="black" stroke="black" points="582.565,-701.621 592,-696.8 581.618,-694.685 582.565,-701.621"/>
</g>
<!-- x13 -->
<g id="node27" class="node"><title>x13</title>
<ellipse fill="black" stroke="black" cx="734" cy="-708.8" rx="1.8" ry="1.8"/>
</g>
<!-- c20&#45;&gt;x13 -->
<g id="edge1" class="edge"><title>c20:p19:e&#45;&gt;x13:w</title>
<path fill="none" stroke="black" d="M682,-708.8C700.403,-708.8 707.376,-708.8 721.849,-708.8"/>
<polygon fill="black" stroke="black" points="722,-712.3 732,-708.8 722,-705.3 722,-712.3"/>
</g>
<!-- v1 -->
<g id="node9" class="node"><title>v1</title>
<ellipse fill="none" stroke="black" cx="340" cy="-150.8" rx="33.6305" ry="18"/>
<text text-anchor="middle" x="340" y="-146.6" font-family="Times,serif" font-size="14.00">3&#39;100</text>
</g>
<!-- v1&#45;&gt;c22 -->
<g id="edge24" class="edge"><title>v1:e&#45;&gt;c22:p18:w</title>
<path fill="none" stroke="black" stroke-width="3" d="M375,-150.8C411.225,-150.8 403.989,-200.077 432.066,-209.317"/>
<polygon fill="black" stroke="black" points="431.593,-212.785 442,-210.8 432.626,-205.862 431.593,-212.785"/>
</g>
<!-- v2 -->
<g id="node10" class="node"><title>v2</title>
<ellipse fill="none" stroke="black" cx="340" cy="-204.8" rx="33.6305" ry="18"/>
<text text-anchor="middle" x="340" y="-200.6" font-family="Times,serif" font-size="14.00">3&#39;011</text>
</g>
<!-- v2&#45;&gt;c22 -->
<g id="edge26" class="edge"><title>v2:e&#45;&gt;c22:p17:w</title>
<path fill="none" stroke="black" stroke-width="3" d="M375,-204.8C404.094,-204.8 408.474,-229.174 431.968,-234.697"/>
<polygon fill="black" stroke="black" points="431.677,-238.186 442,-235.8 432.443,-231.228 431.677,-238.186"/>
</g>
<!-- c22&#45;&gt;p11 -->
<g id="edge17" class="edge"><title>c22:p19:e&#45;&gt;p11:w</title>
<path fill="none" stroke="black" stroke-width="3" d="M542,-210.8C632.996,-210.8 494.91,-404.714 568.009,-419.864"/>
<polygon fill="black" stroke="black" points="567.717,-423.352 578,-420.8 568.37,-416.382 567.717,-423.352"/>
</g>
<!-- v3 -->
<g id="node12" class="node"><title>v3</title>
<ellipse fill="none" stroke="black" cx="340" cy="-42.8" rx="33.6305" ry="18"/>
<text text-anchor="middle" x="340" y="-38.6" font-family="Times,serif" font-size="14.00">3&#39;010</text>
</g>
<!-- v3&#45;&gt;c23 -->
<g id="edge27" class="edge"><title>v3:e&#45;&gt;c23:p18:w</title>
<path fill="none" stroke="black" stroke-width="3" d="M375,-42.8C405.888,-42.8 407.393,-74.5285 431.853,-81.4691"/>
<polygon fill="black" stroke="black" points="431.63,-84.9698 442,-82.8 432.54,-78.0292 431.63,-84.9698"/>
</g>
<!-- v4 -->
<g id="node13" class="node"><title>v4</title>
<ellipse fill="none" stroke="black" cx="340" cy="-96.8" rx="33.6305" ry="18"/>
<text text-anchor="middle" x="340" y="-92.6" font-family="Times,serif" font-size="14.00">3&#39;001</text>
</g>
<!-- v4&#45;&gt;c23 -->
<g id="edge28" class="edge"><title>v4:e&#45;&gt;c23:p17:w</title>
<path fill="none" stroke="black" stroke-width="3" d="M375,-96.8C401.522,-96.8 409.869,-105.297 431.989,-107.355"/>
<polygon fill="black" stroke="black" points="431.854,-110.853 442,-107.8 432.165,-103.859 431.854,-110.853"/>
</g>
<!-- c23&#45;&gt;p11 -->
<g id="edge18" class="edge"><title>c23:p19:e&#45;&gt;p11:w</title>
<path fill="none" stroke="black" stroke-width="3" d="M542,-82.8C613.848,-82.8 513.247,-388.598 568.254,-418.461"/>
<polygon fill="black" stroke="black" points="567.459,-421.87 578,-420.8 569.093,-415.063 567.459,-421.87"/>
</g>
<!-- v5 -->
<g id="node15" class="node"><title>v5</title>
<ellipse fill="none" stroke="black" cx="340" cy="-528.8" rx="33.6305" ry="18"/>
<text text-anchor="middle" x="340" y="-524.6" font-family="Times,serif" font-size="14.00">3&#39;000</text>
</g>
<!-- v5&#45;&gt;c24 -->
<g id="edge29" class="edge"><title>v5:e&#45;&gt;c24:p18:w</title>
<path fill="none" stroke="black" stroke-width="3" d="M375,-528.8C401.241,-528.8 409.896,-522.675 431.741,-521.144"/>
<polygon fill="black" stroke="black" points="432.123,-524.633 442,-520.8 431.888,-517.637 432.123,-524.633"/>
</g>
<!-- v6 -->
<g id="node16" class="node"><title>v6</title>
<ellipse fill="none" stroke="black" cx="340" cy="-582.8" rx="33.6305" ry="18"/>
<text text-anchor="middle" x="340" y="-578.6" font-family="Times,serif" font-size="14.00">3&#39;100</text>
</g>
<!-- v6&#45;&gt;c24 -->
<g id="edge30" class="edge"><title>v6:e&#45;&gt;c24:p17:w</title>
<path fill="none" stroke="black" stroke-width="3" d="M375,-582.8C405.296,-582.8 407.79,-553.451 432.004,-547.031"/>
<polygon fill="black" stroke="black" points="432.503,-550.496 442,-545.8 431.647,-543.549 432.503,-550.496"/>
</g>
<!-- c24&#45;&gt;p11 -->
<g id="edge19" class="edge"><title>c24:p19:e&#45;&gt;p11:w</title>
<path fill="none" stroke="black" stroke-width="3" d="M542,-520.8C585.177,-520.8 540.033,-437.249 568.03,-422.889"/>
<polygon fill="black" stroke="black" points="568.93,-426.276 578,-420.8 567.495,-419.425 568.93,-426.276"/>
</g>
<!-- v7 -->
<g id="node18" class="node"><title>v7</title>
<ellipse fill="none" stroke="black" cx="340" cy="-420.8" rx="33.6305" ry="18"/>
<text text-anchor="middle" x="340" y="-416.6" font-family="Times,serif" font-size="14.00">3&#39;011</text>
</g>
<!-- v7&#45;&gt;c25 -->
<g id="edge31" class="edge"><title>v7:e&#45;&gt;c25:p18:w</title>
<path fill="none" stroke="black" stroke-width="3" d="M375,-420.8C401.056,-420.8 410.012,-420.8 431.793,-420.8"/>
<polygon fill="black" stroke="black" points="432,-424.3 442,-420.8 432,-417.3 432,-424.3"/>
</g>
<!-- v8 -->
<g id="node19" class="node"><title>v8</title>
<ellipse fill="none" stroke="black" cx="340" cy="-474.8" rx="33.6305" ry="18"/>
<text text-anchor="middle" x="340" y="-470.6" font-family="Times,serif" font-size="14.00">3&#39;010</text>
</g>
<!-- v8&#45;&gt;c25 -->
<g id="edge32" class="edge"><title>v8:e&#45;&gt;c25:p17:w</title>
<path fill="none" stroke="black" stroke-width="3" d="M375,-474.8C403.772,-474.8 408.686,-451.998 432.053,-446.832"/>
<polygon fill="black" stroke="black" points="432.415,-450.313 442,-445.8 431.692,-443.351 432.415,-450.313"/>
</g>
<!-- c25&#45;&gt;p11 -->
<g id="edge20" class="edge"><title>c25:p19:e&#45;&gt;p11:w</title>
<path fill="none" stroke="black" stroke-width="3" d="M542,-420.8C554,-420.8 559.25,-420.8 567.875,-420.8"/>
<polygon fill="black" stroke="black" points="568,-424.3 578,-420.8 568,-417.3 568,-424.3"/>
</g>
<!-- v9 -->
<g id="node21" class="node"><title>v9</title>
<ellipse fill="none" stroke="black" cx="340" cy="-312.8" rx="33.6305" ry="18"/>
<text text-anchor="middle" x="340" y="-308.6" font-family="Times,serif" font-size="14.00">3&#39;001</text>
</g>
<!-- v9&#45;&gt;c26 -->
<g id="edge33" class="edge"><title>v9:e&#45;&gt;c26:p18:w</title>
<path fill="none" stroke="black" stroke-width="3" d="M375,-312.8C401.241,-312.8 409.896,-318.925 431.741,-320.456"/>
<polygon fill="black" stroke="black" points="431.888,-323.963 442,-320.8 432.123,-316.967 431.888,-323.963"/>
</g>
<!-- v10 -->
<g id="node22" class="node"><title>v10</title>
<ellipse fill="none" stroke="black" cx="340" cy="-366.8" rx="33.6305" ry="18"/>
<text text-anchor="middle" x="340" y="-362.6" font-family="Times,serif" font-size="14.00">3&#39;000</text>
</g>
<!-- v10&#45;&gt;c26 -->
<g id="edge25" class="edge"><title>v10:e&#45;&gt;c26:p17:w</title>
<path fill="none" stroke="black" stroke-width="3" d="M375,-366.8C402.427,-366.8 409.292,-350.578 431.74,-346.649"/>
<polygon fill="black" stroke="black" points="432.323,-350.113 442,-345.8 431.745,-343.137 432.323,-350.113"/>
</g>
<!-- c26&#45;&gt;p11 -->
<g id="edge21" class="edge"><title>c26:p19:e&#45;&gt;p11:w</title>
<path fill="none" stroke="black" stroke-width="3" d="M542,-320.8C585.177,-320.8 540.033,-404.351 568.03,-418.711"/>
<polygon fill="black" stroke="black" points="567.495,-422.175 578,-420.8 568.93,-415.324 567.495,-422.175"/>
</g>
<!-- c27&#45;&gt;p12 -->
<g id="edge22" class="edge"><title>c27:p19:e&#45;&gt;p12:w</title>
<path fill="none" stroke="black" d="M238,-681.8C250,-681.8 255.25,-681.8 263.875,-681.8"/>
<polygon fill="black" stroke="black" points="264,-685.3 274,-681.8 264,-678.3 264,-685.3"/>
</g>
<!-- p11&#45;&gt;n11 -->
<g id="edge2" class="edge"><title>p11:e&#45;&gt;n11:w</title>
<path fill="none" stroke="black" stroke-width="3" d="M696,-420.8C743.157,-420.8 583.439,-544.292 542,-566.8 410.125,-638.43 362.535,-630.108 213,-642.8 195.729,-644.266 147.592,-654.712 135,-642.8 132.635,-640.563 130.705,-637.173 129.783,-633.936"/>
<polygon fill="black" stroke="black" points="132.986,-635.346 134,-624.8 126.631,-632.412 132.986,-635.346"/>
</g>
<!-- p12&#45;&gt;n12 -->
<g id="edge4" class="edge"><title>p12:e&#45;&gt;n12:w</title>
<path fill="none" stroke="black" stroke-width="3" d="M406,-681.8C421.583,-681.8 427.853,-681.8 439.653,-681.8"/>
<polygon fill="black" stroke="black" points="440,-685.3 450,-681.8 440,-678.3 440,-685.3"/>
</g>
<!-- x13&#45;&gt;n13 -->
<g id="edge8" class="edge"><title>x13:e&#45;&gt;n13:w</title>
<path fill="none" stroke="black" d="M736,-708.8C748,-708.8 753.25,-708.8 761.875,-708.8"/>
<polygon fill="black" stroke="black" points="762,-712.3 772,-708.8 762,-705.3 762,-712.3"/>
</g>
</g>
</svg>
